M48
; DRILL file {KiCad 9.0.1} date 2025-08-05T19:10:54+0300
; FORMAT={-:-/ absolute / metric / decimal}
; #@! TF.CreationDate,2025-08-05T19:10:54+03:00
; #@! TF.GenerationSoftware,Kicad,Pcbnew,9.0.1
; #@! TF.FileFunction,Plated,1,4,PTH
FMAT,2
METRIC
; #@! TA.AperFunction,Plated,PTH,ViaDrill
T1C0.300
; #@! TA.AperFunction,Plated,PTH,ViaDrill
T2C0.400
%
G90
G05
T1
X97.135Y-94.61
X97.46Y-117.06
X97.46Y-116.13
X98.31Y-94.62
X98.32Y-116.13
X98.32Y-117.06
X99.14Y-116.13
X99.14Y-117.06
X99.99Y-117.05
X99.99Y-116.12
X100.85Y-116.12
X100.85Y-117.05
X101.14Y-94.94
X101.66Y-116.08
X101.66Y-117.01
X101.75Y-113.56
X101.86Y-93.73
X102.52Y-92.17
X102.52Y-91.24
X102.97Y-96.79
X103.38Y-91.24
X103.38Y-92.17
X104.14Y-91.23
X104.14Y-92.16
X104.91Y-96.75
X105.0Y-91.23
X105.0Y-92.16
X105.77Y-91.23
X105.77Y-92.16
X105.84Y-88.01
X105.84Y-88.94
X106.63Y-91.23
X106.63Y-92.16
X106.68Y-116.99
X106.68Y-116.06
X106.7Y-88.01
X106.7Y-88.94
X106.93Y-112.56
X107.09Y-96.79
X107.47Y-88.01
X107.47Y-88.94
X107.49Y-117.0
X107.49Y-116.07
X107.52Y-92.17
X107.52Y-91.24
X108.33Y-88.01
X108.33Y-88.94
X108.35Y-116.07
X108.35Y-117.0
X108.38Y-91.24
X108.38Y-92.17
X109.11Y-116.06
X109.11Y-116.99
X109.14Y-91.23
X109.14Y-92.16
X109.47Y-118.43
X109.47Y-119.36
X109.97Y-116.06
X109.97Y-116.99
X110.0Y-91.23
X110.0Y-92.16
X110.33Y-118.43
X110.33Y-119.36
X110.72Y-95.7
X110.74Y-116.06
X110.74Y-116.99
X110.77Y-91.23
X110.77Y-92.16
X111.1Y-118.43
X111.1Y-119.36
X111.3Y-99.59
X111.6Y-116.06
X111.6Y-116.99
X111.63Y-91.23
X111.63Y-92.16
X111.96Y-118.43
X111.96Y-119.36
X112.45Y-108.68
X112.45Y-109.54
X112.45Y-114.46
X112.46Y-110.3
X112.46Y-111.16
X112.46Y-111.93
X112.46Y-112.79
X112.46Y-115.22
X112.46Y-116.08
X112.47Y-92.12
X112.48Y-92.99
X112.48Y-94.52
X112.48Y-98.71
X112.48Y-99.57
X112.48Y-102.2
X112.49Y-91.22
X112.49Y-96.14
X112.49Y-96.91
X112.49Y-97.77
X112.49Y-100.33
X112.49Y-101.19
X112.49Y-106.11
X112.49Y-106.88
X112.49Y-107.74
X112.51Y-117.02
X113.34Y-117.09
X113.38Y-108.68
X113.38Y-109.54
X113.38Y-114.46
X113.39Y-110.3
X113.39Y-111.16
X113.39Y-111.93
X113.39Y-112.79
X113.39Y-115.22
X113.39Y-116.08
X113.41Y-94.52
X113.41Y-98.71
X113.41Y-99.57
X113.41Y-102.2
X113.42Y-91.22
X113.42Y-93.0
X113.42Y-96.14
X113.42Y-96.91
X113.42Y-97.77
X113.42Y-100.33
X113.42Y-101.19
X113.42Y-106.11
X113.42Y-106.88
X113.42Y-107.74
X113.43Y-92.13
X116.44Y-87.6
X116.44Y-88.53
X116.51Y-90.39
X117.3Y-87.6
X117.3Y-88.53
X118.07Y-87.6
X118.07Y-88.53
X118.27Y-104.86
X118.28Y-104.06
X118.5Y-96.91
X118.5Y-97.84
X118.6Y-117.1
X118.6Y-118.03
X118.93Y-87.6
X118.93Y-88.53
X118.95Y-107.46
X119.36Y-96.91
X119.36Y-97.84
X119.39Y-104.72
X119.46Y-117.1
X119.46Y-118.03
X120.02Y-105.38
X120.097Y-104.532
X120.13Y-96.91
X120.13Y-97.84
X120.17Y-110.74
X120.23Y-117.1
X120.23Y-118.03
X120.39Y-103.92
X120.835Y-109.875
X120.99Y-96.91
X120.99Y-97.84
X121.09Y-117.1
X121.09Y-118.03
X122.21Y-108.52
X123.24Y-101.73
X123.79Y-122.92
X123.8Y-121.82
X124.55Y-109.62
X124.58Y-100.7
X124.67Y-108.32
X124.78Y-104.21
X124.82Y-110.775
X124.82Y-111.665
X124.82Y-112.555
X124.84Y-122.93
X124.85Y-121.83
X125.07Y-104.83
X125.17Y-116.418
X125.17Y-117.072
X125.17Y-117.726
X125.17Y-118.38
X125.17Y-119.034
X125.17Y-119.688
X125.503Y-112.77
X125.507Y-110.45
X125.65Y-111.13
X125.65Y-112.06
X125.68Y-115.83
X125.78Y-120.0
X125.82Y-118.24
X125.96Y-122.93
X125.97Y-121.83
X126.01Y-115.03
X126.04Y-97.99
X126.247Y-112.77
X126.408Y-120.0
X126.522Y-110.45
X126.88Y-115.03
X126.9Y-122.95
X126.91Y-121.85
X126.99Y-112.77
X127.036Y-120.0
X127.19Y-101.9
X127.537Y-110.45
X127.63Y-97.96
X127.663Y-120.0
X127.733Y-112.77
X127.75Y-113.523
X127.75Y-114.277
X127.75Y-115.03
X127.76Y-96.13
X127.96Y-109.31
X127.96Y-109.94
X128.02Y-122.95
X128.03Y-121.85
X128.055Y-101.211
X128.17Y-96.68
X128.291Y-120.0
X128.3Y-108.71
X128.919Y-120.0
X129.04Y-109.6
X129.06Y-110.44
X129.2Y-111.2
X129.2Y-111.847
X129.2Y-112.493
X129.2Y-113.14
X129.2Y-113.787
X129.2Y-114.433
X129.2Y-115.08
X129.2Y-122.96
X129.21Y-121.86
X129.547Y-120.0
X129.61Y-110.03
X129.613Y-96.947
X130.017Y-115.08
X130.07Y-101.345
X130.174Y-120.0
X130.25Y-110.96
X130.28Y-97.53
X130.32Y-122.96
X130.33Y-121.86
X130.66Y-101.72
X130.802Y-120.0
X130.83Y-115.08
X131.12Y-115.91
X131.25Y-118.04
X131.26Y-122.98
X131.27Y-121.88
X131.43Y-120.0
X131.53Y-90.22
X131.54Y-88.05
X131.55Y-92.85
X131.56Y-89.134
X131.73Y-109.27
X131.81Y-116.595
X131.81Y-117.206
X131.81Y-117.816
X131.81Y-118.427
X131.81Y-119.038
X131.81Y-119.59
X132.38Y-122.98
X132.39Y-121.88
X132.98Y-114.34
X133.5Y-122.98
X133.51Y-121.88
X133.65Y-105.13
X133.8Y-107.24
X133.9Y-103.97
X133.95Y-101.37
X134.293Y-104.92
X134.62Y-123.0
X134.63Y-121.9
X134.8Y-113.61
X134.8Y-114.54
X134.96Y-112.04
X135.12Y-110.65
X135.49Y-107.84
X135.56Y-123.0
X135.57Y-121.9
X135.66Y-113.61
X135.66Y-114.54
X135.66Y-103.62
X136.43Y-113.61
X136.43Y-114.54
X136.66Y-97.79
X136.68Y-123.0
X136.69Y-121.9
X137.12Y-102.315
X137.29Y-113.61
X137.29Y-114.54
X137.61Y-123.0
X137.62Y-121.9
X137.806Y-104.196
X138.53Y-100.48
X138.73Y-123.0
X138.74Y-121.9
X139.48Y-95.05
X139.48Y-113.95
X139.67Y-123.0
X139.68Y-121.9
X140.42Y-100.38
X140.58Y-102.88
X140.98Y-123.0
X141.0Y-121.9
X142.32Y-97.84
X142.38Y-120.69
X142.38Y-121.9
X142.38Y-123.0
X144.29Y-121.37
X144.29Y-122.3
X144.55Y-117.58
X144.67Y-115.31
X145.0Y-109.0
X145.02Y-111.22
X145.08Y-110.163
X145.15Y-121.37
X145.15Y-122.3
X145.92Y-121.37
X145.92Y-122.3
X146.78Y-121.37
X146.78Y-122.3
X147.48Y-95.92
X147.8Y-94.14
X148.53Y-115.08
X148.53Y-116.01
X149.39Y-115.08
X149.39Y-116.01
X149.78Y-95.78
X149.86Y-94.25
X150.16Y-115.08
X150.16Y-116.01
X151.02Y-115.08
X151.02Y-116.01
X152.12Y-94.33
X152.52Y-98.56
X152.56Y-103.27
X152.58Y-101.97
X152.6Y-100.42
X152.6Y-107.78
X152.624Y-109.042
X152.65Y-95.93
X152.66Y-110.22
X152.66Y-111.24
T2
X135.6Y-94.83
X139.24Y-108.33
X139.69Y-104.14
X144.67Y-95.15
M30
