G04 #@! TF.GenerationSoftware,KiCad,Pcbnew,9.0.1*
G04 #@! TF.CreationDate,2025-08-05T19:10:54+03:00*
G04 #@! TF.ProjectId,com_board,636f6d5f-626f-4617-9264-2e6b69636164,rev?*
G04 #@! TF.SameCoordinates,Original*
G04 #@! TF.FileFunction,Copper,L2,Inr*
G04 #@! TF.FilePolarity,Positive*
%FSLAX46Y46*%
G04 Gerber Fmt 4.6, Leading zero omitted, Abs format (unit mm)*
G04 Created by KiCad (PCBNEW 9.0.1) date 2025-08-05 19:10:54*
%MOMM*%
%LPD*%
G01*
G04 APERTURE LIST*
G04 #@! TA.AperFunction,ViaPad*
%ADD10C,0.600000*%
G04 #@! TD*
G04 #@! TA.AperFunction,ViaPad*
%ADD11C,0.450000*%
G04 #@! TD*
G04 #@! TA.AperFunction,ViaPad*
%ADD12C,0.500000*%
G04 #@! TD*
G04 #@! TA.AperFunction,ViaPad*
%ADD13C,0.700000*%
G04 #@! TD*
G04 APERTURE END LIST*
D10*
G04 #@! TO.N,GND*
X111099999Y-118430000D03*
X135659999Y-114540000D03*
D11*
X133950000Y-101370000D03*
D10*
X112460000Y-111930000D03*
X117299999Y-88530000D03*
X109970000Y-116060001D03*
X112490000Y-100330000D03*
D12*
X149780000Y-95780000D03*
D11*
X126010000Y-115030000D03*
D10*
X111600000Y-116060000D03*
D11*
X126407778Y-120000000D03*
D12*
X152650000Y-95930000D03*
D11*
X125507500Y-110450000D03*
X127663333Y-120000000D03*
D10*
X106699999Y-88010001D03*
X108329999Y-88010000D03*
X113340000Y-117090000D03*
D11*
X129200000Y-113786667D03*
D10*
X148530001Y-116010000D03*
X105840000Y-88940000D03*
X108379999Y-91240000D03*
D11*
X125170000Y-119034000D03*
D10*
X112490000Y-96140000D03*
D11*
X131810000Y-117205625D03*
D10*
X117299999Y-87600001D03*
X121089999Y-117100000D03*
X113420000Y-96140000D03*
X123240000Y-101730000D03*
X135490000Y-107840000D03*
X106630000Y-91230000D03*
D12*
X131540000Y-88050000D03*
D10*
X98320000Y-117060000D03*
X105770001Y-92160000D03*
X145149999Y-121370001D03*
X112460000Y-112790000D03*
X137289999Y-114540000D03*
X97460000Y-116130001D03*
X125649999Y-111130000D03*
X144290000Y-122300000D03*
X119459999Y-117100001D03*
X116439999Y-87600000D03*
X111630000Y-92160000D03*
X113420000Y-97770000D03*
X105000000Y-91230001D03*
X110000000Y-92160000D03*
X111959999Y-119360000D03*
X100850000Y-116120000D03*
D12*
X131550000Y-92850000D03*
D10*
X100850002Y-117050000D03*
X120229999Y-117100000D03*
X113410000Y-102200000D03*
X134960000Y-112040000D03*
X112490000Y-97770000D03*
X146779999Y-122300000D03*
X108329999Y-88940000D03*
X106930000Y-112560000D03*
D11*
X129040000Y-109600000D03*
X126522500Y-110450000D03*
D10*
X112490000Y-106110000D03*
D11*
X125170000Y-116418000D03*
D10*
X130250000Y-110960000D03*
D11*
X130016667Y-115080000D03*
D12*
X147480000Y-95920000D03*
D10*
X144289999Y-121370000D03*
D11*
X129200000Y-111846667D03*
D10*
X108380001Y-92170000D03*
X120989999Y-97840000D03*
X110770000Y-91230000D03*
D11*
X129200000Y-114433333D03*
D10*
X101659999Y-116080000D03*
X113430000Y-92130000D03*
D11*
X131810000Y-116594911D03*
D10*
X103379999Y-91240000D03*
X112470000Y-92120000D03*
D11*
X130070000Y-101344732D03*
D10*
X112510000Y-117020000D03*
X112480000Y-92990000D03*
X98310000Y-94620000D03*
X112450000Y-114460000D03*
X113380000Y-108680000D03*
X98319998Y-116130000D03*
X99140001Y-116130000D03*
X113410000Y-98710000D03*
D11*
X127960000Y-109310000D03*
D10*
X112480000Y-98710000D03*
D11*
X127733333Y-112770000D03*
X131430000Y-120000000D03*
D10*
X104140000Y-91230000D03*
D11*
X125170000Y-117072000D03*
D10*
X118069999Y-87600000D03*
X99990000Y-117050000D03*
D12*
X147800000Y-94140000D03*
D11*
X120390000Y-103920000D03*
D10*
X124670000Y-108320000D03*
D12*
X145079771Y-110163066D03*
D10*
X134799999Y-113610000D03*
X112450000Y-109540000D03*
D12*
X145000000Y-109000000D03*
D10*
X108349999Y-116070000D03*
D11*
X127750000Y-114276667D03*
D10*
X110740001Y-116990000D03*
D11*
X124820000Y-112555000D03*
D10*
X113390000Y-111160000D03*
D11*
X126880000Y-115030000D03*
D10*
X136660000Y-97790000D03*
X107490001Y-116070001D03*
X113380000Y-109540000D03*
X112490000Y-106880000D03*
X113420000Y-101190000D03*
X104140001Y-92160000D03*
X121089999Y-118030000D03*
X109140001Y-92160000D03*
X151020000Y-115080000D03*
X134800000Y-114540000D03*
D12*
X145020000Y-111220000D03*
D11*
X130174444Y-120000000D03*
D10*
X109110001Y-116990000D03*
X137120000Y-102315000D03*
D12*
X152660000Y-110220000D03*
D10*
X112490000Y-91220000D03*
D11*
X131810000Y-117816339D03*
D12*
X118950000Y-107460000D03*
D10*
X111600000Y-116990000D03*
X111100000Y-119360000D03*
X97135000Y-94610000D03*
X127630000Y-97960000D03*
X136430000Y-114540000D03*
X132980000Y-114340000D03*
X106680000Y-116060000D03*
X99140002Y-117060000D03*
X111959999Y-118430000D03*
X135120000Y-110650000D03*
X126040000Y-97990000D03*
D11*
X127960000Y-109940000D03*
D10*
X109469999Y-118430000D03*
D11*
X128291111Y-120000000D03*
X129200000Y-111200000D03*
D10*
X151020000Y-116010000D03*
X148530000Y-115080000D03*
D11*
X127750000Y-113523333D03*
D10*
X106679999Y-116989999D03*
X113410000Y-94520000D03*
X139480000Y-95050000D03*
D11*
X129200000Y-115080000D03*
D10*
X112480000Y-102200000D03*
D11*
X131810000Y-119037767D03*
D10*
X131250000Y-118040000D03*
X107520001Y-91240001D03*
X112490000Y-107740000D03*
X113420000Y-106110000D03*
X103380001Y-92170000D03*
D11*
X131120000Y-115910000D03*
D10*
X112460000Y-111160000D03*
X110329999Y-118430001D03*
X106699999Y-88940000D03*
D11*
X130830000Y-115080000D03*
D10*
X112460000Y-115220000D03*
X125820000Y-118240000D03*
D11*
X129200000Y-112493333D03*
D10*
X112460000Y-116080000D03*
X113410000Y-99570000D03*
D11*
X125170000Y-119688000D03*
D10*
X119359999Y-96910001D03*
X135659999Y-113610001D03*
X112490000Y-96910000D03*
D11*
X125170000Y-118380000D03*
D10*
X99990002Y-116120001D03*
X146779999Y-121370000D03*
X139480000Y-113950000D03*
X144550000Y-117580000D03*
X112460000Y-110300000D03*
X135660000Y-103620000D03*
X113390000Y-110300000D03*
D11*
X130802222Y-120000000D03*
D10*
X125649999Y-112060004D03*
D12*
X152520000Y-98560000D03*
D10*
X145919999Y-121370000D03*
X109470000Y-119360000D03*
D11*
X131810000Y-118427053D03*
D10*
X150160001Y-116010000D03*
X119459999Y-118030000D03*
X116440000Y-88530000D03*
D12*
X152600000Y-100420000D03*
D10*
X113420000Y-107740000D03*
X101140000Y-94940000D03*
X118929999Y-88530000D03*
X149390000Y-115080001D03*
X113380000Y-114460000D03*
X109970000Y-116990000D03*
X137806235Y-104195992D03*
X118500000Y-97840000D03*
D11*
X127750000Y-115030000D03*
D10*
X111630000Y-91230000D03*
D11*
X129200000Y-113140000D03*
D12*
X149860000Y-94250000D03*
D10*
X113420000Y-91220000D03*
D12*
X131530000Y-90220000D03*
D11*
X125680000Y-115830000D03*
D10*
X120230000Y-118030000D03*
X118599999Y-117100000D03*
D11*
X119390000Y-104720000D03*
D10*
X105000000Y-92160000D03*
X145920000Y-122300000D03*
X131730000Y-109270000D03*
X107470000Y-88940000D03*
D11*
X126990000Y-112770000D03*
D10*
X149390000Y-116010000D03*
D11*
X129546667Y-120000000D03*
D10*
X112480000Y-94520000D03*
X145149999Y-122300000D03*
X120989999Y-96910000D03*
X119359999Y-97840000D03*
D11*
X124820000Y-111665000D03*
D10*
X113390000Y-112790000D03*
X118929999Y-87600000D03*
X120130000Y-97840000D03*
X110740000Y-116060000D03*
X112450000Y-108680000D03*
D11*
X131810000Y-119590000D03*
D10*
X102519999Y-92170000D03*
X101660000Y-117010000D03*
D11*
X126246666Y-112770000D03*
D10*
X105770000Y-91230000D03*
X110000000Y-91230001D03*
D11*
X118280000Y-104060000D03*
X124820000Y-110775000D03*
D10*
X118499999Y-96910000D03*
X110329999Y-119360000D03*
X136429999Y-113610000D03*
D12*
X152660000Y-111240000D03*
D10*
X97459998Y-117060000D03*
X111300000Y-99590000D03*
X144670000Y-115310000D03*
X113390000Y-115220000D03*
X113390000Y-116080000D03*
X108350001Y-117000000D03*
X107469999Y-88010000D03*
X107489999Y-117000000D03*
D12*
X152560000Y-103270000D03*
D10*
X105839999Y-88010000D03*
D11*
X133650000Y-105130000D03*
D10*
X137289999Y-113610000D03*
X118600000Y-118030000D03*
D11*
X128300000Y-108710000D03*
X128918889Y-120000000D03*
D10*
X109140000Y-91230000D03*
X150160000Y-115080000D03*
X113420000Y-96910000D03*
X142320000Y-97840000D03*
X110770001Y-92160000D03*
X112490000Y-101190000D03*
D12*
X152600000Y-107780000D03*
D10*
X118070000Y-88530000D03*
D11*
X129060000Y-110440000D03*
D12*
X152580000Y-101970000D03*
D10*
X113390000Y-111930000D03*
D11*
X125170000Y-117726000D03*
D12*
X131559587Y-89133958D03*
D10*
X113420000Y-106880000D03*
X102520001Y-91240001D03*
X112480000Y-99570000D03*
X120129999Y-96910000D03*
D11*
X127035556Y-120000000D03*
D10*
X106630000Y-92160000D03*
D11*
X125780000Y-120000000D03*
D10*
X113420000Y-93000000D03*
X113420000Y-100330000D03*
D12*
X152120000Y-94330000D03*
D11*
X127537500Y-110450000D03*
D12*
X152623707Y-109041670D03*
D10*
X109110000Y-116060000D03*
X107519999Y-92170000D03*
D11*
X125503333Y-112770000D03*
G04 #@! TO.N,3.3V_VDD*
X133800000Y-107240000D03*
D10*
X138740000Y-121900000D03*
X125970000Y-121830000D03*
X124840000Y-122930000D03*
D11*
X122210000Y-108520000D03*
D10*
X142380000Y-120690000D03*
X142380000Y-123000000D03*
X134630000Y-121900000D03*
X133500000Y-122980000D03*
X132390000Y-121880000D03*
X132380000Y-122980000D03*
X124850000Y-121830000D03*
X131260000Y-122980000D03*
X130320000Y-122960000D03*
X129200000Y-122960000D03*
X131270000Y-121880000D03*
X126910000Y-121850000D03*
X123790000Y-122920000D03*
X128030000Y-121850000D03*
D11*
X133900000Y-103970000D03*
D10*
X136690000Y-121900000D03*
X128020000Y-122950000D03*
D11*
X124550000Y-109620000D03*
D10*
X137620000Y-121900000D03*
X126900000Y-122950000D03*
X136680000Y-123000000D03*
X135570000Y-121900000D03*
X130330000Y-121860000D03*
X134620000Y-123000000D03*
X139680000Y-121900000D03*
X139670000Y-123000000D03*
X137610000Y-123000000D03*
D11*
X127190000Y-101900000D03*
D10*
X125960000Y-122930000D03*
X135560000Y-123000000D03*
X129210000Y-121860000D03*
X142380000Y-121900000D03*
X141000000Y-121900000D03*
X140980000Y-123000000D03*
X133510000Y-121880000D03*
X116510000Y-90390000D03*
X123800000Y-121820000D03*
X138730000Y-123000000D03*
D13*
G04 #@! TO.N,VBUS*
X144670000Y-95150000D03*
X135600000Y-94830000D03*
D10*
X124580000Y-100700000D03*
D13*
X139690000Y-104140000D03*
X139240000Y-108330000D03*
D11*
G04 #@! TO.N,Net-(IC1-DEC4)*
X134292504Y-104920001D03*
X129610000Y-110030000D03*
G04 #@! TO.N,/UBS_D-*
X124780000Y-104210000D03*
X140420000Y-100380000D03*
G04 #@! TO.N,/SPI_CLK*
X102970000Y-96790000D03*
X120020000Y-105380000D03*
G04 #@! TO.N,/SPI_MOSI*
X120097300Y-104532418D03*
X107090000Y-96790000D03*
G04 #@! TO.N,/BU-01_RSTn*
X101750000Y-113560000D03*
X128055000Y-101210707D03*
G04 #@! TO.N,/SPI_CS*
X129613000Y-96947000D03*
X110720000Y-95700000D03*
G04 #@! TO.N,/BU-01_IRQ*
X130280000Y-97530000D03*
X101860000Y-93730000D03*
G04 #@! TO.N,/UART_TX*
X130660000Y-101720000D03*
X140580000Y-102880000D03*
G04 #@! TO.N,/UBS_D+*
X138530000Y-100480000D03*
X125070000Y-104830000D03*
G04 #@! TO.N,/SPI_MISO*
X118270000Y-104860000D03*
X104910000Y-96750000D03*
G04 #@! TO.N,/SWDIO*
X120835172Y-109875001D03*
X128170000Y-96680000D03*
G04 #@! TO.N,/SWDCLK*
X127760000Y-96130000D03*
X120170000Y-110740000D03*
G04 #@! TD*
G04 #@! TA.AperFunction,Conductor*
G04 #@! TO.N,GND*
G36*
X150003032Y-86500648D02*
G01*
X150336929Y-86517052D01*
X150349037Y-86518245D01*
X150452146Y-86533539D01*
X150676699Y-86566849D01*
X150688617Y-86569219D01*
X151009951Y-86649709D01*
X151021588Y-86653240D01*
X151092806Y-86678722D01*
X151333467Y-86764832D01*
X151344688Y-86769479D01*
X151644163Y-86911120D01*
X151654871Y-86916844D01*
X151938988Y-87087137D01*
X151949106Y-87093897D01*
X152215170Y-87291224D01*
X152224576Y-87298944D01*
X152470013Y-87521395D01*
X152478604Y-87529986D01*
X152665755Y-87736475D01*
X152701055Y-87775423D01*
X152708775Y-87784829D01*
X152906102Y-88050893D01*
X152912862Y-88061011D01*
X153041776Y-88276092D01*
X153083148Y-88345116D01*
X153088885Y-88355848D01*
X153230514Y-88655297D01*
X153235170Y-88666540D01*
X153346759Y-88978411D01*
X153350292Y-88990055D01*
X153430777Y-89311369D01*
X153433151Y-89323305D01*
X153481754Y-89650962D01*
X153482947Y-89663071D01*
X153499351Y-89996966D01*
X153499500Y-90003051D01*
X153499500Y-119996948D01*
X153499351Y-120003033D01*
X153482947Y-120336928D01*
X153481754Y-120349037D01*
X153433151Y-120676694D01*
X153430777Y-120688630D01*
X153350292Y-121009944D01*
X153346759Y-121021588D01*
X153235170Y-121333459D01*
X153230514Y-121344702D01*
X153088885Y-121644151D01*
X153083148Y-121654883D01*
X152912862Y-121938988D01*
X152906102Y-121949106D01*
X152708775Y-122215170D01*
X152701055Y-122224576D01*
X152478611Y-122470006D01*
X152470006Y-122478611D01*
X152224576Y-122701055D01*
X152215170Y-122708775D01*
X151949106Y-122906102D01*
X151938988Y-122912862D01*
X151654883Y-123083148D01*
X151644151Y-123088885D01*
X151344702Y-123230514D01*
X151333459Y-123235170D01*
X151021588Y-123346759D01*
X151009944Y-123350292D01*
X150688630Y-123430777D01*
X150676694Y-123433151D01*
X150349037Y-123481754D01*
X150336928Y-123482947D01*
X150021989Y-123498419D01*
X150003031Y-123499351D01*
X149996949Y-123499500D01*
X143225134Y-123499500D01*
X143158095Y-123479815D01*
X143112340Y-123427011D01*
X143102396Y-123357853D01*
X143110573Y-123328047D01*
X143119453Y-123306609D01*
X143149737Y-123233497D01*
X143180500Y-123078842D01*
X143180500Y-122921158D01*
X143180500Y-122921155D01*
X143180499Y-122921153D01*
X143149738Y-122766510D01*
X143149737Y-122766503D01*
X143139729Y-122742341D01*
X143089397Y-122620827D01*
X143089393Y-122620820D01*
X143079999Y-122606761D01*
X143021284Y-122518888D01*
X143000408Y-122452214D01*
X143018892Y-122384834D01*
X143021257Y-122381152D01*
X143089394Y-122279179D01*
X143149737Y-122133497D01*
X143180500Y-121978842D01*
X143180500Y-121821158D01*
X143180500Y-121821155D01*
X143180499Y-121821153D01*
X143164586Y-121741153D01*
X143149737Y-121666503D01*
X143116598Y-121586498D01*
X143089397Y-121520827D01*
X143089390Y-121520814D01*
X143001789Y-121389711D01*
X142994763Y-121382685D01*
X142961275Y-121321363D01*
X142966256Y-121251672D01*
X142994763Y-121207315D01*
X142997770Y-121204308D01*
X143001789Y-121200289D01*
X143089394Y-121069179D01*
X143149737Y-120923497D01*
X143180500Y-120768842D01*
X143180500Y-120611158D01*
X143180500Y-120611155D01*
X143180499Y-120611153D01*
X143175892Y-120587993D01*
X143149737Y-120456503D01*
X143149735Y-120456498D01*
X143089397Y-120310827D01*
X143089390Y-120310814D01*
X143001789Y-120179711D01*
X143001786Y-120179707D01*
X142890292Y-120068213D01*
X142890288Y-120068210D01*
X142782036Y-119995878D01*
X142759185Y-119980609D01*
X142759172Y-119980602D01*
X142613501Y-119920264D01*
X142613489Y-119920261D01*
X142499807Y-119897648D01*
X148699500Y-119897648D01*
X148699500Y-120102351D01*
X148731522Y-120304534D01*
X148794781Y-120499223D01*
X148851813Y-120611153D01*
X148885208Y-120676694D01*
X148887715Y-120681613D01*
X149008028Y-120847213D01*
X149152786Y-120991971D01*
X149300790Y-121099500D01*
X149318390Y-121112287D01*
X149425786Y-121167008D01*
X149500776Y-121205218D01*
X149500778Y-121205218D01*
X149500781Y-121205220D01*
X149565154Y-121226136D01*
X149695465Y-121268477D01*
X149796557Y-121284488D01*
X149897648Y-121300500D01*
X149897649Y-121300500D01*
X150102351Y-121300500D01*
X150102352Y-121300500D01*
X150304534Y-121268477D01*
X150499219Y-121205220D01*
X150681610Y-121112287D01*
X150774590Y-121044732D01*
X150847213Y-120991971D01*
X150847215Y-120991968D01*
X150847219Y-120991966D01*
X150991966Y-120847219D01*
X150991968Y-120847215D01*
X150991971Y-120847213D01*
X151048910Y-120768842D01*
X151112287Y-120681610D01*
X151205220Y-120499219D01*
X151268477Y-120304534D01*
X151300500Y-120102352D01*
X151300500Y-119897648D01*
X151268477Y-119695466D01*
X151205220Y-119500781D01*
X151205218Y-119500778D01*
X151205218Y-119500776D01*
X151171503Y-119434607D01*
X151112287Y-119318390D01*
X151104556Y-119307749D01*
X150991971Y-119152786D01*
X150847213Y-119008028D01*
X150681613Y-118887715D01*
X150681612Y-118887714D01*
X150681610Y-118887713D01*
X150624653Y-118858691D01*
X150499223Y-118794781D01*
X150304534Y-118731522D01*
X150129995Y-118703878D01*
X150102352Y-118699500D01*
X149897648Y-118699500D01*
X149873329Y-118703351D01*
X149695465Y-118731522D01*
X149500776Y-118794781D01*
X149318386Y-118887715D01*
X149152786Y-119008028D01*
X149008028Y-119152786D01*
X148887715Y-119318386D01*
X148794781Y-119500776D01*
X148731522Y-119695465D01*
X148699500Y-119897648D01*
X142499807Y-119897648D01*
X142458845Y-119889500D01*
X142458842Y-119889500D01*
X142301158Y-119889500D01*
X142301155Y-119889500D01*
X142146510Y-119920261D01*
X142146498Y-119920264D01*
X142000827Y-119980602D01*
X142000814Y-119980609D01*
X141869711Y-120068210D01*
X141869707Y-120068213D01*
X141758213Y-120179707D01*
X141758210Y-120179711D01*
X141670609Y-120310814D01*
X141670602Y-120310827D01*
X141610264Y-120456498D01*
X141610261Y-120456510D01*
X141579500Y-120611153D01*
X141579500Y-120768846D01*
X141610261Y-120923489D01*
X141610264Y-120923501D01*
X141670602Y-121069172D01*
X141670609Y-121069185D01*
X141714891Y-121135457D01*
X141735769Y-121202135D01*
X141717284Y-121269515D01*
X141665306Y-121316205D01*
X141596336Y-121327381D01*
X141532272Y-121299496D01*
X141524108Y-121292029D01*
X141510292Y-121278213D01*
X141510288Y-121278210D01*
X141379185Y-121190609D01*
X141379172Y-121190602D01*
X141233501Y-121130264D01*
X141233489Y-121130261D01*
X141078845Y-121099500D01*
X141078842Y-121099500D01*
X140921158Y-121099500D01*
X140921155Y-121099500D01*
X140766510Y-121130261D01*
X140766498Y-121130264D01*
X140620827Y-121190602D01*
X140620814Y-121190609D01*
X140489711Y-121278210D01*
X140489707Y-121278213D01*
X140427681Y-121340240D01*
X140366358Y-121373725D01*
X140296666Y-121368741D01*
X140252319Y-121340240D01*
X140190292Y-121278213D01*
X140190288Y-121278210D01*
X140059185Y-121190609D01*
X140059172Y-121190602D01*
X139913501Y-121130264D01*
X139913489Y-121130261D01*
X139758845Y-121099500D01*
X139758842Y-121099500D01*
X139601158Y-121099500D01*
X139601155Y-121099500D01*
X139446510Y-121130261D01*
X139446498Y-121130264D01*
X139300828Y-121190602D01*
X139300814Y-121190610D01*
X139278888Y-121205260D01*
X139212210Y-121226136D01*
X139144830Y-121207649D01*
X139141112Y-121205260D01*
X139119185Y-121190610D01*
X139119184Y-121190609D01*
X139119179Y-121190606D01*
X139119175Y-121190604D01*
X139119171Y-121190602D01*
X138973501Y-121130264D01*
X138973489Y-121130261D01*
X138818845Y-121099500D01*
X138818842Y-121099500D01*
X138661158Y-121099500D01*
X138661155Y-121099500D01*
X138506510Y-121130261D01*
X138506498Y-121130264D01*
X138360827Y-121190602D01*
X138360809Y-121190612D01*
X138248890Y-121265394D01*
X138182213Y-121286272D01*
X138114833Y-121267787D01*
X138111110Y-121265394D01*
X137999190Y-121190612D01*
X137999172Y-121190602D01*
X137853501Y-121130264D01*
X137853489Y-121130261D01*
X137698845Y-121099500D01*
X137698842Y-121099500D01*
X137541158Y-121099500D01*
X137541155Y-121099500D01*
X137386510Y-121130261D01*
X137386498Y-121130264D01*
X137240828Y-121190602D01*
X137240816Y-121190609D01*
X137223887Y-121201920D01*
X137157208Y-121222795D01*
X137089829Y-121204308D01*
X137086113Y-121201920D01*
X137074154Y-121193930D01*
X137069179Y-121190606D01*
X137069175Y-121190604D01*
X137069171Y-121190602D01*
X136923501Y-121130264D01*
X136923489Y-121130261D01*
X136768845Y-121099500D01*
X136768842Y-121099500D01*
X136611158Y-121099500D01*
X136611155Y-121099500D01*
X136456510Y-121130261D01*
X136456498Y-121130264D01*
X136310827Y-121190602D01*
X136310809Y-121190612D01*
X136198890Y-121265394D01*
X136132213Y-121286272D01*
X136064833Y-121267787D01*
X136061110Y-121265394D01*
X135949190Y-121190612D01*
X135949172Y-121190602D01*
X135803501Y-121130264D01*
X135803489Y-121130261D01*
X135648845Y-121099500D01*
X135648842Y-121099500D01*
X135491158Y-121099500D01*
X135491155Y-121099500D01*
X135336510Y-121130261D01*
X135336498Y-121130264D01*
X135190828Y-121190602D01*
X135190814Y-121190610D01*
X135168888Y-121205260D01*
X135102210Y-121226136D01*
X135034830Y-121207649D01*
X135031112Y-121205260D01*
X135009185Y-121190610D01*
X135009184Y-121190609D01*
X135009179Y-121190606D01*
X135009175Y-121190604D01*
X135009171Y-121190602D01*
X134863501Y-121130264D01*
X134863489Y-121130261D01*
X134708845Y-121099500D01*
X134708842Y-121099500D01*
X134551158Y-121099500D01*
X134551155Y-121099500D01*
X134396510Y-121130261D01*
X134396498Y-121130264D01*
X134250827Y-121190602D01*
X134250816Y-121190608D01*
X134153855Y-121255395D01*
X134087177Y-121276272D01*
X134019797Y-121257787D01*
X134016074Y-121255394D01*
X133889185Y-121170609D01*
X133889172Y-121170602D01*
X133743501Y-121110264D01*
X133743489Y-121110261D01*
X133588845Y-121079500D01*
X133588842Y-121079500D01*
X133431158Y-121079500D01*
X133431155Y-121079500D01*
X133276510Y-121110261D01*
X133276498Y-121110264D01*
X133130827Y-121170602D01*
X133130809Y-121170612D01*
X133018890Y-121245394D01*
X132952213Y-121266272D01*
X132884833Y-121247787D01*
X132881110Y-121245394D01*
X132769190Y-121170612D01*
X132769172Y-121170602D01*
X132623501Y-121110264D01*
X132623489Y-121110261D01*
X132468845Y-121079500D01*
X132468842Y-121079500D01*
X132311158Y-121079500D01*
X132311155Y-121079500D01*
X132156510Y-121110261D01*
X132156498Y-121110264D01*
X132010827Y-121170602D01*
X132010809Y-121170612D01*
X131898890Y-121245394D01*
X131832213Y-121266272D01*
X131764833Y-121247787D01*
X131761110Y-121245394D01*
X131649190Y-121170612D01*
X131649172Y-121170602D01*
X131503501Y-121110264D01*
X131503489Y-121110261D01*
X131348845Y-121079500D01*
X131348842Y-121079500D01*
X131191158Y-121079500D01*
X131191155Y-121079500D01*
X131036510Y-121110261D01*
X131036498Y-121110264D01*
X130890828Y-121170602D01*
X130890814Y-121170610D01*
X130883850Y-121175263D01*
X130817171Y-121196136D01*
X130749792Y-121177647D01*
X130746077Y-121175259D01*
X130709187Y-121150611D01*
X130709183Y-121150609D01*
X130709179Y-121150606D01*
X130709175Y-121150604D01*
X130709171Y-121150602D01*
X130563501Y-121090264D01*
X130563489Y-121090261D01*
X130408845Y-121059500D01*
X130408842Y-121059500D01*
X130251158Y-121059500D01*
X130251155Y-121059500D01*
X130096510Y-121090261D01*
X130096498Y-121090264D01*
X129950827Y-121150602D01*
X129950809Y-121150612D01*
X129838890Y-121225394D01*
X129772213Y-121246272D01*
X129704833Y-121227787D01*
X129701110Y-121225394D01*
X129589190Y-121150612D01*
X129589172Y-121150602D01*
X129443501Y-121090264D01*
X129443489Y-121090261D01*
X129288845Y-121059500D01*
X129288842Y-121059500D01*
X129131158Y-121059500D01*
X129131155Y-121059500D01*
X128976510Y-121090261D01*
X128976498Y-121090264D01*
X128830827Y-121150602D01*
X128830814Y-121150609D01*
X128694753Y-121241523D01*
X128628075Y-121262401D01*
X128560695Y-121243916D01*
X128545287Y-121231724D01*
X128544999Y-121232076D01*
X128540288Y-121228210D01*
X128409185Y-121140609D01*
X128409172Y-121140602D01*
X128263501Y-121080264D01*
X128263489Y-121080261D01*
X128108845Y-121049500D01*
X128108842Y-121049500D01*
X127951158Y-121049500D01*
X127951155Y-121049500D01*
X127796510Y-121080261D01*
X127796498Y-121080264D01*
X127650827Y-121140602D01*
X127650809Y-121140612D01*
X127538890Y-121215394D01*
X127472213Y-121236272D01*
X127404833Y-121217787D01*
X127401110Y-121215394D01*
X127289190Y-121140612D01*
X127289172Y-121140602D01*
X127143501Y-121080264D01*
X127143489Y-121080261D01*
X126988845Y-121049500D01*
X126988842Y-121049500D01*
X126831158Y-121049500D01*
X126831155Y-121049500D01*
X126676510Y-121080261D01*
X126676498Y-121080264D01*
X126530828Y-121140602D01*
X126530814Y-121140610D01*
X126523850Y-121145263D01*
X126457171Y-121166136D01*
X126389792Y-121147647D01*
X126386077Y-121145259D01*
X126349187Y-121120611D01*
X126349182Y-121120608D01*
X126349179Y-121120606D01*
X126349175Y-121120604D01*
X126349171Y-121120602D01*
X126203501Y-121060264D01*
X126203489Y-121060261D01*
X126048845Y-121029500D01*
X126048842Y-121029500D01*
X125891158Y-121029500D01*
X125891155Y-121029500D01*
X125736510Y-121060261D01*
X125736498Y-121060264D01*
X125590827Y-121120602D01*
X125590809Y-121120612D01*
X125478890Y-121195394D01*
X125412213Y-121216272D01*
X125344833Y-121197787D01*
X125341110Y-121195394D01*
X125229190Y-121120612D01*
X125229172Y-121120602D01*
X125083501Y-121060264D01*
X125083489Y-121060261D01*
X124928845Y-121029500D01*
X124928842Y-121029500D01*
X124771158Y-121029500D01*
X124771155Y-121029500D01*
X124616510Y-121060261D01*
X124616498Y-121060264D01*
X124470827Y-121120602D01*
X124470816Y-121120608D01*
X124401372Y-121167009D01*
X124334694Y-121187886D01*
X124267314Y-121169401D01*
X124263591Y-121167008D01*
X124179185Y-121110609D01*
X124179172Y-121110602D01*
X124033501Y-121050264D01*
X124033489Y-121050261D01*
X123878845Y-121019500D01*
X123878842Y-121019500D01*
X123721158Y-121019500D01*
X123721155Y-121019500D01*
X123566510Y-121050261D01*
X123566498Y-121050264D01*
X123420827Y-121110602D01*
X123420814Y-121110609D01*
X123289711Y-121198210D01*
X123289707Y-121198213D01*
X123178213Y-121309707D01*
X123178210Y-121309711D01*
X123090609Y-121440814D01*
X123090602Y-121440827D01*
X123030264Y-121586498D01*
X123030261Y-121586510D01*
X122999500Y-121741153D01*
X122999500Y-121898846D01*
X123030261Y-122053489D01*
X123030264Y-122053501D01*
X123090602Y-122199172D01*
X123090609Y-122199185D01*
X123153713Y-122293626D01*
X123174591Y-122360304D01*
X123156107Y-122427684D01*
X123153713Y-122431408D01*
X123080609Y-122540814D01*
X123080602Y-122540827D01*
X123020264Y-122686498D01*
X123020261Y-122686510D01*
X122989500Y-122841153D01*
X122989500Y-122998846D01*
X123020261Y-123153489D01*
X123020264Y-123153501D01*
X123080602Y-123299172D01*
X123080609Y-123299184D01*
X123085570Y-123306609D01*
X123106448Y-123373286D01*
X123087964Y-123440666D01*
X123035985Y-123487357D01*
X122982468Y-123499500D01*
X100003051Y-123499500D01*
X99996968Y-123499351D01*
X99976900Y-123498365D01*
X99663071Y-123482947D01*
X99650962Y-123481754D01*
X99323305Y-123433151D01*
X99311369Y-123430777D01*
X98990055Y-123350292D01*
X98978411Y-123346759D01*
X98666540Y-123235170D01*
X98655301Y-123230515D01*
X98355844Y-123088883D01*
X98345121Y-123083150D01*
X98061011Y-122912862D01*
X98050893Y-122906102D01*
X97784829Y-122708775D01*
X97775423Y-122701055D01*
X97671385Y-122606761D01*
X97529986Y-122478604D01*
X97521395Y-122470013D01*
X97298944Y-122224576D01*
X97291224Y-122215170D01*
X97093897Y-121949106D01*
X97087137Y-121938988D01*
X97063077Y-121898846D01*
X96916844Y-121654871D01*
X96911120Y-121644163D01*
X96769479Y-121344688D01*
X96764829Y-121333459D01*
X96762654Y-121327381D01*
X96677812Y-121090263D01*
X96653240Y-121021588D01*
X96649707Y-121009944D01*
X96640958Y-120975015D01*
X96569219Y-120688617D01*
X96566848Y-120676694D01*
X96518245Y-120349037D01*
X96517052Y-120336927D01*
X96500649Y-120003032D01*
X96500500Y-119996948D01*
X96500500Y-119897648D01*
X98699500Y-119897648D01*
X98699500Y-120102351D01*
X98731522Y-120304534D01*
X98794781Y-120499223D01*
X98851813Y-120611153D01*
X98885208Y-120676694D01*
X98887715Y-120681613D01*
X99008028Y-120847213D01*
X99152786Y-120991971D01*
X99300790Y-121099500D01*
X99318390Y-121112287D01*
X99425786Y-121167008D01*
X99500776Y-121205218D01*
X99500778Y-121205218D01*
X99500781Y-121205220D01*
X99565154Y-121226136D01*
X99695465Y-121268477D01*
X99796557Y-121284488D01*
X99897648Y-121300500D01*
X99897649Y-121300500D01*
X100102351Y-121300500D01*
X100102352Y-121300500D01*
X100304534Y-121268477D01*
X100499219Y-121205220D01*
X100681610Y-121112287D01*
X100774590Y-121044732D01*
X100847213Y-120991971D01*
X100847215Y-120991968D01*
X100847219Y-120991966D01*
X100991966Y-120847219D01*
X100991968Y-120847215D01*
X100991971Y-120847213D01*
X101048910Y-120768842D01*
X101112287Y-120681610D01*
X101205220Y-120499219D01*
X101268477Y-120304534D01*
X101300500Y-120102352D01*
X101300500Y-119897648D01*
X101268477Y-119695466D01*
X101205220Y-119500781D01*
X101205218Y-119500778D01*
X101205218Y-119500776D01*
X101171503Y-119434607D01*
X101112287Y-119318390D01*
X101104556Y-119307749D01*
X100991971Y-119152786D01*
X100847213Y-119008028D01*
X100681613Y-118887715D01*
X100681612Y-118887714D01*
X100681610Y-118887713D01*
X100624653Y-118858691D01*
X100499223Y-118794781D01*
X100304534Y-118731522D01*
X100129995Y-118703878D01*
X100102352Y-118699500D01*
X99897648Y-118699500D01*
X99873329Y-118703351D01*
X99695465Y-118731522D01*
X99500776Y-118794781D01*
X99318386Y-118887715D01*
X99152786Y-119008028D01*
X99008028Y-119152786D01*
X98887715Y-119318386D01*
X98794781Y-119500776D01*
X98731522Y-119695465D01*
X98699500Y-119897648D01*
X96500500Y-119897648D01*
X96500500Y-113631457D01*
X101024499Y-113631457D01*
X101052379Y-113771614D01*
X101052381Y-113771620D01*
X101107069Y-113903650D01*
X101107074Y-113903659D01*
X101186467Y-114022478D01*
X101186470Y-114022482D01*
X101287517Y-114123529D01*
X101287521Y-114123532D01*
X101406340Y-114202925D01*
X101406346Y-114202928D01*
X101406347Y-114202929D01*
X101538380Y-114257619D01*
X101538384Y-114257619D01*
X101538385Y-114257620D01*
X101678542Y-114285500D01*
X101678545Y-114285500D01*
X101821457Y-114285500D01*
X101915751Y-114266742D01*
X101961620Y-114257619D01*
X102093653Y-114202929D01*
X102212479Y-114123532D01*
X102313532Y-114022479D01*
X102392929Y-113903653D01*
X102447619Y-113771620D01*
X102475500Y-113631455D01*
X102475500Y-113488545D01*
X102475500Y-113488542D01*
X102447620Y-113348385D01*
X102447619Y-113348384D01*
X102447619Y-113348380D01*
X102392929Y-113216347D01*
X102392928Y-113216346D01*
X102392925Y-113216340D01*
X102313532Y-113097521D01*
X102313529Y-113097517D01*
X102212482Y-112996470D01*
X102212478Y-112996467D01*
X102093659Y-112917074D01*
X102093650Y-112917069D01*
X101961620Y-112862381D01*
X101961614Y-112862379D01*
X101821457Y-112834500D01*
X101821455Y-112834500D01*
X101678545Y-112834500D01*
X101678543Y-112834500D01*
X101538385Y-112862379D01*
X101538379Y-112862381D01*
X101406349Y-112917069D01*
X101406340Y-112917074D01*
X101287521Y-112996467D01*
X101287517Y-112996470D01*
X101186470Y-113097517D01*
X101186467Y-113097521D01*
X101107074Y-113216340D01*
X101107069Y-113216349D01*
X101052381Y-113348379D01*
X101052379Y-113348385D01*
X101024500Y-113488542D01*
X101024500Y-113488545D01*
X101024500Y-113631455D01*
X101024500Y-113631457D01*
X101024499Y-113631457D01*
X96500500Y-113631457D01*
X96500500Y-110811457D01*
X119444499Y-110811457D01*
X119472379Y-110951614D01*
X119472381Y-110951620D01*
X119527069Y-111083650D01*
X119527074Y-111083659D01*
X119606467Y-111202478D01*
X119606470Y-111202482D01*
X119707517Y-111303529D01*
X119707521Y-111303532D01*
X119826340Y-111382925D01*
X119826346Y-111382928D01*
X119826347Y-111382929D01*
X119958380Y-111437619D01*
X119958384Y-111437619D01*
X119958385Y-111437620D01*
X120098542Y-111465500D01*
X120098545Y-111465500D01*
X120241457Y-111465500D01*
X120335751Y-111446742D01*
X120381620Y-111437619D01*
X120513653Y-111382929D01*
X120632479Y-111303532D01*
X120733532Y-111202479D01*
X120812929Y-111083653D01*
X120867619Y-110951620D01*
X120895500Y-110811455D01*
X120895500Y-110704478D01*
X120915185Y-110637439D01*
X120967989Y-110591684D01*
X120995309Y-110582861D01*
X121009725Y-110579993D01*
X121046792Y-110572620D01*
X121178825Y-110517930D01*
X121297651Y-110438533D01*
X121398704Y-110337480D01*
X121478101Y-110218654D01*
X121532791Y-110086621D01*
X121557250Y-109963659D01*
X121560672Y-109946458D01*
X121560672Y-109803543D01*
X121538376Y-109691457D01*
X123824499Y-109691457D01*
X123852379Y-109831614D01*
X123852381Y-109831620D01*
X123907069Y-109963650D01*
X123907074Y-109963659D01*
X123986467Y-110082478D01*
X123986470Y-110082482D01*
X124087517Y-110183529D01*
X124087521Y-110183532D01*
X124206340Y-110262925D01*
X124206346Y-110262928D01*
X124206347Y-110262929D01*
X124338380Y-110317619D01*
X124338384Y-110317619D01*
X124338385Y-110317620D01*
X124478542Y-110345500D01*
X124478545Y-110345500D01*
X124621457Y-110345500D01*
X124715751Y-110326742D01*
X124761620Y-110317619D01*
X124893653Y-110262929D01*
X125012479Y-110183532D01*
X125094554Y-110101457D01*
X128884499Y-110101457D01*
X128912379Y-110241614D01*
X128912381Y-110241620D01*
X128967069Y-110373650D01*
X128967074Y-110373659D01*
X129046467Y-110492478D01*
X129046470Y-110492482D01*
X129147517Y-110593529D01*
X129147521Y-110593532D01*
X129266340Y-110672925D01*
X129266346Y-110672928D01*
X129266347Y-110672929D01*
X129398380Y-110727619D01*
X129398384Y-110727619D01*
X129398385Y-110727620D01*
X129538542Y-110755500D01*
X129538545Y-110755500D01*
X129681457Y-110755500D01*
X129775751Y-110736742D01*
X129821620Y-110727619D01*
X129953653Y-110672929D01*
X130072479Y-110593532D01*
X130173532Y-110492479D01*
X130252929Y-110373653D01*
X130307619Y-110241620D01*
X130335500Y-110101455D01*
X130335500Y-109958545D01*
X130335500Y-109958542D01*
X130307620Y-109818385D01*
X130307619Y-109818384D01*
X130307619Y-109818380D01*
X130252929Y-109686347D01*
X130252928Y-109686346D01*
X130252925Y-109686340D01*
X130173532Y-109567521D01*
X130173529Y-109567517D01*
X130072482Y-109466470D01*
X130072478Y-109466467D01*
X129953659Y-109387074D01*
X129953650Y-109387069D01*
X129821620Y-109332381D01*
X129821614Y-109332379D01*
X129681457Y-109304500D01*
X129681455Y-109304500D01*
X129538545Y-109304500D01*
X129538543Y-109304500D01*
X129398385Y-109332379D01*
X129398379Y-109332381D01*
X129266349Y-109387069D01*
X129266340Y-109387074D01*
X129147521Y-109466467D01*
X129147517Y-109466470D01*
X129046470Y-109567517D01*
X129046467Y-109567521D01*
X128967074Y-109686340D01*
X128967069Y-109686349D01*
X128912381Y-109818379D01*
X128912379Y-109818385D01*
X128884500Y-109958542D01*
X128884500Y-109958545D01*
X128884500Y-110101455D01*
X128884500Y-110101457D01*
X128884499Y-110101457D01*
X125094554Y-110101457D01*
X125113532Y-110082479D01*
X125192929Y-109963653D01*
X125247619Y-109831620D01*
X125275500Y-109691455D01*
X125275500Y-109548545D01*
X125275500Y-109548542D01*
X125247620Y-109408385D01*
X125247619Y-109408384D01*
X125247619Y-109408380D01*
X125192929Y-109276347D01*
X125192928Y-109276346D01*
X125192925Y-109276340D01*
X125113532Y-109157521D01*
X125113529Y-109157517D01*
X125012482Y-109056470D01*
X125012478Y-109056467D01*
X124893659Y-108977074D01*
X124893650Y-108977069D01*
X124761620Y-108922381D01*
X124761614Y-108922379D01*
X124621457Y-108894500D01*
X124621455Y-108894500D01*
X124478545Y-108894500D01*
X124478543Y-108894500D01*
X124338385Y-108922379D01*
X124338379Y-108922381D01*
X124206349Y-108977069D01*
X124206340Y-108977074D01*
X124087521Y-109056467D01*
X124087517Y-109056470D01*
X123986470Y-109157517D01*
X123986467Y-109157521D01*
X123907074Y-109276340D01*
X123907069Y-109276349D01*
X123852381Y-109408379D01*
X123852379Y-109408385D01*
X123824500Y-109548542D01*
X123824500Y-109548545D01*
X123824500Y-109691455D01*
X123824500Y-109691457D01*
X123824499Y-109691457D01*
X121538376Y-109691457D01*
X121532792Y-109663386D01*
X121532791Y-109663385D01*
X121532791Y-109663381D01*
X121532789Y-109663376D01*
X121502357Y-109589905D01*
X121478102Y-109531351D01*
X121478102Y-109531350D01*
X121478101Y-109531348D01*
X121478099Y-109531345D01*
X121478097Y-109531341D01*
X121398704Y-109412522D01*
X121398701Y-109412518D01*
X121297654Y-109311471D01*
X121297650Y-109311468D01*
X121178831Y-109232075D01*
X121178822Y-109232070D01*
X121046792Y-109177382D01*
X121046786Y-109177380D01*
X120906629Y-109149501D01*
X120906627Y-109149501D01*
X120763717Y-109149501D01*
X120763715Y-109149501D01*
X120623557Y-109177380D01*
X120623551Y-109177382D01*
X120491521Y-109232070D01*
X120491512Y-109232075D01*
X120372693Y-109311468D01*
X120372689Y-109311471D01*
X120271642Y-109412518D01*
X120271639Y-109412522D01*
X120192246Y-109531341D01*
X120192241Y-109531350D01*
X120137553Y-109663380D01*
X120137551Y-109663386D01*
X120109672Y-109803543D01*
X120109672Y-109910522D01*
X120089987Y-109977561D01*
X120037183Y-110023316D01*
X120009865Y-110032139D01*
X119958384Y-110042379D01*
X119958379Y-110042381D01*
X119826349Y-110097069D01*
X119826340Y-110097074D01*
X119707521Y-110176467D01*
X119707517Y-110176470D01*
X119606470Y-110277517D01*
X119606467Y-110277521D01*
X119527074Y-110396340D01*
X119527069Y-110396349D01*
X119472381Y-110528379D01*
X119472379Y-110528385D01*
X119444500Y-110668542D01*
X119444500Y-110668545D01*
X119444500Y-110811455D01*
X119444500Y-110811457D01*
X119444499Y-110811457D01*
X96500500Y-110811457D01*
X96500500Y-108591457D01*
X121484499Y-108591457D01*
X121512379Y-108731614D01*
X121512381Y-108731620D01*
X121567069Y-108863650D01*
X121567074Y-108863659D01*
X121646467Y-108982478D01*
X121646470Y-108982482D01*
X121747517Y-109083529D01*
X121747521Y-109083532D01*
X121866340Y-109162925D01*
X121866346Y-109162928D01*
X121866347Y-109162929D01*
X121998380Y-109217619D01*
X121998384Y-109217619D01*
X121998385Y-109217620D01*
X122138542Y-109245500D01*
X122138545Y-109245500D01*
X122281457Y-109245500D01*
X122375751Y-109226742D01*
X122421620Y-109217619D01*
X122553653Y-109162929D01*
X122672479Y-109083532D01*
X122773532Y-108982479D01*
X122852929Y-108863653D01*
X122907619Y-108731620D01*
X122935500Y-108591455D01*
X122935500Y-108448545D01*
X122935500Y-108448542D01*
X122907620Y-108308385D01*
X122907619Y-108308384D01*
X122907619Y-108308380D01*
X122881875Y-108246228D01*
X138389500Y-108246228D01*
X138389500Y-108413771D01*
X138422182Y-108578074D01*
X138422184Y-108578082D01*
X138486295Y-108732860D01*
X138579373Y-108872162D01*
X138697837Y-108990626D01*
X138790494Y-109052537D01*
X138837137Y-109083703D01*
X138991918Y-109147816D01*
X139140548Y-109177380D01*
X139156228Y-109180499D01*
X139156232Y-109180500D01*
X139156233Y-109180500D01*
X139323768Y-109180500D01*
X139323769Y-109180499D01*
X139488082Y-109147816D01*
X139642863Y-109083703D01*
X139782162Y-108990626D01*
X139900626Y-108872162D01*
X139993703Y-108732863D01*
X140057816Y-108578082D01*
X140090500Y-108413767D01*
X140090500Y-108246233D01*
X140057816Y-108081918D01*
X139998045Y-107937619D01*
X139993704Y-107927139D01*
X139900626Y-107787837D01*
X139782162Y-107669373D01*
X139642860Y-107576295D01*
X139488082Y-107512184D01*
X139488074Y-107512182D01*
X139323771Y-107479500D01*
X139323767Y-107479500D01*
X139156233Y-107479500D01*
X139156228Y-107479500D01*
X138991925Y-107512182D01*
X138991917Y-107512184D01*
X138837139Y-107576295D01*
X138697837Y-107669373D01*
X138579373Y-107787837D01*
X138486295Y-107927139D01*
X138422184Y-108081917D01*
X138422182Y-108081925D01*
X138389500Y-108246228D01*
X122881875Y-108246228D01*
X122852929Y-108176347D01*
X122852928Y-108176346D01*
X122852925Y-108176340D01*
X122773532Y-108057521D01*
X122773529Y-108057517D01*
X122672482Y-107956470D01*
X122672478Y-107956467D01*
X122553659Y-107877074D01*
X122553650Y-107877069D01*
X122421620Y-107822381D01*
X122421614Y-107822379D01*
X122281457Y-107794500D01*
X122281455Y-107794500D01*
X122138545Y-107794500D01*
X122138543Y-107794500D01*
X121998385Y-107822379D01*
X121998379Y-107822381D01*
X121866349Y-107877069D01*
X121866340Y-107877074D01*
X121747521Y-107956467D01*
X121747517Y-107956470D01*
X121646470Y-108057517D01*
X121646467Y-108057521D01*
X121567074Y-108176340D01*
X121567069Y-108176349D01*
X121512381Y-108308379D01*
X121512379Y-108308385D01*
X121484500Y-108448542D01*
X121484500Y-108448545D01*
X121484500Y-108591455D01*
X121484500Y-108591457D01*
X121484499Y-108591457D01*
X96500500Y-108591457D01*
X96500500Y-107311457D01*
X133074499Y-107311457D01*
X133102379Y-107451614D01*
X133102381Y-107451620D01*
X133157069Y-107583650D01*
X133157074Y-107583659D01*
X133236467Y-107702478D01*
X133236470Y-107702482D01*
X133337517Y-107803529D01*
X133337521Y-107803532D01*
X133456340Y-107882925D01*
X133456346Y-107882928D01*
X133456347Y-107882929D01*
X133588380Y-107937619D01*
X133588384Y-107937619D01*
X133588385Y-107937620D01*
X133728542Y-107965500D01*
X133728545Y-107965500D01*
X133871457Y-107965500D01*
X133965751Y-107946742D01*
X134011620Y-107937619D01*
X134143653Y-107882929D01*
X134262479Y-107803532D01*
X134363532Y-107702479D01*
X134442929Y-107583653D01*
X134497619Y-107451620D01*
X134525500Y-107311455D01*
X134525500Y-107168545D01*
X134525500Y-107168542D01*
X134497620Y-107028385D01*
X134497619Y-107028384D01*
X134497619Y-107028380D01*
X134442929Y-106896347D01*
X134442928Y-106896346D01*
X134442925Y-106896340D01*
X134363532Y-106777521D01*
X134363529Y-106777517D01*
X134262482Y-106676470D01*
X134262478Y-106676467D01*
X134143659Y-106597074D01*
X134143650Y-106597069D01*
X134011620Y-106542381D01*
X134011614Y-106542379D01*
X133871457Y-106514500D01*
X133871455Y-106514500D01*
X133728545Y-106514500D01*
X133728543Y-106514500D01*
X133588385Y-106542379D01*
X133588379Y-106542381D01*
X133456349Y-106597069D01*
X133456340Y-106597074D01*
X133337521Y-106676467D01*
X133337517Y-106676470D01*
X133236470Y-106777517D01*
X133236467Y-106777521D01*
X133157074Y-106896340D01*
X133157069Y-106896349D01*
X133102381Y-107028379D01*
X133102379Y-107028385D01*
X133074500Y-107168542D01*
X133074500Y-107168545D01*
X133074500Y-107311455D01*
X133074500Y-107311457D01*
X133074499Y-107311457D01*
X96500500Y-107311457D01*
X96500500Y-104931457D01*
X117544499Y-104931457D01*
X117572379Y-105071614D01*
X117572381Y-105071620D01*
X117627069Y-105203650D01*
X117627074Y-105203659D01*
X117706467Y-105322478D01*
X117706470Y-105322482D01*
X117807517Y-105423529D01*
X117807521Y-105423532D01*
X117926340Y-105502925D01*
X117926346Y-105502928D01*
X117926347Y-105502929D01*
X118058380Y-105557619D01*
X118058384Y-105557619D01*
X118058385Y-105557620D01*
X118198542Y-105585500D01*
X118198545Y-105585500D01*
X118341457Y-105585500D01*
X118454940Y-105562926D01*
X118481620Y-105557619D01*
X118613653Y-105502929D01*
X118690686Y-105451457D01*
X119294499Y-105451457D01*
X119322379Y-105591614D01*
X119322381Y-105591620D01*
X119377069Y-105723650D01*
X119377074Y-105723659D01*
X119456467Y-105842478D01*
X119456470Y-105842482D01*
X119557517Y-105943529D01*
X119557521Y-105943532D01*
X119676340Y-106022925D01*
X119676346Y-106022928D01*
X119676347Y-106022929D01*
X119808380Y-106077619D01*
X119808384Y-106077619D01*
X119808385Y-106077620D01*
X119948542Y-106105500D01*
X119948545Y-106105500D01*
X120091457Y-106105500D01*
X120185751Y-106086742D01*
X120231620Y-106077619D01*
X120363653Y-106022929D01*
X120482479Y-105943532D01*
X120583532Y-105842479D01*
X120662929Y-105723653D01*
X120717619Y-105591620D01*
X120739120Y-105483530D01*
X120745500Y-105451457D01*
X120745500Y-105308542D01*
X120717620Y-105168385D01*
X120717619Y-105168384D01*
X120717619Y-105168380D01*
X120676890Y-105070053D01*
X120669422Y-105000587D01*
X120688350Y-104953713D01*
X120740229Y-104876071D01*
X120794919Y-104744038D01*
X120815508Y-104640532D01*
X120822800Y-104603875D01*
X120822800Y-104460960D01*
X120794920Y-104320803D01*
X120794919Y-104320802D01*
X120794919Y-104320798D01*
X120778623Y-104281457D01*
X124054499Y-104281457D01*
X124082379Y-104421614D01*
X124082381Y-104421620D01*
X124137069Y-104553650D01*
X124137074Y-104553659D01*
X124216466Y-104672477D01*
X124216467Y-104672478D01*
X124216468Y-104672479D01*
X124308182Y-104764193D01*
X124341666Y-104825514D01*
X124344500Y-104851873D01*
X124344500Y-104901455D01*
X124344500Y-104901457D01*
X124344499Y-104901457D01*
X124372379Y-105041614D01*
X124372381Y-105041620D01*
X124427069Y-105173650D01*
X124427074Y-105173659D01*
X124506467Y-105292478D01*
X124506470Y-105292482D01*
X124607517Y-105393529D01*
X124607521Y-105393532D01*
X124726340Y-105472925D01*
X124726346Y-105472928D01*
X124726347Y-105472929D01*
X124858380Y-105527619D01*
X124858384Y-105527619D01*
X124858385Y-105527620D01*
X124998542Y-105555500D01*
X124998545Y-105555500D01*
X125141457Y-105555500D01*
X125235751Y-105536742D01*
X125281620Y-105527619D01*
X125413653Y-105472929D01*
X125532479Y-105393532D01*
X125633532Y-105292479D01*
X125712929Y-105173653D01*
X125767619Y-105041620D01*
X125784289Y-104957815D01*
X125795500Y-104901457D01*
X125795500Y-104758542D01*
X125767620Y-104618385D01*
X125767619Y-104618384D01*
X125767619Y-104618380D01*
X125712929Y-104486347D01*
X125712928Y-104486346D01*
X125712925Y-104486340D01*
X125633532Y-104367521D01*
X125633529Y-104367517D01*
X125541819Y-104275807D01*
X125508334Y-104214484D01*
X125505500Y-104188126D01*
X125505500Y-104138542D01*
X125486188Y-104041457D01*
X133174499Y-104041457D01*
X133202379Y-104181614D01*
X133202381Y-104181620D01*
X133257069Y-104313650D01*
X133257074Y-104313659D01*
X133336467Y-104432478D01*
X133336470Y-104432482D01*
X133437520Y-104533532D01*
X133538232Y-104600825D01*
X133583037Y-104654437D01*
X133591744Y-104723762D01*
X133590958Y-104728118D01*
X133567004Y-104848541D01*
X133567004Y-104848546D01*
X133567004Y-104991456D01*
X133567004Y-104991458D01*
X133567003Y-104991458D01*
X133594883Y-105131615D01*
X133594885Y-105131621D01*
X133649573Y-105263651D01*
X133649578Y-105263660D01*
X133728971Y-105382479D01*
X133728974Y-105382483D01*
X133830021Y-105483530D01*
X133830025Y-105483533D01*
X133948844Y-105562926D01*
X133948850Y-105562929D01*
X133948851Y-105562930D01*
X134080884Y-105617620D01*
X134080888Y-105617620D01*
X134080889Y-105617621D01*
X134221046Y-105645501D01*
X134221049Y-105645501D01*
X134363961Y-105645501D01*
X134458255Y-105626743D01*
X134504124Y-105617620D01*
X134636157Y-105562930D01*
X134754983Y-105483533D01*
X134856036Y-105382480D01*
X134935433Y-105263654D01*
X134990123Y-105131621D01*
X135009074Y-105036349D01*
X135018004Y-104991458D01*
X135018004Y-104848543D01*
X134990124Y-104708386D01*
X134990123Y-104708385D01*
X134990123Y-104708381D01*
X134935433Y-104576348D01*
X134935432Y-104576347D01*
X134935429Y-104576341D01*
X134856036Y-104457522D01*
X134856033Y-104457518D01*
X134754986Y-104356471D01*
X134754982Y-104356468D01*
X134654271Y-104289175D01*
X134641714Y-104274150D01*
X134625754Y-104262805D01*
X134619769Y-104247891D01*
X134609466Y-104235563D01*
X134607025Y-104216134D01*
X134599733Y-104197961D01*
X134601164Y-104169463D01*
X134600759Y-104166238D01*
X134601384Y-104162706D01*
X134601457Y-104162320D01*
X134622561Y-104056228D01*
X138839500Y-104056228D01*
X138839500Y-104223771D01*
X138872182Y-104388074D01*
X138872184Y-104388082D01*
X138936295Y-104542860D01*
X139029373Y-104682162D01*
X139147837Y-104800626D01*
X139219555Y-104848546D01*
X139287137Y-104893703D01*
X139287138Y-104893703D01*
X139287139Y-104893704D01*
X139307590Y-104902175D01*
X139441918Y-104957816D01*
X139606228Y-104990499D01*
X139606232Y-104990500D01*
X139606233Y-104990500D01*
X139773768Y-104990500D01*
X139773769Y-104990499D01*
X139938082Y-104957816D01*
X140092863Y-104893703D01*
X140232162Y-104800626D01*
X140350626Y-104682162D01*
X140443703Y-104542863D01*
X140507816Y-104388082D01*
X140540500Y-104223767D01*
X140540500Y-104056233D01*
X140507816Y-103891918D01*
X140472608Y-103806918D01*
X140460196Y-103776953D01*
X140452727Y-103707483D01*
X140484002Y-103645004D01*
X140544091Y-103609352D01*
X140574757Y-103605500D01*
X140651457Y-103605500D01*
X140745751Y-103586742D01*
X140791620Y-103577619D01*
X140923653Y-103522929D01*
X141042479Y-103443532D01*
X141143532Y-103342479D01*
X141222929Y-103223653D01*
X141277619Y-103091620D01*
X141305500Y-102951455D01*
X141305500Y-102808545D01*
X141305500Y-102808542D01*
X141277620Y-102668385D01*
X141277619Y-102668384D01*
X141277619Y-102668380D01*
X141222929Y-102536347D01*
X141222928Y-102536346D01*
X141222925Y-102536340D01*
X141143532Y-102417521D01*
X141143529Y-102417517D01*
X141042482Y-102316470D01*
X141042478Y-102316467D01*
X140923659Y-102237074D01*
X140923650Y-102237069D01*
X140791620Y-102182381D01*
X140791614Y-102182379D01*
X140651457Y-102154500D01*
X140651455Y-102154500D01*
X140508545Y-102154500D01*
X140508543Y-102154500D01*
X140368385Y-102182379D01*
X140368379Y-102182381D01*
X140236349Y-102237069D01*
X140236340Y-102237074D01*
X140117521Y-102316467D01*
X140117517Y-102316470D01*
X140016470Y-102417517D01*
X140016467Y-102417521D01*
X139937074Y-102536340D01*
X139937069Y-102536349D01*
X139882381Y-102668379D01*
X139882379Y-102668385D01*
X139854500Y-102808542D01*
X139854500Y-102808545D01*
X139854500Y-102951455D01*
X139854500Y-102951457D01*
X139854499Y-102951457D01*
X139882379Y-103091614D01*
X139882380Y-103091616D01*
X139882381Y-103091620D01*
X139893328Y-103118049D01*
X139900797Y-103187515D01*
X139869523Y-103249995D01*
X139809434Y-103285648D01*
X139778767Y-103289500D01*
X139606228Y-103289500D01*
X139441925Y-103322182D01*
X139441917Y-103322184D01*
X139287139Y-103386295D01*
X139147837Y-103479373D01*
X139029373Y-103597837D01*
X138936295Y-103737139D01*
X138872184Y-103891917D01*
X138872182Y-103891925D01*
X138839500Y-104056228D01*
X134622561Y-104056228D01*
X134625500Y-104041455D01*
X134625500Y-103898545D01*
X134625500Y-103898542D01*
X134597620Y-103758385D01*
X134597619Y-103758384D01*
X134597619Y-103758380D01*
X134542929Y-103626347D01*
X134542928Y-103626346D01*
X134542925Y-103626340D01*
X134463532Y-103507521D01*
X134463529Y-103507517D01*
X134362482Y-103406470D01*
X134362478Y-103406467D01*
X134243659Y-103327074D01*
X134243650Y-103327069D01*
X134111620Y-103272381D01*
X134111614Y-103272379D01*
X133971457Y-103244500D01*
X133971455Y-103244500D01*
X133828545Y-103244500D01*
X133828543Y-103244500D01*
X133688385Y-103272379D01*
X133688379Y-103272381D01*
X133556349Y-103327069D01*
X133556340Y-103327074D01*
X133437521Y-103406467D01*
X133437517Y-103406470D01*
X133336470Y-103507517D01*
X133336467Y-103507521D01*
X133257074Y-103626340D01*
X133257069Y-103626349D01*
X133202381Y-103758379D01*
X133202379Y-103758385D01*
X133174500Y-103898542D01*
X133174500Y-103898545D01*
X133174500Y-104041455D01*
X133174500Y-104041457D01*
X133174499Y-104041457D01*
X125486188Y-104041457D01*
X125477620Y-103998385D01*
X125477619Y-103998384D01*
X125477619Y-103998380D01*
X125433521Y-103891918D01*
X125422932Y-103866353D01*
X125422925Y-103866340D01*
X125343532Y-103747521D01*
X125343529Y-103747517D01*
X125242482Y-103646470D01*
X125242478Y-103646467D01*
X125123659Y-103567074D01*
X125123650Y-103567069D01*
X124991620Y-103512381D01*
X124991614Y-103512379D01*
X124851457Y-103484500D01*
X124851455Y-103484500D01*
X124708545Y-103484500D01*
X124708543Y-103484500D01*
X124568385Y-103512379D01*
X124568379Y-103512381D01*
X124436349Y-103567069D01*
X124436340Y-103567074D01*
X124317521Y-103646467D01*
X124317517Y-103646470D01*
X124216470Y-103747517D01*
X124216467Y-103747521D01*
X124137074Y-103866340D01*
X124137069Y-103866349D01*
X124082381Y-103998379D01*
X124082379Y-103998385D01*
X124054500Y-104138542D01*
X124054500Y-104138545D01*
X124054500Y-104281455D01*
X124054500Y-104281457D01*
X124054499Y-104281457D01*
X120778623Y-104281457D01*
X120740229Y-104188765D01*
X120660832Y-104069939D01*
X120660829Y-104069935D01*
X120559782Y-103968888D01*
X120559778Y-103968885D01*
X120440959Y-103889492D01*
X120440950Y-103889487D01*
X120308920Y-103834799D01*
X120308914Y-103834797D01*
X120168757Y-103806918D01*
X120168755Y-103806918D01*
X120025845Y-103806918D01*
X120025843Y-103806918D01*
X119885685Y-103834797D01*
X119885679Y-103834799D01*
X119753649Y-103889487D01*
X119753640Y-103889492D01*
X119634821Y-103968885D01*
X119634817Y-103968888D01*
X119533770Y-104069935D01*
X119533767Y-104069939D01*
X119454374Y-104188758D01*
X119454369Y-104188767D01*
X119399681Y-104320797D01*
X119399679Y-104320803D01*
X119371800Y-104460960D01*
X119371800Y-104460963D01*
X119371800Y-104603873D01*
X119371800Y-104603875D01*
X119371799Y-104603875D01*
X119399679Y-104744032D01*
X119399681Y-104744038D01*
X119419364Y-104791558D01*
X119440408Y-104842361D01*
X119447877Y-104911831D01*
X119428949Y-104958705D01*
X119377074Y-105036340D01*
X119377069Y-105036349D01*
X119322381Y-105168379D01*
X119322379Y-105168385D01*
X119294500Y-105308542D01*
X119294500Y-105308545D01*
X119294500Y-105451455D01*
X119294500Y-105451457D01*
X119294499Y-105451457D01*
X118690686Y-105451457D01*
X118732479Y-105423532D01*
X118833532Y-105322479D01*
X118872840Y-105263651D01*
X118892945Y-105233562D01*
X118912925Y-105203659D01*
X118912925Y-105203658D01*
X118912929Y-105203653D01*
X118967619Y-105071620D01*
X118981749Y-105000587D01*
X118995500Y-104931457D01*
X118995500Y-104788542D01*
X118967620Y-104648385D01*
X118967619Y-104648384D01*
X118967619Y-104648380D01*
X118912929Y-104516347D01*
X118912928Y-104516346D01*
X118912925Y-104516340D01*
X118833532Y-104397521D01*
X118833529Y-104397517D01*
X118732482Y-104296470D01*
X118732478Y-104296467D01*
X118613659Y-104217074D01*
X118613650Y-104217069D01*
X118481620Y-104162381D01*
X118481614Y-104162379D01*
X118341457Y-104134500D01*
X118341455Y-104134500D01*
X118198545Y-104134500D01*
X118198543Y-104134500D01*
X118058385Y-104162379D01*
X118058379Y-104162381D01*
X117926349Y-104217069D01*
X117926340Y-104217074D01*
X117807521Y-104296467D01*
X117807517Y-104296470D01*
X117706470Y-104397517D01*
X117706467Y-104397521D01*
X117627074Y-104516340D01*
X117627069Y-104516349D01*
X117572381Y-104648379D01*
X117572379Y-104648385D01*
X117544500Y-104788542D01*
X117544500Y-104788545D01*
X117544500Y-104931455D01*
X117544500Y-104931457D01*
X117544499Y-104931457D01*
X96500500Y-104931457D01*
X96500500Y-101971457D01*
X126464499Y-101971457D01*
X126492379Y-102111614D01*
X126492381Y-102111620D01*
X126547069Y-102243650D01*
X126547074Y-102243659D01*
X126626467Y-102362478D01*
X126626470Y-102362482D01*
X126727517Y-102463529D01*
X126727521Y-102463532D01*
X126846340Y-102542925D01*
X126846346Y-102542928D01*
X126846347Y-102542929D01*
X126978380Y-102597619D01*
X126978384Y-102597619D01*
X126978385Y-102597620D01*
X127118542Y-102625500D01*
X127118545Y-102625500D01*
X127261457Y-102625500D01*
X127355751Y-102606742D01*
X127401620Y-102597619D01*
X127533653Y-102542929D01*
X127652479Y-102463532D01*
X127753532Y-102362479D01*
X127832929Y-102243653D01*
X127887619Y-102111620D01*
X127902658Y-102036016D01*
X127935043Y-101974105D01*
X127995758Y-101939531D01*
X128024275Y-101936207D01*
X128126457Y-101936207D01*
X128220751Y-101917449D01*
X128266620Y-101908326D01*
X128398653Y-101853636D01*
X128491710Y-101791457D01*
X129934499Y-101791457D01*
X129962379Y-101931614D01*
X129962381Y-101931620D01*
X130017069Y-102063650D01*
X130017074Y-102063659D01*
X130096467Y-102182478D01*
X130096470Y-102182482D01*
X130197517Y-102283529D01*
X130197521Y-102283532D01*
X130316340Y-102362925D01*
X130316346Y-102362928D01*
X130316347Y-102362929D01*
X130448380Y-102417619D01*
X130448384Y-102417619D01*
X130448385Y-102417620D01*
X130588542Y-102445500D01*
X130588545Y-102445500D01*
X130731457Y-102445500D01*
X130825751Y-102426742D01*
X130871620Y-102417619D01*
X131003653Y-102362929D01*
X131122479Y-102283532D01*
X131223532Y-102182479D01*
X131302929Y-102063653D01*
X131357619Y-101931620D01*
X131385500Y-101791455D01*
X131385500Y-101648545D01*
X131385500Y-101648542D01*
X131357620Y-101508385D01*
X131357619Y-101508384D01*
X131357619Y-101508380D01*
X131302929Y-101376347D01*
X131302928Y-101376346D01*
X131302925Y-101376340D01*
X131223532Y-101257521D01*
X131223529Y-101257517D01*
X131122482Y-101156470D01*
X131122478Y-101156467D01*
X131003659Y-101077074D01*
X131003650Y-101077069D01*
X130871620Y-101022381D01*
X130871614Y-101022379D01*
X130731457Y-100994500D01*
X130731455Y-100994500D01*
X130588545Y-100994500D01*
X130588543Y-100994500D01*
X130448385Y-101022379D01*
X130448379Y-101022381D01*
X130316349Y-101077069D01*
X130316340Y-101077074D01*
X130197521Y-101156467D01*
X130197517Y-101156470D01*
X130096470Y-101257517D01*
X130096467Y-101257521D01*
X130017074Y-101376340D01*
X130017069Y-101376349D01*
X129962381Y-101508379D01*
X129962379Y-101508385D01*
X129934500Y-101648542D01*
X129934500Y-101648545D01*
X129934500Y-101791455D01*
X129934500Y-101791457D01*
X129934499Y-101791457D01*
X128491710Y-101791457D01*
X128517479Y-101774239D01*
X128618532Y-101673186D01*
X128697929Y-101554360D01*
X128752619Y-101422327D01*
X128780500Y-101282162D01*
X128780500Y-101139252D01*
X128780500Y-101139249D01*
X128752620Y-100999092D01*
X128752619Y-100999091D01*
X128752619Y-100999087D01*
X128697929Y-100867054D01*
X128697928Y-100867053D01*
X128697925Y-100867047D01*
X128618532Y-100748228D01*
X128618529Y-100748224D01*
X128517482Y-100647177D01*
X128517478Y-100647174D01*
X128398659Y-100567781D01*
X128398650Y-100567776D01*
X128359252Y-100551457D01*
X137804499Y-100551457D01*
X137832379Y-100691614D01*
X137832381Y-100691620D01*
X137887069Y-100823650D01*
X137887074Y-100823659D01*
X137966467Y-100942478D01*
X137966470Y-100942482D01*
X138067517Y-101043529D01*
X138067521Y-101043532D01*
X138186340Y-101122925D01*
X138186346Y-101122928D01*
X138186347Y-101122929D01*
X138318380Y-101177619D01*
X138318384Y-101177619D01*
X138318385Y-101177620D01*
X138458542Y-101205500D01*
X138458545Y-101205500D01*
X138601457Y-101205500D01*
X138695751Y-101186742D01*
X138741620Y-101177619D01*
X138873653Y-101122929D01*
X138992479Y-101043532D01*
X139093532Y-100942479D01*
X139172929Y-100823653D01*
X139227619Y-100691620D01*
X139252253Y-100567778D01*
X139255500Y-100551457D01*
X139255500Y-100451457D01*
X139694499Y-100451457D01*
X139722379Y-100591614D01*
X139722381Y-100591620D01*
X139777069Y-100723650D01*
X139777074Y-100723659D01*
X139856467Y-100842478D01*
X139856470Y-100842482D01*
X139957517Y-100943529D01*
X139957521Y-100943532D01*
X140076340Y-101022925D01*
X140076346Y-101022928D01*
X140076347Y-101022929D01*
X140208380Y-101077619D01*
X140208384Y-101077619D01*
X140208385Y-101077620D01*
X140348542Y-101105500D01*
X140348545Y-101105500D01*
X140491457Y-101105500D01*
X140623777Y-101079179D01*
X140631620Y-101077619D01*
X140763653Y-101022929D01*
X140882479Y-100943532D01*
X140983532Y-100842479D01*
X141062929Y-100723653D01*
X141117619Y-100591620D01*
X141132459Y-100517014D01*
X141145500Y-100451457D01*
X141145500Y-100308542D01*
X141117620Y-100168385D01*
X141117619Y-100168384D01*
X141117619Y-100168380D01*
X141062929Y-100036347D01*
X141062928Y-100036346D01*
X141062925Y-100036340D01*
X140983532Y-99917521D01*
X140983529Y-99917517D01*
X140882482Y-99816470D01*
X140882478Y-99816467D01*
X140763659Y-99737074D01*
X140763650Y-99737069D01*
X140631620Y-99682381D01*
X140631614Y-99682379D01*
X140491457Y-99654500D01*
X140491455Y-99654500D01*
X140348545Y-99654500D01*
X140348543Y-99654500D01*
X140208385Y-99682379D01*
X140208379Y-99682381D01*
X140076349Y-99737069D01*
X140076340Y-99737074D01*
X139957521Y-99816467D01*
X139957517Y-99816470D01*
X139856470Y-99917517D01*
X139856467Y-99917521D01*
X139777074Y-100036340D01*
X139777069Y-100036349D01*
X139722381Y-100168379D01*
X139722379Y-100168385D01*
X139694500Y-100308542D01*
X139694500Y-100308545D01*
X139694500Y-100451455D01*
X139694500Y-100451457D01*
X139694499Y-100451457D01*
X139255500Y-100451457D01*
X139255500Y-100408542D01*
X139239209Y-100326645D01*
X139239209Y-100326644D01*
X139227620Y-100268387D01*
X139227620Y-100268385D01*
X139227619Y-100268380D01*
X139172929Y-100136347D01*
X139172928Y-100136346D01*
X139172925Y-100136340D01*
X139093532Y-100017521D01*
X139093529Y-100017517D01*
X138992482Y-99916470D01*
X138992478Y-99916467D01*
X138873659Y-99837074D01*
X138873650Y-99837069D01*
X138741620Y-99782381D01*
X138741614Y-99782379D01*
X138601457Y-99754500D01*
X138601455Y-99754500D01*
X138458545Y-99754500D01*
X138458543Y-99754500D01*
X138318385Y-99782379D01*
X138318379Y-99782381D01*
X138186349Y-99837069D01*
X138186340Y-99837074D01*
X138067521Y-99916467D01*
X138067517Y-99916470D01*
X137966470Y-100017517D01*
X137966467Y-100017521D01*
X137887074Y-100136340D01*
X137887069Y-100136349D01*
X137832381Y-100268379D01*
X137832379Y-100268385D01*
X137804500Y-100408542D01*
X137804500Y-100408545D01*
X137804500Y-100551455D01*
X137804500Y-100551457D01*
X137804499Y-100551457D01*
X128359252Y-100551457D01*
X128276098Y-100517014D01*
X128276096Y-100517013D01*
X128266624Y-100513089D01*
X128266614Y-100513086D01*
X128126457Y-100485207D01*
X128126455Y-100485207D01*
X127983545Y-100485207D01*
X127983543Y-100485207D01*
X127843385Y-100513086D01*
X127843379Y-100513088D01*
X127711349Y-100567776D01*
X127711340Y-100567781D01*
X127592521Y-100647174D01*
X127592517Y-100647177D01*
X127491470Y-100748224D01*
X127491467Y-100748228D01*
X127412074Y-100867047D01*
X127412069Y-100867056D01*
X127357381Y-100999086D01*
X127357379Y-100999094D01*
X127342342Y-101074691D01*
X127309957Y-101136602D01*
X127249242Y-101171176D01*
X127220725Y-101174500D01*
X127118543Y-101174500D01*
X126978385Y-101202379D01*
X126978379Y-101202381D01*
X126846349Y-101257069D01*
X126846340Y-101257074D01*
X126727521Y-101336467D01*
X126727517Y-101336470D01*
X126626470Y-101437517D01*
X126626467Y-101437521D01*
X126547074Y-101556340D01*
X126547069Y-101556349D01*
X126492381Y-101688379D01*
X126492379Y-101688385D01*
X126464500Y-101828542D01*
X126464500Y-101828545D01*
X126464500Y-101971455D01*
X126464500Y-101971457D01*
X126464499Y-101971457D01*
X96500500Y-101971457D01*
X96500500Y-100621153D01*
X123779500Y-100621153D01*
X123779500Y-100778846D01*
X123810261Y-100933489D01*
X123810264Y-100933501D01*
X123870602Y-101079172D01*
X123870609Y-101079185D01*
X123958210Y-101210288D01*
X123958213Y-101210292D01*
X124069707Y-101321786D01*
X124069711Y-101321789D01*
X124200814Y-101409390D01*
X124200827Y-101409397D01*
X124346498Y-101469735D01*
X124346503Y-101469737D01*
X124501153Y-101500499D01*
X124501156Y-101500500D01*
X124501158Y-101500500D01*
X124658844Y-101500500D01*
X124658845Y-101500499D01*
X124813497Y-101469737D01*
X124959179Y-101409394D01*
X125090289Y-101321789D01*
X125201789Y-101210289D01*
X125289394Y-101079179D01*
X125349737Y-100933497D01*
X125380500Y-100778842D01*
X125380500Y-100621158D01*
X125380500Y-100621155D01*
X125380499Y-100621153D01*
X125374623Y-100591614D01*
X125349737Y-100466503D01*
X125325729Y-100408542D01*
X125289397Y-100320827D01*
X125289390Y-100320814D01*
X125201789Y-100189711D01*
X125201786Y-100189707D01*
X125090292Y-100078213D01*
X125090288Y-100078210D01*
X124959185Y-99990609D01*
X124959172Y-99990602D01*
X124813501Y-99930264D01*
X124813489Y-99930261D01*
X124658845Y-99899500D01*
X124658842Y-99899500D01*
X124501158Y-99899500D01*
X124501155Y-99899500D01*
X124346510Y-99930261D01*
X124346498Y-99930264D01*
X124200827Y-99990602D01*
X124200814Y-99990609D01*
X124069711Y-100078210D01*
X124069707Y-100078213D01*
X123958213Y-100189707D01*
X123958210Y-100189711D01*
X123870609Y-100320814D01*
X123870602Y-100320827D01*
X123810264Y-100466498D01*
X123810261Y-100466510D01*
X123779500Y-100621153D01*
X96500500Y-100621153D01*
X96500500Y-96861457D01*
X102244499Y-96861457D01*
X102272379Y-97001614D01*
X102272381Y-97001620D01*
X102327069Y-97133650D01*
X102327074Y-97133659D01*
X102406467Y-97252478D01*
X102406470Y-97252482D01*
X102507517Y-97353529D01*
X102507521Y-97353532D01*
X102626340Y-97432925D01*
X102626346Y-97432928D01*
X102626347Y-97432929D01*
X102758380Y-97487619D01*
X102758384Y-97487619D01*
X102758385Y-97487620D01*
X102898542Y-97515500D01*
X102898545Y-97515500D01*
X103041457Y-97515500D01*
X103135751Y-97496742D01*
X103181620Y-97487619D01*
X103313653Y-97432929D01*
X103432479Y-97353532D01*
X103533532Y-97252479D01*
X103612929Y-97133653D01*
X103667619Y-97001620D01*
X103690405Y-96887069D01*
X103695500Y-96861457D01*
X103695500Y-96821457D01*
X104184499Y-96821457D01*
X104212379Y-96961614D01*
X104212381Y-96961620D01*
X104267069Y-97093650D01*
X104267074Y-97093659D01*
X104346467Y-97212478D01*
X104346470Y-97212482D01*
X104447517Y-97313529D01*
X104447521Y-97313532D01*
X104566340Y-97392925D01*
X104566346Y-97392928D01*
X104566347Y-97392929D01*
X104698380Y-97447619D01*
X104698384Y-97447619D01*
X104698385Y-97447620D01*
X104838542Y-97475500D01*
X104838545Y-97475500D01*
X104981457Y-97475500D01*
X105075751Y-97456742D01*
X105121620Y-97447619D01*
X105253653Y-97392929D01*
X105372479Y-97313532D01*
X105473532Y-97212479D01*
X105552929Y-97093653D01*
X105607619Y-96961620D01*
X105621543Y-96891620D01*
X105627543Y-96861457D01*
X106364499Y-96861457D01*
X106392379Y-97001614D01*
X106392381Y-97001620D01*
X106447069Y-97133650D01*
X106447074Y-97133659D01*
X106526467Y-97252478D01*
X106526470Y-97252482D01*
X106627517Y-97353529D01*
X106627521Y-97353532D01*
X106746340Y-97432925D01*
X106746346Y-97432928D01*
X106746347Y-97432929D01*
X106878380Y-97487619D01*
X106878384Y-97487619D01*
X106878385Y-97487620D01*
X107018542Y-97515500D01*
X107018545Y-97515500D01*
X107161457Y-97515500D01*
X107255751Y-97496742D01*
X107301620Y-97487619D01*
X107433653Y-97432929D01*
X107552479Y-97353532D01*
X107653532Y-97252479D01*
X107732929Y-97133653D01*
X107787619Y-97001620D01*
X107810405Y-96887069D01*
X107815500Y-96861457D01*
X107815500Y-96718542D01*
X107787620Y-96578385D01*
X107787619Y-96578384D01*
X107787619Y-96578380D01*
X107732929Y-96446347D01*
X107732928Y-96446346D01*
X107732925Y-96446340D01*
X107653532Y-96327521D01*
X107653529Y-96327517D01*
X107552482Y-96226470D01*
X107552478Y-96226467D01*
X107433659Y-96147074D01*
X107433650Y-96147069D01*
X107301620Y-96092381D01*
X107301614Y-96092379D01*
X107161457Y-96064500D01*
X107161455Y-96064500D01*
X107018545Y-96064500D01*
X107018543Y-96064500D01*
X106878385Y-96092379D01*
X106878379Y-96092381D01*
X106746349Y-96147069D01*
X106746340Y-96147074D01*
X106627521Y-96226467D01*
X106627517Y-96226470D01*
X106526470Y-96327517D01*
X106526467Y-96327521D01*
X106447074Y-96446340D01*
X106447069Y-96446349D01*
X106392381Y-96578379D01*
X106392379Y-96578385D01*
X106364500Y-96718542D01*
X106364500Y-96718543D01*
X106364500Y-96718545D01*
X106364500Y-96861455D01*
X106364500Y-96861457D01*
X106364499Y-96861457D01*
X105627543Y-96861457D01*
X105635500Y-96821457D01*
X105635500Y-96678542D01*
X105607620Y-96538385D01*
X105607619Y-96538384D01*
X105607619Y-96538380D01*
X105565318Y-96436258D01*
X105552930Y-96406349D01*
X105552925Y-96406340D01*
X105473532Y-96287521D01*
X105473529Y-96287517D01*
X105372482Y-96186470D01*
X105372478Y-96186467D01*
X105253659Y-96107074D01*
X105253650Y-96107069D01*
X105121620Y-96052381D01*
X105121614Y-96052379D01*
X104981457Y-96024500D01*
X104981455Y-96024500D01*
X104838545Y-96024500D01*
X104838543Y-96024500D01*
X104698385Y-96052379D01*
X104698379Y-96052381D01*
X104566349Y-96107069D01*
X104566340Y-96107074D01*
X104447521Y-96186467D01*
X104447517Y-96186470D01*
X104346470Y-96287517D01*
X104346467Y-96287521D01*
X104267074Y-96406340D01*
X104267069Y-96406349D01*
X104212381Y-96538379D01*
X104212379Y-96538385D01*
X104184500Y-96678542D01*
X104184500Y-96678545D01*
X104184500Y-96821455D01*
X104184500Y-96821457D01*
X104184499Y-96821457D01*
X103695500Y-96821457D01*
X103695500Y-96718543D01*
X103691144Y-96696646D01*
X103691144Y-96696645D01*
X103667620Y-96578385D01*
X103667619Y-96578384D01*
X103667619Y-96578380D01*
X103612929Y-96446347D01*
X103612928Y-96446346D01*
X103612925Y-96446340D01*
X103533532Y-96327521D01*
X103533529Y-96327517D01*
X103432482Y-96226470D01*
X103432478Y-96226467D01*
X103313659Y-96147074D01*
X103313650Y-96147069D01*
X103181620Y-96092381D01*
X103181614Y-96092379D01*
X103041457Y-96064500D01*
X103041455Y-96064500D01*
X102898545Y-96064500D01*
X102898543Y-96064500D01*
X102758385Y-96092379D01*
X102758379Y-96092381D01*
X102626349Y-96147069D01*
X102626340Y-96147074D01*
X102507521Y-96226467D01*
X102507517Y-96226470D01*
X102406470Y-96327517D01*
X102406467Y-96327521D01*
X102327074Y-96446340D01*
X102327069Y-96446349D01*
X102272381Y-96578379D01*
X102272379Y-96578385D01*
X102244500Y-96718542D01*
X102244500Y-96718543D01*
X102244500Y-96718545D01*
X102244500Y-96861455D01*
X102244500Y-96861457D01*
X102244499Y-96861457D01*
X96500500Y-96861457D01*
X96500500Y-95771457D01*
X109994499Y-95771457D01*
X110022379Y-95911614D01*
X110022381Y-95911620D01*
X110077069Y-96043650D01*
X110077074Y-96043659D01*
X110156467Y-96162478D01*
X110156470Y-96162482D01*
X110257517Y-96263529D01*
X110257521Y-96263532D01*
X110376340Y-96342925D01*
X110376346Y-96342928D01*
X110376347Y-96342929D01*
X110508380Y-96397619D01*
X110508384Y-96397619D01*
X110508385Y-96397620D01*
X110648542Y-96425500D01*
X110648545Y-96425500D01*
X110791457Y-96425500D01*
X110887777Y-96406340D01*
X110931620Y-96397619D01*
X111063653Y-96342929D01*
X111182479Y-96263532D01*
X111244554Y-96201457D01*
X127034499Y-96201457D01*
X127062379Y-96341614D01*
X127062381Y-96341620D01*
X127117069Y-96473650D01*
X127117074Y-96473659D01*
X127196467Y-96592478D01*
X127196470Y-96592482D01*
X127297518Y-96693530D01*
X127297521Y-96693532D01*
X127411035Y-96769380D01*
X127455840Y-96822990D01*
X127463761Y-96848289D01*
X127472379Y-96891614D01*
X127472380Y-96891618D01*
X127527069Y-97023650D01*
X127527074Y-97023659D01*
X127606467Y-97142478D01*
X127606470Y-97142482D01*
X127707517Y-97243529D01*
X127707521Y-97243532D01*
X127826340Y-97322925D01*
X127826346Y-97322928D01*
X127826347Y-97322929D01*
X127958380Y-97377619D01*
X127958384Y-97377619D01*
X127958385Y-97377620D01*
X128098542Y-97405500D01*
X128098545Y-97405500D01*
X128241457Y-97405500D01*
X128335751Y-97386742D01*
X128381620Y-97377619D01*
X128513653Y-97322929D01*
X128632479Y-97243532D01*
X128726168Y-97149842D01*
X128787489Y-97116359D01*
X128857181Y-97121343D01*
X128913115Y-97163214D01*
X128928409Y-97190072D01*
X128970069Y-97290650D01*
X128970074Y-97290659D01*
X129049467Y-97409478D01*
X129049470Y-97409482D01*
X129150517Y-97510529D01*
X129150521Y-97510532D01*
X129269340Y-97589925D01*
X129269346Y-97589928D01*
X129269347Y-97589929D01*
X129401380Y-97644619D01*
X129489840Y-97662215D01*
X129551751Y-97694599D01*
X129580210Y-97736379D01*
X129637069Y-97873650D01*
X129637074Y-97873659D01*
X129716467Y-97992478D01*
X129716470Y-97992482D01*
X129817517Y-98093529D01*
X129817521Y-98093532D01*
X129936340Y-98172925D01*
X129936346Y-98172928D01*
X129936347Y-98172929D01*
X130068380Y-98227619D01*
X130068384Y-98227619D01*
X130068385Y-98227620D01*
X130208542Y-98255500D01*
X130208545Y-98255500D01*
X130351457Y-98255500D01*
X130445751Y-98236742D01*
X130491620Y-98227619D01*
X130623653Y-98172929D01*
X130742479Y-98093532D01*
X130843532Y-97992479D01*
X130922929Y-97873653D01*
X130977619Y-97741620D01*
X131005500Y-97601455D01*
X131005500Y-97458545D01*
X131005500Y-97458542D01*
X130977620Y-97318385D01*
X130977619Y-97318384D01*
X130977619Y-97318380D01*
X130935318Y-97216258D01*
X130922930Y-97186349D01*
X130922925Y-97186340D01*
X130843532Y-97067521D01*
X130843529Y-97067517D01*
X130742482Y-96966470D01*
X130742478Y-96966467D01*
X130623659Y-96887074D01*
X130623650Y-96887069D01*
X130491620Y-96832381D01*
X130491614Y-96832379D01*
X130403158Y-96814784D01*
X130341247Y-96782399D01*
X130312789Y-96740619D01*
X130255932Y-96603353D01*
X130255925Y-96603340D01*
X130176532Y-96484521D01*
X130176529Y-96484517D01*
X130075482Y-96383470D01*
X130075478Y-96383467D01*
X129956659Y-96304074D01*
X129956650Y-96304069D01*
X129824620Y-96249381D01*
X129824614Y-96249379D01*
X129684457Y-96221500D01*
X129684455Y-96221500D01*
X129541545Y-96221500D01*
X129541543Y-96221500D01*
X129401385Y-96249379D01*
X129401379Y-96249381D01*
X129269349Y-96304069D01*
X129269340Y-96304074D01*
X129150521Y-96383467D01*
X129056832Y-96477156D01*
X128995508Y-96510640D01*
X128925817Y-96505656D01*
X128869884Y-96463784D01*
X128854590Y-96436926D01*
X128812932Y-96336353D01*
X128812925Y-96336340D01*
X128733532Y-96217521D01*
X128733529Y-96217517D01*
X128632482Y-96116470D01*
X128632474Y-96116464D01*
X128518965Y-96040620D01*
X128474159Y-95987008D01*
X128466238Y-95961709D01*
X128457620Y-95918387D01*
X128457620Y-95918385D01*
X128457619Y-95918380D01*
X128402929Y-95786347D01*
X128402928Y-95786346D01*
X128402925Y-95786340D01*
X128323532Y-95667521D01*
X128323529Y-95667517D01*
X128222482Y-95566470D01*
X128222478Y-95566467D01*
X128103659Y-95487074D01*
X128103650Y-95487069D01*
X127971620Y-95432381D01*
X127971614Y-95432379D01*
X127831457Y-95404500D01*
X127831455Y-95404500D01*
X127688545Y-95404500D01*
X127688543Y-95404500D01*
X127548385Y-95432379D01*
X127548379Y-95432381D01*
X127416349Y-95487069D01*
X127416340Y-95487074D01*
X127297521Y-95566467D01*
X127297517Y-95566470D01*
X127196470Y-95667517D01*
X127196467Y-95667521D01*
X127117074Y-95786340D01*
X127117069Y-95786349D01*
X127062381Y-95918379D01*
X127062379Y-95918385D01*
X127034500Y-96058542D01*
X127034500Y-96058545D01*
X127034500Y-96201455D01*
X127034500Y-96201457D01*
X127034499Y-96201457D01*
X111244554Y-96201457D01*
X111283532Y-96162479D01*
X111362929Y-96043653D01*
X111417619Y-95911620D01*
X111426742Y-95865751D01*
X111445500Y-95771457D01*
X111445500Y-95628542D01*
X111417620Y-95488385D01*
X111417619Y-95488384D01*
X111417619Y-95488380D01*
X111362929Y-95356347D01*
X111362928Y-95356346D01*
X111362925Y-95356340D01*
X111283532Y-95237521D01*
X111283529Y-95237517D01*
X111182482Y-95136470D01*
X111182478Y-95136467D01*
X111063659Y-95057074D01*
X111063650Y-95057069D01*
X110931620Y-95002381D01*
X110931614Y-95002379D01*
X110791457Y-94974500D01*
X110791455Y-94974500D01*
X110648545Y-94974500D01*
X110648543Y-94974500D01*
X110508385Y-95002379D01*
X110508379Y-95002381D01*
X110376349Y-95057069D01*
X110376340Y-95057074D01*
X110257521Y-95136467D01*
X110257517Y-95136470D01*
X110156470Y-95237517D01*
X110156467Y-95237521D01*
X110077074Y-95356340D01*
X110077069Y-95356349D01*
X110022381Y-95488379D01*
X110022379Y-95488385D01*
X109994500Y-95628542D01*
X109994500Y-95628545D01*
X109994500Y-95771455D01*
X109994500Y-95771457D01*
X109994499Y-95771457D01*
X96500500Y-95771457D01*
X96500500Y-94746228D01*
X134749500Y-94746228D01*
X134749500Y-94913771D01*
X134782182Y-95078074D01*
X134782184Y-95078082D01*
X134846295Y-95232860D01*
X134939373Y-95372162D01*
X135057837Y-95490626D01*
X135150494Y-95552537D01*
X135197137Y-95583703D01*
X135351918Y-95647816D01*
X135450983Y-95667521D01*
X135516228Y-95680499D01*
X135516232Y-95680500D01*
X135516233Y-95680500D01*
X135683768Y-95680500D01*
X135683769Y-95680499D01*
X135848082Y-95647816D01*
X136002863Y-95583703D01*
X136142162Y-95490626D01*
X136260626Y-95372162D01*
X136353703Y-95232863D01*
X136417816Y-95078082D01*
X136420174Y-95066228D01*
X143819500Y-95066228D01*
X143819500Y-95233771D01*
X143852182Y-95398074D01*
X143852184Y-95398082D01*
X143916295Y-95552860D01*
X144009373Y-95692162D01*
X144127837Y-95810626D01*
X144220494Y-95872537D01*
X144267137Y-95903703D01*
X144267138Y-95903703D01*
X144267139Y-95903704D01*
X144286250Y-95911620D01*
X144421918Y-95967816D01*
X144518404Y-95987008D01*
X144586228Y-96000499D01*
X144586232Y-96000500D01*
X144586233Y-96000500D01*
X144753768Y-96000500D01*
X144753769Y-96000499D01*
X144918082Y-95967816D01*
X145072863Y-95903703D01*
X145212162Y-95810626D01*
X145330626Y-95692162D01*
X145423703Y-95552863D01*
X145487816Y-95398082D01*
X145520500Y-95233767D01*
X145520500Y-95066233D01*
X145487816Y-94901918D01*
X145423703Y-94747137D01*
X145392537Y-94700494D01*
X145330626Y-94607837D01*
X145212162Y-94489373D01*
X145072860Y-94396295D01*
X144918082Y-94332184D01*
X144918074Y-94332182D01*
X144753771Y-94299500D01*
X144753767Y-94299500D01*
X144586233Y-94299500D01*
X144586228Y-94299500D01*
X144421925Y-94332182D01*
X144421917Y-94332184D01*
X144267139Y-94396295D01*
X144127837Y-94489373D01*
X144009373Y-94607837D01*
X143916295Y-94747139D01*
X143852184Y-94901917D01*
X143852182Y-94901925D01*
X143819500Y-95066228D01*
X136420174Y-95066228D01*
X136450500Y-94913767D01*
X136450500Y-94746233D01*
X136417816Y-94581918D01*
X136353703Y-94427137D01*
X136317480Y-94372925D01*
X136260626Y-94287837D01*
X136142162Y-94169373D01*
X136002860Y-94076295D01*
X135848082Y-94012184D01*
X135848074Y-94012182D01*
X135683771Y-93979500D01*
X135683767Y-93979500D01*
X135516233Y-93979500D01*
X135516228Y-93979500D01*
X135351925Y-94012182D01*
X135351917Y-94012184D01*
X135197139Y-94076295D01*
X135057837Y-94169373D01*
X134939373Y-94287837D01*
X134846295Y-94427139D01*
X134782184Y-94581917D01*
X134782182Y-94581925D01*
X134749500Y-94746228D01*
X96500500Y-94746228D01*
X96500500Y-93801457D01*
X101134499Y-93801457D01*
X101162379Y-93941614D01*
X101162381Y-93941620D01*
X101217069Y-94073650D01*
X101217074Y-94073659D01*
X101296467Y-94192478D01*
X101296470Y-94192482D01*
X101397517Y-94293529D01*
X101397521Y-94293532D01*
X101516340Y-94372925D01*
X101516346Y-94372928D01*
X101516347Y-94372929D01*
X101648380Y-94427619D01*
X101648384Y-94427619D01*
X101648385Y-94427620D01*
X101788542Y-94455500D01*
X101788545Y-94455500D01*
X101931457Y-94455500D01*
X102025751Y-94436742D01*
X102071620Y-94427619D01*
X102203653Y-94372929D01*
X102322479Y-94293532D01*
X102423532Y-94192479D01*
X102502929Y-94073653D01*
X102557619Y-93941620D01*
X102585500Y-93801455D01*
X102585500Y-93658545D01*
X102585500Y-93658542D01*
X102557620Y-93518385D01*
X102557619Y-93518384D01*
X102557619Y-93518380D01*
X102502929Y-93386347D01*
X102502928Y-93386346D01*
X102502925Y-93386340D01*
X102423532Y-93267521D01*
X102423529Y-93267517D01*
X102322482Y-93166470D01*
X102322478Y-93166467D01*
X102203659Y-93087074D01*
X102203650Y-93087069D01*
X102071620Y-93032381D01*
X102071614Y-93032379D01*
X101931457Y-93004500D01*
X101931455Y-93004500D01*
X101788545Y-93004500D01*
X101788543Y-93004500D01*
X101648385Y-93032379D01*
X101648379Y-93032381D01*
X101516349Y-93087069D01*
X101516340Y-93087074D01*
X101397521Y-93166467D01*
X101397517Y-93166470D01*
X101296470Y-93267517D01*
X101296467Y-93267521D01*
X101217074Y-93386340D01*
X101217069Y-93386349D01*
X101162381Y-93518379D01*
X101162379Y-93518385D01*
X101134500Y-93658542D01*
X101134500Y-93658545D01*
X101134500Y-93801455D01*
X101134500Y-93801457D01*
X101134499Y-93801457D01*
X96500500Y-93801457D01*
X96500500Y-92305815D01*
X136244500Y-92305815D01*
X136244500Y-92444181D01*
X136280312Y-92577832D01*
X136280312Y-92577833D01*
X136280313Y-92577836D01*
X136349492Y-92697659D01*
X136349494Y-92697662D01*
X136349495Y-92697663D01*
X136447335Y-92795503D01*
X136567164Y-92864686D01*
X136700817Y-92900498D01*
X136700819Y-92900498D01*
X136839181Y-92900498D01*
X136839183Y-92900498D01*
X136972836Y-92864686D01*
X137092665Y-92795503D01*
X137190505Y-92697663D01*
X137259688Y-92577834D01*
X137295500Y-92444181D01*
X137295500Y-92305815D01*
X137295500Y-92305814D01*
X142024503Y-92305814D01*
X142024503Y-92444180D01*
X142024504Y-92444181D01*
X142060315Y-92577832D01*
X142060316Y-92577835D01*
X142129495Y-92697658D01*
X142129496Y-92697659D01*
X142129498Y-92697662D01*
X142227338Y-92795502D01*
X142347167Y-92864685D01*
X142480820Y-92900497D01*
X142480822Y-92900497D01*
X142619184Y-92900497D01*
X142619186Y-92900497D01*
X142752839Y-92864685D01*
X142872668Y-92795502D01*
X142970508Y-92697662D01*
X143039691Y-92577833D01*
X143075503Y-92444180D01*
X143075503Y-92305814D01*
X143039691Y-92172161D01*
X143005099Y-92112246D01*
X142970510Y-92052335D01*
X142970509Y-92052333D01*
X142970508Y-92052332D01*
X142872668Y-91954492D01*
X142872665Y-91954490D01*
X142872664Y-91954489D01*
X142752841Y-91885310D01*
X142752840Y-91885309D01*
X142752839Y-91885309D01*
X142619186Y-91849497D01*
X142480820Y-91849497D01*
X142347167Y-91885309D01*
X142347164Y-91885310D01*
X142227341Y-91954489D01*
X142227336Y-91954493D01*
X142129499Y-92052330D01*
X142129495Y-92052335D01*
X142060316Y-92172158D01*
X142060316Y-92172159D01*
X142060315Y-92172161D01*
X142024503Y-92305814D01*
X137295500Y-92305814D01*
X137259688Y-92172162D01*
X137190505Y-92052333D01*
X137092665Y-91954493D01*
X137092664Y-91954492D01*
X137092661Y-91954490D01*
X136972838Y-91885311D01*
X136972837Y-91885310D01*
X136972836Y-91885310D01*
X136839183Y-91849498D01*
X136700817Y-91849498D01*
X136567164Y-91885310D01*
X136567161Y-91885311D01*
X136447338Y-91954490D01*
X136447333Y-91954494D01*
X136349496Y-92052331D01*
X136349492Y-92052336D01*
X136280313Y-92172159D01*
X136280312Y-92172162D01*
X136244500Y-92305815D01*
X96500500Y-92305815D01*
X96500500Y-90003051D01*
X96500649Y-89996967D01*
X96505528Y-89897648D01*
X98699500Y-89897648D01*
X98699500Y-90102351D01*
X98731522Y-90304534D01*
X98794781Y-90499223D01*
X98887715Y-90681613D01*
X99008028Y-90847213D01*
X99152786Y-90991971D01*
X99300639Y-91099390D01*
X99318390Y-91112287D01*
X99411512Y-91159735D01*
X99500776Y-91205218D01*
X99500778Y-91205218D01*
X99500781Y-91205220D01*
X99605137Y-91239127D01*
X99695465Y-91268477D01*
X99796557Y-91284488D01*
X99897648Y-91300500D01*
X99897649Y-91300500D01*
X100102351Y-91300500D01*
X100102352Y-91300500D01*
X100304534Y-91268477D01*
X100499219Y-91205220D01*
X100681610Y-91112287D01*
X100819939Y-91011786D01*
X100847213Y-90991971D01*
X100847215Y-90991968D01*
X100847219Y-90991966D01*
X100991966Y-90847219D01*
X100991968Y-90847215D01*
X100991971Y-90847213D01*
X101048670Y-90769172D01*
X101112287Y-90681610D01*
X101205220Y-90499219D01*
X101266326Y-90311153D01*
X115709500Y-90311153D01*
X115709500Y-90468846D01*
X115740261Y-90623489D01*
X115740264Y-90623501D01*
X115800602Y-90769172D01*
X115800609Y-90769185D01*
X115888210Y-90900288D01*
X115888213Y-90900292D01*
X115999707Y-91011786D01*
X115999711Y-91011789D01*
X116130814Y-91099390D01*
X116130827Y-91099397D01*
X116276498Y-91159735D01*
X116276503Y-91159737D01*
X116431153Y-91190499D01*
X116431156Y-91190500D01*
X116431158Y-91190500D01*
X116588844Y-91190500D01*
X116588845Y-91190499D01*
X116743497Y-91159737D01*
X116889179Y-91099394D01*
X117020289Y-91011789D01*
X117131789Y-90900289D01*
X117219394Y-90769179D01*
X117279737Y-90623497D01*
X117310500Y-90468842D01*
X117310500Y-90311158D01*
X117310500Y-90311155D01*
X117310499Y-90311153D01*
X117279738Y-90156510D01*
X117279737Y-90156503D01*
X117257307Y-90102351D01*
X117219397Y-90010827D01*
X117219390Y-90010814D01*
X117186551Y-89961667D01*
X117143774Y-89897648D01*
X148699500Y-89897648D01*
X148699500Y-90102351D01*
X148731522Y-90304534D01*
X148794781Y-90499223D01*
X148887715Y-90681613D01*
X149008028Y-90847213D01*
X149152786Y-90991971D01*
X149300639Y-91099390D01*
X149318390Y-91112287D01*
X149411512Y-91159735D01*
X149500776Y-91205218D01*
X149500778Y-91205218D01*
X149500781Y-91205220D01*
X149605137Y-91239127D01*
X149695465Y-91268477D01*
X149796557Y-91284488D01*
X149897648Y-91300500D01*
X149897649Y-91300500D01*
X150102351Y-91300500D01*
X150102352Y-91300500D01*
X150304534Y-91268477D01*
X150499219Y-91205220D01*
X150681610Y-91112287D01*
X150819939Y-91011786D01*
X150847213Y-90991971D01*
X150847215Y-90991968D01*
X150847219Y-90991966D01*
X150991966Y-90847219D01*
X150991968Y-90847215D01*
X150991971Y-90847213D01*
X151048670Y-90769172D01*
X151112287Y-90681610D01*
X151205220Y-90499219D01*
X151268477Y-90304534D01*
X151300500Y-90102352D01*
X151300500Y-89897648D01*
X151268477Y-89695466D01*
X151263647Y-89680602D01*
X151239127Y-89605137D01*
X151205220Y-89500781D01*
X151205218Y-89500778D01*
X151205218Y-89500776D01*
X151159987Y-89412007D01*
X151112287Y-89318390D01*
X151104556Y-89307749D01*
X150991971Y-89152786D01*
X150847213Y-89008028D01*
X150681613Y-88887715D01*
X150681612Y-88887714D01*
X150681610Y-88887713D01*
X150624653Y-88858691D01*
X150499223Y-88794781D01*
X150304534Y-88731522D01*
X150129995Y-88703878D01*
X150102352Y-88699500D01*
X149897648Y-88699500D01*
X149873329Y-88703351D01*
X149695465Y-88731522D01*
X149500776Y-88794781D01*
X149318386Y-88887715D01*
X149152786Y-89008028D01*
X149008028Y-89152786D01*
X148887715Y-89318386D01*
X148794781Y-89500776D01*
X148731522Y-89695465D01*
X148699500Y-89897648D01*
X117143774Y-89897648D01*
X117131789Y-89879711D01*
X117131786Y-89879707D01*
X117020292Y-89768213D01*
X117020288Y-89768210D01*
X116889185Y-89680609D01*
X116889172Y-89680602D01*
X116743501Y-89620264D01*
X116743489Y-89620261D01*
X116588845Y-89589500D01*
X116588842Y-89589500D01*
X116431158Y-89589500D01*
X116431155Y-89589500D01*
X116276510Y-89620261D01*
X116276498Y-89620264D01*
X116130827Y-89680602D01*
X116130814Y-89680609D01*
X115999711Y-89768210D01*
X115999707Y-89768213D01*
X115888213Y-89879707D01*
X115888210Y-89879711D01*
X115800609Y-90010814D01*
X115800602Y-90010827D01*
X115740264Y-90156498D01*
X115740261Y-90156510D01*
X115709500Y-90311153D01*
X101266326Y-90311153D01*
X101268477Y-90304534D01*
X101300500Y-90102352D01*
X101300500Y-89897648D01*
X101268477Y-89695466D01*
X101263647Y-89680602D01*
X101239127Y-89605137D01*
X101205220Y-89500781D01*
X101205218Y-89500778D01*
X101205218Y-89500776D01*
X101159987Y-89412007D01*
X101112287Y-89318390D01*
X101104556Y-89307749D01*
X100991971Y-89152786D01*
X100847213Y-89008028D01*
X100681613Y-88887715D01*
X100681612Y-88887714D01*
X100681610Y-88887713D01*
X100624653Y-88858691D01*
X100499223Y-88794781D01*
X100304534Y-88731522D01*
X100129995Y-88703878D01*
X100102352Y-88699500D01*
X99897648Y-88699500D01*
X99873329Y-88703351D01*
X99695465Y-88731522D01*
X99500776Y-88794781D01*
X99318386Y-88887715D01*
X99152786Y-89008028D01*
X99008028Y-89152786D01*
X98887715Y-89318386D01*
X98794781Y-89500776D01*
X98731522Y-89695465D01*
X98699500Y-89897648D01*
X96505528Y-89897648D01*
X96506066Y-89886692D01*
X96506066Y-89886691D01*
X96506410Y-89879707D01*
X96517052Y-89663066D01*
X96518245Y-89650962D01*
X96540523Y-89500776D01*
X96566849Y-89323296D01*
X96569218Y-89311385D01*
X96649710Y-88990043D01*
X96653240Y-88978411D01*
X96764835Y-88666525D01*
X96769476Y-88655318D01*
X96911124Y-88355828D01*
X96916840Y-88345136D01*
X97087145Y-88060998D01*
X97093888Y-88050905D01*
X97291232Y-87784818D01*
X97298935Y-87775433D01*
X97521405Y-87529975D01*
X97529975Y-87521405D01*
X97775433Y-87298935D01*
X97784818Y-87291232D01*
X98050905Y-87093888D01*
X98060998Y-87087145D01*
X98345136Y-86916840D01*
X98355828Y-86911124D01*
X98655318Y-86769476D01*
X98666525Y-86764835D01*
X98978412Y-86653239D01*
X98990043Y-86649710D01*
X99311385Y-86569218D01*
X99323296Y-86566849D01*
X99650962Y-86518244D01*
X99663068Y-86517052D01*
X99996967Y-86500648D01*
X100003051Y-86500500D01*
X100065892Y-86500500D01*
X149934108Y-86500500D01*
X149996949Y-86500500D01*
X150003032Y-86500648D01*
G37*
G04 #@! TD.AperFunction*
G04 #@! TD*
M02*
