G04 #@! TF.GenerationSoftware,KiCad,Pcbnew,9.0.1*
G04 #@! TF.CreationDate,2025-08-05T19:10:54+03:00*
G04 #@! TF.ProjectId,com_board,636f6d5f-626f-4617-9264-2e6b69636164,rev?*
G04 #@! TF.SameCoordinates,Original*
G04 #@! TF.FileFunction,Copper,L4,Bot*
G04 #@! TF.FilePolarity,Positive*
%FSLAX46Y46*%
G04 Gerber Fmt 4.6, Leading zero omitted, Abs format (unit mm)*
G04 Created by KiCad (PCBNEW 9.0.1) date 2025-08-05 19:10:54*
%MOMM*%
%LPD*%
G01*
G04 APERTURE LIST*
G04 #@! TA.AperFunction,ViaPad*
%ADD10C,0.600000*%
G04 #@! TD*
G04 #@! TA.AperFunction,ViaPad*
%ADD11C,0.450000*%
G04 #@! TD*
G04 #@! TA.AperFunction,ViaPad*
%ADD12C,0.500000*%
G04 #@! TD*
G04 #@! TA.AperFunction,ViaPad*
%ADD13C,0.700000*%
G04 #@! TD*
G04 #@! TA.AperFunction,Conductor*
%ADD14C,0.200000*%
G04 #@! TD*
G04 #@! TA.AperFunction,Conductor*
%ADD15C,0.500000*%
G04 #@! TD*
G04 #@! TA.AperFunction,Conductor*
%ADD16C,0.150000*%
G04 #@! TD*
G04 APERTURE END LIST*
D10*
G04 #@! TO.N,GND*
X111099999Y-118430000D03*
X135659999Y-114540000D03*
D11*
X133950000Y-101370000D03*
D10*
X112460000Y-111930000D03*
X117299999Y-88530000D03*
X109970000Y-116060001D03*
X112490000Y-100330000D03*
D12*
X149780000Y-95780000D03*
D11*
X126010000Y-115030000D03*
D10*
X111600000Y-116060000D03*
D11*
X126407778Y-120000000D03*
D12*
X152650000Y-95930000D03*
D11*
X125507500Y-110450000D03*
X127663333Y-120000000D03*
D10*
X106699999Y-88010001D03*
X108329999Y-88010000D03*
X113340000Y-117090000D03*
D11*
X129200000Y-113786667D03*
D10*
X148530001Y-116010000D03*
X105840000Y-88940000D03*
X108379999Y-91240000D03*
D11*
X125170000Y-119034000D03*
D10*
X112490000Y-96140000D03*
D11*
X131810000Y-117205625D03*
D10*
X117299999Y-87600001D03*
X121089999Y-117100000D03*
X113420000Y-96140000D03*
X123240000Y-101730000D03*
X135490000Y-107840000D03*
X106630000Y-91230000D03*
D12*
X131540000Y-88050000D03*
D10*
X98320000Y-117060000D03*
X105770001Y-92160000D03*
X145149999Y-121370001D03*
X112460000Y-112790000D03*
X137289999Y-114540000D03*
X97460000Y-116130001D03*
X125649999Y-111130000D03*
X144290000Y-122300000D03*
X119459999Y-117100001D03*
X116439999Y-87600000D03*
X111630000Y-92160000D03*
X113420000Y-97770000D03*
X105000000Y-91230001D03*
X110000000Y-92160000D03*
X111959999Y-119360000D03*
X100850000Y-116120000D03*
D12*
X131550000Y-92850000D03*
D10*
X100850002Y-117050000D03*
X120229999Y-117100000D03*
X113410000Y-102200000D03*
X134960000Y-112040000D03*
X112490000Y-97770000D03*
X146779999Y-122300000D03*
X108329999Y-88940000D03*
X106930000Y-112560000D03*
D11*
X129040000Y-109600000D03*
X126522500Y-110450000D03*
D10*
X112490000Y-106110000D03*
D11*
X125170000Y-116418000D03*
D10*
X130250000Y-110960000D03*
D11*
X130016667Y-115080000D03*
D12*
X147480000Y-95920000D03*
D10*
X144289999Y-121370000D03*
D11*
X129200000Y-111846667D03*
D10*
X108380001Y-92170000D03*
X120989999Y-97840000D03*
X110770000Y-91230000D03*
D11*
X129200000Y-114433333D03*
D10*
X101659999Y-116080000D03*
X113430000Y-92130000D03*
D11*
X131810000Y-116594911D03*
D10*
X103379999Y-91240000D03*
X112470000Y-92120000D03*
D11*
X130070000Y-101344732D03*
D10*
X112510000Y-117020000D03*
X112480000Y-92990000D03*
X98310000Y-94620000D03*
X112450000Y-114460000D03*
X113380000Y-108680000D03*
X98319998Y-116130000D03*
X99140001Y-116130000D03*
X113410000Y-98710000D03*
D11*
X127960000Y-109310000D03*
D10*
X112480000Y-98710000D03*
D11*
X127733333Y-112770000D03*
X131430000Y-120000000D03*
D10*
X104140000Y-91230000D03*
D11*
X125170000Y-117072000D03*
D10*
X118069999Y-87600000D03*
X99990000Y-117050000D03*
D12*
X147800000Y-94140000D03*
D11*
X120390000Y-103920000D03*
D10*
X124670000Y-108320000D03*
D12*
X145079771Y-110163066D03*
D10*
X134799999Y-113610000D03*
X112450000Y-109540000D03*
D12*
X145000000Y-109000000D03*
D10*
X108349999Y-116070000D03*
D11*
X127750000Y-114276667D03*
D10*
X110740001Y-116990000D03*
D11*
X124820000Y-112555000D03*
D10*
X113390000Y-111160000D03*
D11*
X126880000Y-115030000D03*
D10*
X136660000Y-97790000D03*
X107490001Y-116070001D03*
X113380000Y-109540000D03*
X112490000Y-106880000D03*
X113420000Y-101190000D03*
X104140001Y-92160000D03*
X121089999Y-118030000D03*
X109140001Y-92160000D03*
X151020000Y-115080000D03*
X134800000Y-114540000D03*
D12*
X145020000Y-111220000D03*
D11*
X130174444Y-120000000D03*
D10*
X109110001Y-116990000D03*
X137120000Y-102315000D03*
D12*
X152660000Y-110220000D03*
D10*
X112490000Y-91220000D03*
D11*
X131810000Y-117816339D03*
D12*
X118950000Y-107460000D03*
D10*
X111600000Y-116990000D03*
X111100000Y-119360000D03*
X97135000Y-94610000D03*
X127630000Y-97960000D03*
X136430000Y-114540000D03*
X132980000Y-114340000D03*
X106680000Y-116060000D03*
X99140002Y-117060000D03*
X111959999Y-118430000D03*
X135120000Y-110650000D03*
X126040000Y-97990000D03*
D11*
X127960000Y-109940000D03*
D10*
X109469999Y-118430000D03*
D11*
X128291111Y-120000000D03*
X129200000Y-111200000D03*
D10*
X151020000Y-116010000D03*
X148530000Y-115080000D03*
D11*
X127750000Y-113523333D03*
D10*
X106679999Y-116989999D03*
X113410000Y-94520000D03*
X139480000Y-95050000D03*
D11*
X129200000Y-115080000D03*
D10*
X112480000Y-102200000D03*
D11*
X131810000Y-119037767D03*
D10*
X131250000Y-118040000D03*
X107520001Y-91240001D03*
X112490000Y-107740000D03*
X113420000Y-106110000D03*
X103380001Y-92170000D03*
D11*
X131120000Y-115910000D03*
D10*
X112460000Y-111160000D03*
X110329999Y-118430001D03*
X106699999Y-88940000D03*
D11*
X130830000Y-115080000D03*
D10*
X112460000Y-115220000D03*
X125820000Y-118240000D03*
D11*
X129200000Y-112493333D03*
D10*
X112460000Y-116080000D03*
X113410000Y-99570000D03*
D11*
X125170000Y-119688000D03*
D10*
X119359999Y-96910001D03*
X135659999Y-113610001D03*
X112490000Y-96910000D03*
D11*
X125170000Y-118380000D03*
D10*
X99990002Y-116120001D03*
X146779999Y-121370000D03*
X139480000Y-113950000D03*
X144550000Y-117580000D03*
X112460000Y-110300000D03*
X135660000Y-103620000D03*
X113390000Y-110300000D03*
D11*
X130802222Y-120000000D03*
D10*
X125649999Y-112060004D03*
D12*
X152520000Y-98560000D03*
D10*
X145919999Y-121370000D03*
X109470000Y-119360000D03*
D11*
X131810000Y-118427053D03*
D10*
X150160001Y-116010000D03*
X119459999Y-118030000D03*
X116440000Y-88530000D03*
D12*
X152600000Y-100420000D03*
D10*
X113420000Y-107740000D03*
X101140000Y-94940000D03*
X118929999Y-88530000D03*
X149390000Y-115080001D03*
X113380000Y-114460000D03*
X109970000Y-116990000D03*
X137806235Y-104195992D03*
X118500000Y-97840000D03*
D11*
X127750000Y-115030000D03*
D10*
X111630000Y-91230000D03*
D11*
X129200000Y-113140000D03*
D12*
X149860000Y-94250000D03*
D10*
X113420000Y-91220000D03*
D12*
X131530000Y-90220000D03*
D11*
X125680000Y-115830000D03*
D10*
X120230000Y-118030000D03*
X118599999Y-117100000D03*
D11*
X119390000Y-104720000D03*
D10*
X105000000Y-92160000D03*
X145920000Y-122300000D03*
X131730000Y-109270000D03*
X107470000Y-88940000D03*
D11*
X126990000Y-112770000D03*
D10*
X149390000Y-116010000D03*
D11*
X129546667Y-120000000D03*
D10*
X112480000Y-94520000D03*
X145149999Y-122300000D03*
X120989999Y-96910000D03*
X119359999Y-97840000D03*
D11*
X124820000Y-111665000D03*
D10*
X113390000Y-112790000D03*
X118929999Y-87600000D03*
X120130000Y-97840000D03*
X110740000Y-116060000D03*
X112450000Y-108680000D03*
D11*
X131810000Y-119590000D03*
D10*
X102519999Y-92170000D03*
X101660000Y-117010000D03*
D11*
X126246666Y-112770000D03*
D10*
X105770000Y-91230000D03*
X110000000Y-91230001D03*
D11*
X118280000Y-104060000D03*
X124820000Y-110775000D03*
D10*
X118499999Y-96910000D03*
X110329999Y-119360000D03*
X136429999Y-113610000D03*
D12*
X152660000Y-111240000D03*
D10*
X97459998Y-117060000D03*
X111300000Y-99590000D03*
X144670000Y-115310000D03*
X113390000Y-115220000D03*
X113390000Y-116080000D03*
X108350001Y-117000000D03*
X107469999Y-88010000D03*
X107489999Y-117000000D03*
D12*
X152560000Y-103270000D03*
D10*
X105839999Y-88010000D03*
D11*
X133650000Y-105130000D03*
D10*
X137289999Y-113610000D03*
X118600000Y-118030000D03*
D11*
X128300000Y-108710000D03*
X128918889Y-120000000D03*
D10*
X109140000Y-91230000D03*
X150160000Y-115080000D03*
X113420000Y-96910000D03*
X142320000Y-97840000D03*
X110770001Y-92160000D03*
X112490000Y-101190000D03*
D12*
X152600000Y-107780000D03*
D10*
X118070000Y-88530000D03*
D11*
X129060000Y-110440000D03*
D12*
X152580000Y-101970000D03*
D10*
X113390000Y-111930000D03*
D11*
X125170000Y-117726000D03*
D12*
X131559587Y-89133958D03*
D10*
X113420000Y-106880000D03*
X102520001Y-91240001D03*
X112480000Y-99570000D03*
X120129999Y-96910000D03*
D11*
X127035556Y-120000000D03*
D10*
X106630000Y-92160000D03*
D11*
X125780000Y-120000000D03*
D10*
X113420000Y-93000000D03*
X113420000Y-100330000D03*
D12*
X152120000Y-94330000D03*
D11*
X127537500Y-110450000D03*
D12*
X152623707Y-109041670D03*
D10*
X109110000Y-116060000D03*
X107519999Y-92170000D03*
D11*
X125503333Y-112770000D03*
G04 #@! TO.N,3.3V_VDD*
X133800000Y-107240000D03*
D10*
X138740000Y-121900000D03*
X125970000Y-121830000D03*
X124840000Y-122930000D03*
D11*
X122210000Y-108520000D03*
D10*
X142380000Y-120690000D03*
X142380000Y-123000000D03*
X134630000Y-121900000D03*
X133500000Y-122980000D03*
X132390000Y-121880000D03*
X132380000Y-122980000D03*
X124850000Y-121830000D03*
X131260000Y-122980000D03*
X130320000Y-122960000D03*
X129200000Y-122960000D03*
X131270000Y-121880000D03*
X126910000Y-121850000D03*
X123790000Y-122920000D03*
X128030000Y-121850000D03*
D11*
X133900000Y-103970000D03*
D10*
X136690000Y-121900000D03*
X128020000Y-122950000D03*
D11*
X124550000Y-109620000D03*
D10*
X137620000Y-121900000D03*
X126900000Y-122950000D03*
X136680000Y-123000000D03*
X135570000Y-121900000D03*
X130330000Y-121860000D03*
X134620000Y-123000000D03*
X139680000Y-121900000D03*
X139670000Y-123000000D03*
X137610000Y-123000000D03*
D11*
X127190000Y-101900000D03*
D10*
X125960000Y-122930000D03*
X135560000Y-123000000D03*
X129210000Y-121860000D03*
X142380000Y-121900000D03*
X141000000Y-121900000D03*
X140980000Y-123000000D03*
X133510000Y-121880000D03*
X116510000Y-90390000D03*
X123800000Y-121820000D03*
X138730000Y-123000000D03*
D13*
G04 #@! TO.N,VBUS*
X144670000Y-95150000D03*
X135600000Y-94830000D03*
D10*
X124580000Y-100700000D03*
D13*
X139690000Y-104140000D03*
X139240000Y-108330000D03*
D11*
G04 #@! TO.N,Net-(IC1-DEC4)*
X134292504Y-104920001D03*
X129610000Y-110030000D03*
G04 #@! TO.N,/UBS_D-*
X124780000Y-104210000D03*
X140420000Y-100380000D03*
G04 #@! TO.N,/SPI_CLK*
X102970000Y-96790000D03*
X120020000Y-105380000D03*
G04 #@! TO.N,/SPI_MOSI*
X120097300Y-104532418D03*
X107090000Y-96790000D03*
G04 #@! TO.N,/BU-01_RSTn*
X101750000Y-113560000D03*
X128055000Y-101210707D03*
G04 #@! TO.N,/SPI_CS*
X129613000Y-96947000D03*
X110720000Y-95700000D03*
G04 #@! TO.N,/BU-01_IRQ*
X130280000Y-97530000D03*
X101860000Y-93730000D03*
G04 #@! TO.N,/UART_TX*
X130660000Y-101720000D03*
X140580000Y-102880000D03*
G04 #@! TO.N,/UBS_D+*
X138530000Y-100480000D03*
X125070000Y-104830000D03*
G04 #@! TO.N,/SPI_MISO*
X118270000Y-104860000D03*
X104910000Y-96750000D03*
G04 #@! TO.N,/SWDIO*
X120835172Y-109875001D03*
X128170000Y-96680000D03*
G04 #@! TO.N,/SWDCLK*
X127760000Y-96130000D03*
X120170000Y-110740000D03*
G04 #@! TD*
D14*
G04 #@! TO.N,3.3V_VDD*
X134270000Y-107240000D02*
X133800000Y-107240000D01*
X135580000Y-104689943D02*
X135580000Y-105930000D01*
X135580000Y-105930000D02*
X134270000Y-107240000D01*
X134860057Y-103970000D02*
X135580000Y-104689943D01*
X132030000Y-103970000D02*
X126380000Y-109620000D01*
X126380000Y-109620000D02*
X124550000Y-109620000D01*
X133900000Y-103970000D02*
X132030000Y-103970000D01*
X133900000Y-103970000D02*
X134860057Y-103970000D01*
D15*
G04 #@! TO.N,VBUS*
X135600000Y-94830000D02*
X134341858Y-94830000D01*
X125980000Y-99300000D02*
X124580000Y-100700000D01*
X134341858Y-94830000D02*
X129871858Y-99300000D01*
X129871858Y-99300000D02*
X125980000Y-99300000D01*
D16*
G04 #@! TO.N,Net-(IC1-DEC4)*
X132000000Y-106100000D02*
X133430000Y-106100000D01*
X130730000Y-109360000D02*
X130730000Y-107370000D01*
X130730000Y-107370000D02*
X132000000Y-106100000D01*
X134292504Y-105237496D02*
X134292504Y-104920001D01*
X133430000Y-106100000D02*
X134292504Y-105237496D01*
X130060000Y-110030000D02*
X130730000Y-109360000D01*
X129610000Y-110030000D02*
X130060000Y-110030000D01*
G04 #@! TO.N,/UBS_D-*
X135269061Y-99910000D02*
X130147156Y-99910000D01*
X139490000Y-100380000D02*
X139020000Y-99910000D01*
X124780356Y-104209644D02*
X124780000Y-104210000D01*
X135377803Y-99910000D02*
X135269061Y-99910000D01*
X139020000Y-99910000D02*
X135377803Y-99910000D01*
X140420000Y-100380000D02*
X139490000Y-100380000D01*
X130147156Y-99910000D02*
X127227156Y-102830000D01*
X125170356Y-104209644D02*
X124780356Y-104209644D01*
X127227156Y-102830000D02*
X126550000Y-102830000D01*
X126550000Y-102830000D02*
X125170356Y-104209644D01*
G04 #@! TO.N,/SPI_CLK*
X120020000Y-105380000D02*
X108420000Y-105380000D01*
X108420000Y-105380000D02*
X102970000Y-99930000D01*
X102970000Y-99930000D02*
X102970000Y-96790000D01*
G04 #@! TO.N,/SPI_MOSI*
X107090000Y-96790000D02*
X107110000Y-96770000D01*
X112434000Y-103054000D02*
X107090000Y-97710000D01*
X120097300Y-104532418D02*
X120082418Y-104532418D01*
X120082418Y-104532418D02*
X118604000Y-103054000D01*
X118604000Y-103054000D02*
X112434000Y-103054000D01*
X107090000Y-97710000D02*
X107090000Y-96790000D01*
G04 #@! TO.N,/BU-01_RSTn*
X121640000Y-112780000D02*
X120860000Y-113560000D01*
X120860000Y-113560000D02*
X101750000Y-113560000D01*
X128054293Y-101210000D02*
X125380000Y-101210000D01*
X125380000Y-101210000D02*
X121640000Y-104950000D01*
X121640000Y-104950000D02*
X121640000Y-112780000D01*
X128055000Y-101210707D02*
X128054293Y-101210000D01*
G04 #@! TO.N,/SPI_CS*
X111130000Y-95290000D02*
X110720000Y-95700000D01*
X127956000Y-95290000D02*
X111130000Y-95290000D01*
X129613000Y-96947000D02*
X127956000Y-95290000D01*
G04 #@! TO.N,/BU-01_IRQ*
X130910000Y-96900000D02*
X130910000Y-95980000D01*
X130910000Y-95980000D02*
X128660000Y-93730000D01*
X128660000Y-93730000D02*
X101860000Y-93730000D01*
X130280000Y-97530000D02*
X130910000Y-96900000D01*
G04 #@! TO.N,/UART_TX*
X140570000Y-102890000D02*
X140580000Y-102880000D01*
X130660000Y-101720000D02*
X131190000Y-101720000D01*
X131190000Y-101720000D02*
X132360000Y-102890000D01*
X132360000Y-102890000D02*
X140570000Y-102890000D01*
G04 #@! TO.N,/UBS_D+*
X136733588Y-100310000D02*
X136853588Y-100310000D01*
X125396987Y-104492487D02*
X126659474Y-103230000D01*
X135893588Y-100550000D02*
X135893588Y-100856107D01*
X137530000Y-100410000D02*
X138460000Y-100410000D01*
X130312844Y-100310000D02*
X134453588Y-100310000D01*
X137040000Y-100310000D02*
X137430000Y-100310000D01*
X135293588Y-100856083D02*
X135293588Y-100550000D01*
X135533588Y-100310000D02*
X135653588Y-100310000D01*
X126659474Y-103230000D02*
X127392844Y-103230000D01*
X127392844Y-103230000D02*
X130312844Y-100310000D01*
X136493588Y-100856107D02*
X136493588Y-100550000D01*
X125070000Y-104830000D02*
X125070000Y-104820000D01*
X125396987Y-104493013D02*
X125396987Y-104492487D01*
X134693588Y-100550000D02*
X134693588Y-100856083D01*
X136853588Y-100310000D02*
X137040000Y-100310000D01*
X134933588Y-101096083D02*
X135053588Y-101096083D01*
X136133588Y-101096107D02*
X136253588Y-101096107D01*
X137430000Y-100310000D02*
X137530000Y-100410000D01*
X125070000Y-104820000D02*
X125396987Y-104493013D01*
X138460000Y-100410000D02*
X138530000Y-100480000D01*
X136253588Y-101096107D02*
G75*
G03*
X136493607Y-100856107I12J240007D01*
G01*
X135893588Y-100856107D02*
G75*
G03*
X136133588Y-101096112I240012J7D01*
G01*
X136493588Y-100550000D02*
G75*
G02*
X136733588Y-100309988I240012J0D01*
G01*
X134453588Y-100310000D02*
G75*
G02*
X134693600Y-100550000I12J-240000D01*
G01*
X135053588Y-101096083D02*
G75*
G03*
X135293583Y-100856083I12J239983D01*
G01*
X135653588Y-100310000D02*
G75*
G02*
X135893600Y-100550000I12J-240000D01*
G01*
X134693588Y-100856083D02*
G75*
G03*
X134933588Y-101096112I240012J-17D01*
G01*
X135293588Y-100550000D02*
G75*
G02*
X135533588Y-100309988I240012J0D01*
G01*
G04 #@! TO.N,/SPI_MISO*
X104910000Y-96750000D02*
X104910000Y-98300000D01*
X110900000Y-104290000D02*
X117700000Y-104290000D01*
X104910000Y-98300000D02*
X110900000Y-104290000D01*
X117700000Y-104290000D02*
X118270000Y-104860000D01*
G04 #@! TO.N,/SWDIO*
X124560000Y-97040000D02*
X127810000Y-97040000D01*
X127810000Y-97040000D02*
X128170000Y-96680000D01*
X120835172Y-109875001D02*
X120835172Y-109770348D01*
X121275566Y-109329954D02*
X121275566Y-100324434D01*
X121275566Y-100324434D02*
X124560000Y-97040000D01*
X120835172Y-109770348D02*
X121275566Y-109329954D01*
G04 #@! TO.N,/SWDCLK*
X120924566Y-99905434D02*
X124680000Y-96150000D01*
X127760000Y-96180876D02*
X127760000Y-96130000D01*
X120170000Y-109500000D02*
X120924566Y-108745434D01*
X127729124Y-96150000D02*
X127760000Y-96180876D01*
X120170000Y-110740000D02*
X120170000Y-109500000D01*
X120924566Y-108745434D02*
X120924566Y-99905434D01*
X124680000Y-96150000D02*
X127729124Y-96150000D01*
G04 #@! TD*
G04 #@! TA.AperFunction,Conductor*
G04 #@! TO.N,3.3V_VDD*
G36*
X124317485Y-109435355D02*
G01*
X124317487Y-109435355D01*
X124384209Y-109444886D01*
X124384213Y-109444888D01*
X124561570Y-109470224D01*
X124590031Y-109477824D01*
X124611450Y-109486381D01*
X124659121Y-109520282D01*
X124664232Y-109526174D01*
X124665662Y-109528946D01*
X124666403Y-109529528D01*
X124667308Y-109532136D01*
X124691062Y-109578181D01*
X124693176Y-109586893D01*
X124693676Y-109643233D01*
X124690716Y-109656450D01*
X124667592Y-109705480D01*
X124658565Y-109717086D01*
X124616740Y-109751564D01*
X124591082Y-109764567D01*
X124565551Y-109774145D01*
X124191468Y-109869150D01*
X124191466Y-109869151D01*
X124191465Y-109869151D01*
X124169523Y-109874723D01*
X124164668Y-109413524D01*
X124317485Y-109435355D01*
G37*
G04 #@! TD.AperFunction*
G04 #@! TD*
G04 #@! TA.AperFunction,Conductor*
G04 #@! TO.N,3.3V_VDD*
G36*
X127433039Y-101505185D02*
G01*
X127478794Y-101557989D01*
X127490000Y-101609500D01*
X127490000Y-101940029D01*
X127493490Y-102009807D01*
X127477178Y-102077746D01*
X127426725Y-102126081D01*
X127369645Y-102140000D01*
X126250000Y-102140000D01*
X124720817Y-103599219D01*
X124719167Y-103600765D01*
X123970961Y-104289115D01*
X123969047Y-104290840D01*
X123800000Y-104439999D01*
X123839999Y-107209952D01*
X123859999Y-108100000D01*
X124153444Y-108950989D01*
X124160211Y-108990107D01*
X124164667Y-109413523D01*
X124164668Y-109413524D01*
X124169523Y-109874722D01*
X124169523Y-109874723D01*
X124169996Y-109919622D01*
X124169998Y-109920000D01*
X124170000Y-109920000D01*
X124250000Y-120600000D01*
X142685800Y-120331806D01*
X142753117Y-120350513D01*
X142799635Y-120402646D01*
X142811592Y-120454203D01*
X142849024Y-123373910D01*
X142830200Y-123441197D01*
X142777987Y-123487625D01*
X142725034Y-123499500D01*
X121965295Y-123499500D01*
X121898256Y-123479815D01*
X121852501Y-123427011D01*
X121841296Y-123374903D01*
X121841301Y-123373910D01*
X121891674Y-112916385D01*
X121901110Y-112869538D01*
X121915500Y-112834800D01*
X121915500Y-112725200D01*
X121915500Y-107970583D01*
X121915501Y-107969986D01*
X121919162Y-107209952D01*
X121929320Y-105101057D01*
X121949328Y-105034115D01*
X121965629Y-105013985D01*
X123790988Y-103188626D01*
X123793049Y-103186615D01*
X125161660Y-101883874D01*
X125544265Y-101519684D01*
X125606395Y-101487721D01*
X125629758Y-101485500D01*
X127366000Y-101485500D01*
X127433039Y-101505185D01*
G37*
G04 #@! TD.AperFunction*
G04 #@! TD*
G04 #@! TA.AperFunction,Conductor*
G04 #@! TO.N,VBUS*
G36*
X138820023Y-94369685D02*
G01*
X138865778Y-94422489D01*
X138875722Y-94491647D01*
X138856086Y-94542891D01*
X138770609Y-94670814D01*
X138770602Y-94670827D01*
X138710264Y-94816498D01*
X138710261Y-94816510D01*
X138679500Y-94971153D01*
X138679500Y-95128846D01*
X138710261Y-95283489D01*
X138710264Y-95283501D01*
X138770602Y-95429172D01*
X138770609Y-95429185D01*
X138858210Y-95560288D01*
X138858213Y-95560292D01*
X138969707Y-95671786D01*
X138969711Y-95671789D01*
X139100814Y-95759390D01*
X139100827Y-95759397D01*
X139246498Y-95819735D01*
X139246503Y-95819737D01*
X139401153Y-95850499D01*
X139401156Y-95850500D01*
X139401158Y-95850500D01*
X139558844Y-95850500D01*
X139558845Y-95850499D01*
X139713497Y-95819737D01*
X139859179Y-95759394D01*
X139990289Y-95671789D01*
X140101789Y-95560289D01*
X140189394Y-95429179D01*
X140249737Y-95283497D01*
X140280500Y-95128842D01*
X140280500Y-94971158D01*
X140280500Y-94971155D01*
X140280499Y-94971153D01*
X140249738Y-94816510D01*
X140249737Y-94816503D01*
X140249735Y-94816498D01*
X140189397Y-94670827D01*
X140189390Y-94670814D01*
X140103914Y-94542891D01*
X140083036Y-94476214D01*
X140101520Y-94408833D01*
X140153499Y-94362143D01*
X140207016Y-94350000D01*
X146444725Y-94350000D01*
X146511764Y-94369685D01*
X146557519Y-94422489D01*
X146568718Y-94475267D01*
X146477757Y-103370000D01*
X146431257Y-107917082D01*
X146410887Y-107983917D01*
X146357618Y-108029129D01*
X146307076Y-108039814D01*
X139841085Y-108030046D01*
X139810000Y-108030000D01*
X139809999Y-108030000D01*
X139790818Y-110916824D01*
X139770689Y-110983731D01*
X139717582Y-111029134D01*
X139666821Y-111040000D01*
X138893825Y-111040000D01*
X138826786Y-111020315D01*
X138781031Y-110967511D01*
X138769825Y-110916162D01*
X138760261Y-103589662D01*
X138779858Y-103522597D01*
X138832602Y-103476773D01*
X138884261Y-103465500D01*
X140112784Y-103465500D01*
X140179823Y-103485185D01*
X140181635Y-103486372D01*
X140236347Y-103522929D01*
X140368380Y-103577619D01*
X140368384Y-103577619D01*
X140368385Y-103577620D01*
X140508542Y-103605500D01*
X140508545Y-103605500D01*
X140651457Y-103605500D01*
X140745751Y-103586742D01*
X140791620Y-103577619D01*
X140923653Y-103522929D01*
X141042479Y-103443532D01*
X141069724Y-103416286D01*
X141131043Y-103382803D01*
X141156872Y-103379971D01*
X143540000Y-103370000D01*
X143640000Y-96390000D01*
X143639999Y-96389999D01*
X143640000Y-96389999D01*
X134656580Y-96350555D01*
X134589627Y-96330576D01*
X134544105Y-96277572D01*
X134533163Y-96223459D01*
X134576977Y-94470899D01*
X134598331Y-94404374D01*
X134652262Y-94359953D01*
X134700938Y-94350000D01*
X138752984Y-94350000D01*
X138820023Y-94369685D01*
G37*
G04 #@! TD.AperFunction*
G04 #@! TD*
M02*
