G04 #@! TF.GenerationSoftware,KiCad,Pcbnew,9.0.1*
G04 #@! TF.CreationDate,2025-08-05T19:10:54+03:00*
G04 #@! TF.ProjectId,com_board,636f6d5f-626f-4617-9264-2e6b69636164,rev?*
G04 #@! TF.SameCoordinates,Original*
G04 #@! TF.FileFunction,Soldermask,Top*
G04 #@! TF.FilePolarity,Negative*
%FSLAX46Y46*%
G04 Gerber Fmt 4.6, Leading zero omitted, Abs format (unit mm)*
G04 Created by KiCad (PCBNEW 9.0.1) date 2025-08-05 19:10:54*
%MOMM*%
%LPD*%
G01*
G04 APERTURE LIST*
G04 Aperture macros list*
%AMRoundRect*
0 Rectangle with rounded corners*
0 $1 Rounding radius*
0 $2 $3 $4 $5 $6 $7 $8 $9 X,Y pos of 4 corners*
0 Add a 4 corners polygon primitive as box body*
4,1,4,$2,$3,$4,$5,$6,$7,$8,$9,$2,$3,0*
0 Add four circle primitives for the rounded corners*
1,1,$1+$1,$2,$3*
1,1,$1+$1,$4,$5*
1,1,$1+$1,$6,$7*
1,1,$1+$1,$8,$9*
0 Add four rect primitives between the rounded corners*
20,1,$1+$1,$2,$3,$4,$5,0*
20,1,$1+$1,$4,$5,$6,$7,0*
20,1,$1+$1,$6,$7,$8,$9,0*
20,1,$1+$1,$8,$9,$2,$3,0*%
G04 Aperture macros list end*
%ADD10C,0.000000*%
%ADD11R,1.050000X1.100000*%
%ADD12RoundRect,0.155000X-0.212500X-0.155000X0.212500X-0.155000X0.212500X0.155000X-0.212500X0.155000X0*%
%ADD13RoundRect,0.100000X-0.100000X0.217500X-0.100000X-0.217500X0.100000X-0.217500X0.100000X0.217500X0*%
%ADD14RoundRect,0.237500X0.237500X-0.300000X0.237500X0.300000X-0.237500X0.300000X-0.237500X-0.300000X0*%
%ADD15RoundRect,0.102000X0.550000X1.125000X-0.550000X1.125000X-0.550000X-1.125000X0.550000X-1.125000X0*%
%ADD16RoundRect,0.102000X0.525000X0.550000X-0.525000X0.550000X-0.525000X-0.550000X0.525000X-0.550000X0*%
%ADD17R,0.740000X2.400000*%
%ADD18RoundRect,0.155000X0.155000X-0.212500X0.155000X0.212500X-0.155000X0.212500X-0.155000X-0.212500X0*%
%ADD19RoundRect,0.100000X-0.100000X0.130000X-0.100000X-0.130000X0.100000X-0.130000X0.100000X0.130000X0*%
%ADD20RoundRect,0.100000X0.130000X0.100000X-0.130000X0.100000X-0.130000X-0.100000X0.130000X-0.100000X0*%
%ADD21RoundRect,0.160000X0.160000X-0.197500X0.160000X0.197500X-0.160000X0.197500X-0.160000X-0.197500X0*%
%ADD22RoundRect,0.100000X-0.130000X-0.100000X0.130000X-0.100000X0.130000X0.100000X-0.130000X0.100000X0*%
%ADD23RoundRect,0.150000X0.350000X-0.800000X0.350000X0.800000X-0.350000X0.800000X-0.350000X-0.800000X0*%
%ADD24RoundRect,0.150000X0.800000X0.350000X-0.800000X0.350000X-0.800000X-0.350000X0.800000X-0.350000X0*%
%ADD25RoundRect,0.150000X-0.350000X0.800000X-0.350000X-0.800000X0.350000X-0.800000X0.350000X0.800000X0*%
%ADD26C,1.000000*%
%ADD27RoundRect,0.150000X-0.150000X0.512500X-0.150000X-0.512500X0.150000X-0.512500X0.150000X0.512500X0*%
%ADD28R,0.900000X0.800000*%
%ADD29C,0.650000*%
%ADD30RoundRect,0.150000X0.150000X0.425000X-0.150000X0.425000X-0.150000X-0.425000X0.150000X-0.425000X0*%
%ADD31RoundRect,0.075000X0.075000X0.500000X-0.075000X0.500000X-0.075000X-0.500000X0.075000X-0.500000X0*%
%ADD32RoundRect,0.250000X0.840000X0.750000X-0.840000X0.750000X-0.840000X-0.750000X0.840000X-0.750000X0*%
%ADD33R,2.000000X0.610000*%
%ADD34R,3.600000X2.680000*%
%ADD35RoundRect,0.160000X-0.197500X-0.160000X0.197500X-0.160000X0.197500X0.160000X-0.197500X0.160000X0*%
%ADD36C,2.200000*%
%ADD37R,0.200000X0.800000*%
%ADD38R,0.800000X0.200000*%
%ADD39R,3.700000X3.700000*%
%ADD40R,1.000000X1.500000*%
%ADD41RoundRect,0.237500X0.300000X0.237500X-0.300000X0.237500X-0.300000X-0.237500X0.300000X-0.237500X0*%
G04 APERTURE END LIST*
D10*
G04 #@! TO.C,JP1*
G36*
X141379997Y-109510005D02*
G01*
X141379999Y-111010005D01*
X139780001Y-111010001D01*
X139779999Y-109510001D01*
X141379997Y-109510005D01*
G37*
G04 #@! TD*
D11*
G04 #@! TO.C,Y1*
X130065000Y-98920000D03*
X131915000Y-98920000D03*
G04 #@! TD*
D12*
G04 #@! TO.C,C17*
X142392500Y-117600000D03*
X143527500Y-117600000D03*
G04 #@! TD*
D13*
G04 #@! TO.C,L1*
X128489995Y-111190003D03*
X128490003Y-112005005D03*
G04 #@! TD*
D14*
G04 #@! TO.C,C10*
X126040001Y-100892503D03*
X126039999Y-99167497D03*
G04 #@! TD*
D12*
G04 #@! TO.C,C18*
X142392502Y-115320001D03*
X143527498Y-115319999D03*
G04 #@! TD*
D15*
G04 #@! TO.C,J3*
X129915004Y-117740003D03*
X126965002Y-117740007D03*
D16*
X128439999Y-116190004D03*
G04 #@! TD*
D17*
G04 #@! TO.C,J2*
X128960001Y-88340009D03*
X128960003Y-92240011D03*
X127690014Y-88340014D03*
X127690012Y-92240005D03*
X126420008Y-88340008D03*
X126420013Y-92240011D03*
X125150009Y-88340005D03*
X125150005Y-92240009D03*
X123880001Y-88340003D03*
X123880006Y-92240006D03*
X122610002Y-88340009D03*
X122610000Y-92240000D03*
X121340011Y-88340003D03*
X121340013Y-92240005D03*
G04 #@! TD*
D18*
G04 #@! TO.C,C8*
X127630000Y-100257498D03*
X127630000Y-99122502D03*
G04 #@! TD*
D19*
G04 #@! TO.C,C3*
X134450001Y-110009998D03*
X134449995Y-110649998D03*
G04 #@! TD*
D20*
G04 #@! TO.C,C14*
X127539997Y-111170012D03*
X126900001Y-111170002D03*
G04 #@! TD*
D21*
G04 #@! TO.C,R1*
X142280000Y-96987500D03*
X142280000Y-95792500D03*
G04 #@! TD*
D22*
G04 #@! TO.C,C7*
X133919999Y-102339993D03*
X134559997Y-102340001D03*
G04 #@! TD*
D23*
G04 #@! TO.C,U1*
X97135000Y-110740000D03*
X98535000Y-110740000D03*
X99935000Y-110740000D03*
X101335000Y-110740001D03*
X102735000Y-110740000D03*
X104135000Y-110739999D03*
X105535000Y-110739999D03*
X106935000Y-110740000D03*
D24*
X109235000Y-109389999D03*
X109234999Y-107989999D03*
X109234999Y-106590001D03*
X109235000Y-105190002D03*
X109235000Y-103790000D03*
X109235000Y-102390000D03*
X109235000Y-100990001D03*
X109235000Y-99590001D03*
D25*
X106935002Y-98239999D03*
X105535001Y-98240000D03*
X104134999Y-98240000D03*
X102734998Y-98240001D03*
X101335000Y-98239999D03*
X99935001Y-98239999D03*
X98535001Y-98240000D03*
X97135000Y-98240000D03*
G04 #@! TD*
D26*
G04 #@! TO.C,TP2*
X126430005Y-95700006D03*
G04 #@! TD*
D22*
G04 #@! TO.C,C5*
X133800000Y-107889996D03*
X134439998Y-107890004D03*
G04 #@! TD*
D26*
G04 #@! TO.C,TP4*
X141030000Y-120200000D03*
G04 #@! TD*
D27*
G04 #@! TO.C,U2*
X140432500Y-96112502D03*
X139482501Y-96112501D03*
X138532500Y-96112498D03*
X138532502Y-98387498D03*
X139482501Y-98387499D03*
X140432502Y-98387502D03*
G04 #@! TD*
D26*
G04 #@! TO.C,TP7*
X141710000Y-102700000D03*
G04 #@! TD*
D19*
G04 #@! TO.C,C11*
X130250003Y-109619996D03*
X130249997Y-110259996D03*
G04 #@! TD*
D22*
G04 #@! TO.C,C6*
X133940001Y-103369996D03*
X134579999Y-103370004D03*
G04 #@! TD*
D20*
G04 #@! TO.C,C16*
X126099998Y-108280005D03*
X125460002Y-108279995D03*
G04 #@! TD*
D26*
G04 #@! TO.C,TP17*
X138400000Y-105870000D03*
G04 #@! TD*
D20*
G04 #@! TO.C,C2*
X130069999Y-100650003D03*
X129430003Y-100649993D03*
G04 #@! TD*
D26*
G04 #@! TO.C,TP12*
X99950000Y-113510000D03*
G04 #@! TD*
G04 #@! TO.C,TP9*
X107140000Y-95480000D03*
G04 #@! TD*
D28*
G04 #@! TO.C,Y2*
X131769998Y-111100001D03*
X133169998Y-111100001D03*
X133169998Y-110000001D03*
X131769998Y-110000001D03*
G04 #@! TD*
D29*
G04 #@! TO.C,J1*
X142550003Y-92374997D03*
X136770000Y-92374998D03*
D30*
X142860000Y-93449995D03*
X142060001Y-93450000D03*
D31*
X140910002Y-93449996D03*
X139910001Y-93449996D03*
X139410000Y-93450000D03*
X138410002Y-93449997D03*
D30*
X137260002Y-93449995D03*
X136459999Y-93449998D03*
X136459999Y-93449998D03*
X137260002Y-93449995D03*
D31*
X137910001Y-93449995D03*
X138909997Y-93449997D03*
X140410000Y-93449998D03*
X141410002Y-93449999D03*
D30*
X142060001Y-93450000D03*
X142860000Y-93449995D03*
D32*
X144770001Y-88944995D03*
X144770000Y-92874998D03*
X134550002Y-92874996D03*
X134550001Y-88945001D03*
G04 #@! TD*
D22*
G04 #@! TO.C,C1*
X131900002Y-100649997D03*
X132540000Y-100650005D03*
G04 #@! TD*
D26*
G04 #@! TO.C,TP6*
X141710000Y-104770000D03*
G04 #@! TD*
G04 #@! TO.C,TP3*
X129120007Y-95700005D03*
G04 #@! TD*
G04 #@! TO.C,TP5*
X140580000Y-112820000D03*
G04 #@! TD*
D33*
G04 #@! TO.C,UART_conn1*
X145180000Y-107209998D03*
X145179998Y-106209995D03*
X145179999Y-105209999D03*
X145179999Y-104209999D03*
X145180000Y-103210000D03*
X145180000Y-102209999D03*
D34*
X147980000Y-110199998D03*
X147980000Y-99219998D03*
G04 #@! TD*
D13*
G04 #@! TO.C,L2*
X128499994Y-113112506D03*
X128500002Y-113927508D03*
G04 #@! TD*
D22*
G04 #@! TO.C,C4*
X131775002Y-112479997D03*
X132415000Y-112480005D03*
G04 #@! TD*
D26*
G04 #@! TO.C,TP8*
X104890000Y-95480000D03*
G04 #@! TD*
D35*
G04 #@! TO.C,R3*
X99672500Y-95960000D03*
X100867500Y-95960000D03*
G04 #@! TD*
D20*
G04 #@! TO.C,C15*
X127559997Y-112030009D03*
X126920001Y-112029999D03*
G04 #@! TD*
D36*
G04 #@! TO.C,H3*
X150000000Y-120000000D03*
G04 #@! TD*
D27*
G04 #@! TO.C,U5*
X140592500Y-115322502D03*
X139642501Y-115322501D03*
X138692500Y-115322498D03*
X138692502Y-117597498D03*
X140592502Y-117597502D03*
G04 #@! TD*
D36*
G04 #@! TO.C,H4*
X100000000Y-90000000D03*
G04 #@! TD*
D37*
G04 #@! TO.C,IC1*
X131679998Y-102990003D03*
X131279998Y-102990001D03*
X130880002Y-102990002D03*
X130479999Y-102990002D03*
X130080000Y-102990000D03*
X129679999Y-102990003D03*
X129280001Y-102990002D03*
X128880000Y-102990000D03*
X128480001Y-102989996D03*
X128079997Y-102989999D03*
D38*
X127430003Y-103640002D03*
X127430001Y-104040002D03*
X127430002Y-104439998D03*
X127430002Y-104840001D03*
X127430000Y-105240000D03*
X127430003Y-105640001D03*
X127430002Y-106039999D03*
X127430000Y-106440000D03*
X127429996Y-106839999D03*
X127429999Y-107240003D03*
D37*
X128080002Y-107889997D03*
X128480002Y-107889999D03*
X128879998Y-107889998D03*
X129280001Y-107889998D03*
X129680000Y-107890000D03*
X130080001Y-107889997D03*
X130479999Y-107889998D03*
X130880000Y-107890000D03*
X131279999Y-107890004D03*
X131680003Y-107890001D03*
D38*
X132329997Y-107239998D03*
X132329999Y-106839998D03*
X132329998Y-106440002D03*
X132329998Y-106039999D03*
X132330000Y-105640000D03*
X132329997Y-105239999D03*
X132329998Y-104840001D03*
X132330000Y-104440000D03*
X132330004Y-104040001D03*
X132330001Y-103639997D03*
D39*
X129880000Y-105440000D03*
G04 #@! TD*
D26*
G04 #@! TO.C,TP13*
X99690000Y-94050000D03*
G04 #@! TD*
D36*
G04 #@! TO.C,H2*
X100000000Y-120000000D03*
G04 #@! TD*
D40*
G04 #@! TO.C,JP1*
X141880000Y-110260000D03*
X140579999Y-110260003D03*
X139279998Y-110260006D03*
G04 #@! TD*
D26*
G04 #@! TO.C,TP11*
X109530000Y-96860000D03*
G04 #@! TD*
G04 #@! TO.C,TP10*
X102650000Y-95480000D03*
G04 #@! TD*
D12*
G04 #@! TO.C,C12*
X135052502Y-104920001D03*
X136187498Y-104919999D03*
G04 #@! TD*
D21*
G04 #@! TO.C,R2*
X136660000Y-96947500D03*
X136660000Y-95752500D03*
G04 #@! TD*
D41*
G04 #@! TO.C,C13*
X124972503Y-103109999D03*
X123247497Y-103110001D03*
G04 #@! TD*
D36*
G04 #@! TO.C,H1*
X150000000Y-90000000D03*
G04 #@! TD*
D26*
G04 #@! TO.C,TP1*
X122620004Y-95700010D03*
G04 #@! TD*
D41*
G04 #@! TO.C,C9*
X122382503Y-107459999D03*
X120657497Y-107460001D03*
G04 #@! TD*
D26*
G04 #@! TO.C,TP16*
X137450000Y-108280000D03*
G04 #@! TD*
M02*
