%TF.GenerationSoftware,KiCad,Pcbnew,9.0.1*%
%TF.CreationDate,2025-08-05T19:10:54+03:00*%
%TF.ProjectId,com_board,636f6d5f-626f-4617-9264-2e6b69636164,rev?*%
%TF.SameCoordinates,Original*%
%TF.FileFunction,Drillmap*%
%TF.FilePolarity,Positive*%
%FSLAX45Y45*%
G04 Gerber Fmt 4.5, Leading zero omitted, Abs format (unit mm)*
G04 Created by KiCad (PCBNEW 9.0.1) date 2025-08-05 19:10:54*
%MOMM*%
%LPD*%
G01*
G04 APERTURE LIST*
%ADD10C,0.200000*%
%ADD11C,0.100000*%
%ADD12C,0.220000*%
G04 APERTURE END LIST*
D10*
X15000000Y-8600000D02*
X10000000Y-8600000D01*
X9600000Y-9000000D02*
G75*
G02*
X10000000Y-8600000I400000J0D01*
G01*
X10000000Y-12400000D02*
G75*
G02*
X9600000Y-12000000I0J400000D01*
G01*
X15400000Y-12000000D02*
G75*
G02*
X15000000Y-12400000I-400000J0D01*
G01*
X15000000Y-8600000D02*
G75*
G02*
X15400000Y-9000000I0J-400000D01*
G01*
X10000000Y-12400000D02*
X15000000Y-12400000D01*
X9600000Y-12000000D02*
X9600000Y-9000000D01*
X15400000Y-12000000D02*
X15400000Y-9000000D01*
D11*
X13644500Y-9205000D02*
X13709500Y-9270000D01*
X13709500Y-9205000D02*
X13644500Y-9270000D01*
X14222500Y-9205000D02*
X14287500Y-9270000D01*
X14287500Y-9205000D02*
X14222500Y-9270000D01*
D12*
X10110000Y-9000000D02*
G75*
G02*
X9890000Y-9000000I-110000J0D01*
G01*
X9890000Y-9000000D02*
G75*
G02*
X10110000Y-9000000I110000J0D01*
G01*
X10110000Y-12000000D02*
G75*
G02*
X9890000Y-12000000I-110000J0D01*
G01*
X9890000Y-12000000D02*
G75*
G02*
X10110000Y-12000000I110000J0D01*
G01*
X15110000Y-9000000D02*
G75*
G02*
X14890000Y-9000000I-110000J0D01*
G01*
X14890000Y-9000000D02*
G75*
G02*
X15110000Y-9000000I110000J0D01*
G01*
X15110000Y-12000000D02*
G75*
G02*
X14890000Y-12000000I-110000J0D01*
G01*
X14890000Y-12000000D02*
G75*
G02*
X15110000Y-12000000I110000J0D01*
G01*
D10*
X9850777Y-12721484D02*
X9850777Y-12521484D01*
X9850777Y-12521484D02*
X9898396Y-12521484D01*
X9898396Y-12521484D02*
X9926967Y-12531008D01*
X9926967Y-12531008D02*
X9946015Y-12550055D01*
X9946015Y-12550055D02*
X9955539Y-12569103D01*
X9955539Y-12569103D02*
X9965063Y-12607198D01*
X9965063Y-12607198D02*
X9965063Y-12635769D01*
X9965063Y-12635769D02*
X9955539Y-12673865D01*
X9955539Y-12673865D02*
X9946015Y-12692912D01*
X9946015Y-12692912D02*
X9926967Y-12711960D01*
X9926967Y-12711960D02*
X9898396Y-12721484D01*
X9898396Y-12721484D02*
X9850777Y-12721484D01*
X10050777Y-12721484D02*
X10050777Y-12588150D01*
X10050777Y-12626246D02*
X10060301Y-12607198D01*
X10060301Y-12607198D02*
X10069824Y-12597674D01*
X10069824Y-12597674D02*
X10088872Y-12588150D01*
X10088872Y-12588150D02*
X10107920Y-12588150D01*
X10174586Y-12721484D02*
X10174586Y-12588150D01*
X10174586Y-12521484D02*
X10165063Y-12531008D01*
X10165063Y-12531008D02*
X10174586Y-12540531D01*
X10174586Y-12540531D02*
X10184110Y-12531008D01*
X10184110Y-12531008D02*
X10174586Y-12521484D01*
X10174586Y-12521484D02*
X10174586Y-12540531D01*
X10298396Y-12721484D02*
X10279348Y-12711960D01*
X10279348Y-12711960D02*
X10269824Y-12692912D01*
X10269824Y-12692912D02*
X10269824Y-12521484D01*
X10403158Y-12721484D02*
X10384110Y-12711960D01*
X10384110Y-12711960D02*
X10374586Y-12692912D01*
X10374586Y-12692912D02*
X10374586Y-12521484D01*
X10631729Y-12721484D02*
X10631729Y-12521484D01*
X10631729Y-12521484D02*
X10698396Y-12664341D01*
X10698396Y-12664341D02*
X10765063Y-12521484D01*
X10765063Y-12521484D02*
X10765063Y-12721484D01*
X10946015Y-12721484D02*
X10946015Y-12616722D01*
X10946015Y-12616722D02*
X10936491Y-12597674D01*
X10936491Y-12597674D02*
X10917444Y-12588150D01*
X10917444Y-12588150D02*
X10879348Y-12588150D01*
X10879348Y-12588150D02*
X10860301Y-12597674D01*
X10946015Y-12711960D02*
X10926967Y-12721484D01*
X10926967Y-12721484D02*
X10879348Y-12721484D01*
X10879348Y-12721484D02*
X10860301Y-12711960D01*
X10860301Y-12711960D02*
X10850777Y-12692912D01*
X10850777Y-12692912D02*
X10850777Y-12673865D01*
X10850777Y-12673865D02*
X10860301Y-12654817D01*
X10860301Y-12654817D02*
X10879348Y-12645293D01*
X10879348Y-12645293D02*
X10926967Y-12645293D01*
X10926967Y-12645293D02*
X10946015Y-12635769D01*
X11041253Y-12588150D02*
X11041253Y-12788150D01*
X11041253Y-12597674D02*
X11060301Y-12588150D01*
X11060301Y-12588150D02*
X11098396Y-12588150D01*
X11098396Y-12588150D02*
X11117444Y-12597674D01*
X11117444Y-12597674D02*
X11126967Y-12607198D01*
X11126967Y-12607198D02*
X11136491Y-12626246D01*
X11136491Y-12626246D02*
X11136491Y-12683388D01*
X11136491Y-12683388D02*
X11126967Y-12702436D01*
X11126967Y-12702436D02*
X11117444Y-12711960D01*
X11117444Y-12711960D02*
X11098396Y-12721484D01*
X11098396Y-12721484D02*
X11060301Y-12721484D01*
X11060301Y-12721484D02*
X11041253Y-12711960D01*
X11222205Y-12702436D02*
X11231729Y-12711960D01*
X11231729Y-12711960D02*
X11222205Y-12721484D01*
X11222205Y-12721484D02*
X11212682Y-12711960D01*
X11212682Y-12711960D02*
X11222205Y-12702436D01*
X11222205Y-12702436D02*
X11222205Y-12721484D01*
X11222205Y-12597674D02*
X11231729Y-12607198D01*
X11231729Y-12607198D02*
X11222205Y-12616722D01*
X11222205Y-12616722D02*
X11212682Y-12607198D01*
X11212682Y-12607198D02*
X11222205Y-12597674D01*
X11222205Y-12597674D02*
X11222205Y-12616722D01*
D11*
X9525000Y-13017500D02*
X9590000Y-13082500D01*
X9590000Y-13017500D02*
X9525000Y-13082500D01*
D10*
X9888872Y-12941484D02*
X9907920Y-12941484D01*
X9907920Y-12941484D02*
X9926967Y-12951008D01*
X9926967Y-12951008D02*
X9936491Y-12960531D01*
X9936491Y-12960531D02*
X9946015Y-12979579D01*
X9946015Y-12979579D02*
X9955539Y-13017674D01*
X9955539Y-13017674D02*
X9955539Y-13065293D01*
X9955539Y-13065293D02*
X9946015Y-13103388D01*
X9946015Y-13103388D02*
X9936491Y-13122436D01*
X9936491Y-13122436D02*
X9926967Y-13131960D01*
X9926967Y-13131960D02*
X9907920Y-13141484D01*
X9907920Y-13141484D02*
X9888872Y-13141484D01*
X9888872Y-13141484D02*
X9869824Y-13131960D01*
X9869824Y-13131960D02*
X9860301Y-13122436D01*
X9860301Y-13122436D02*
X9850777Y-13103388D01*
X9850777Y-13103388D02*
X9841253Y-13065293D01*
X9841253Y-13065293D02*
X9841253Y-13017674D01*
X9841253Y-13017674D02*
X9850777Y-12979579D01*
X9850777Y-12979579D02*
X9860301Y-12960531D01*
X9860301Y-12960531D02*
X9869824Y-12951008D01*
X9869824Y-12951008D02*
X9888872Y-12941484D01*
X10041253Y-13122436D02*
X10050777Y-13131960D01*
X10050777Y-13131960D02*
X10041253Y-13141484D01*
X10041253Y-13141484D02*
X10031729Y-13131960D01*
X10031729Y-13131960D02*
X10041253Y-13122436D01*
X10041253Y-13122436D02*
X10041253Y-13141484D01*
X10222205Y-12941484D02*
X10184110Y-12941484D01*
X10184110Y-12941484D02*
X10165063Y-12951008D01*
X10165063Y-12951008D02*
X10155539Y-12960531D01*
X10155539Y-12960531D02*
X10136491Y-12989103D01*
X10136491Y-12989103D02*
X10126967Y-13027198D01*
X10126967Y-13027198D02*
X10126967Y-13103388D01*
X10126967Y-13103388D02*
X10136491Y-13122436D01*
X10136491Y-13122436D02*
X10146015Y-13131960D01*
X10146015Y-13131960D02*
X10165063Y-13141484D01*
X10165063Y-13141484D02*
X10203158Y-13141484D01*
X10203158Y-13141484D02*
X10222205Y-13131960D01*
X10222205Y-13131960D02*
X10231729Y-13122436D01*
X10231729Y-13122436D02*
X10241253Y-13103388D01*
X10241253Y-13103388D02*
X10241253Y-13055769D01*
X10241253Y-13055769D02*
X10231729Y-13036722D01*
X10231729Y-13036722D02*
X10222205Y-13027198D01*
X10222205Y-13027198D02*
X10203158Y-13017674D01*
X10203158Y-13017674D02*
X10165063Y-13017674D01*
X10165063Y-13017674D02*
X10146015Y-13027198D01*
X10146015Y-13027198D02*
X10136491Y-13036722D01*
X10136491Y-13036722D02*
X10126967Y-13055769D01*
X10422205Y-12941484D02*
X10326967Y-12941484D01*
X10326967Y-12941484D02*
X10317444Y-13036722D01*
X10317444Y-13036722D02*
X10326967Y-13027198D01*
X10326967Y-13027198D02*
X10346015Y-13017674D01*
X10346015Y-13017674D02*
X10393634Y-13017674D01*
X10393634Y-13017674D02*
X10412682Y-13027198D01*
X10412682Y-13027198D02*
X10422205Y-13036722D01*
X10422205Y-13036722D02*
X10431729Y-13055769D01*
X10431729Y-13055769D02*
X10431729Y-13103388D01*
X10431729Y-13103388D02*
X10422205Y-13122436D01*
X10422205Y-13122436D02*
X10412682Y-13131960D01*
X10412682Y-13131960D02*
X10393634Y-13141484D01*
X10393634Y-13141484D02*
X10346015Y-13141484D01*
X10346015Y-13141484D02*
X10326967Y-13131960D01*
X10326967Y-13131960D02*
X10317444Y-13122436D01*
X10555539Y-12941484D02*
X10574586Y-12941484D01*
X10574586Y-12941484D02*
X10593634Y-12951008D01*
X10593634Y-12951008D02*
X10603158Y-12960531D01*
X10603158Y-12960531D02*
X10612682Y-12979579D01*
X10612682Y-12979579D02*
X10622205Y-13017674D01*
X10622205Y-13017674D02*
X10622205Y-13065293D01*
X10622205Y-13065293D02*
X10612682Y-13103388D01*
X10612682Y-13103388D02*
X10603158Y-13122436D01*
X10603158Y-13122436D02*
X10593634Y-13131960D01*
X10593634Y-13131960D02*
X10574586Y-13141484D01*
X10574586Y-13141484D02*
X10555539Y-13141484D01*
X10555539Y-13141484D02*
X10536491Y-13131960D01*
X10536491Y-13131960D02*
X10526967Y-13122436D01*
X10526967Y-13122436D02*
X10517444Y-13103388D01*
X10517444Y-13103388D02*
X10507920Y-13065293D01*
X10507920Y-13065293D02*
X10507920Y-13017674D01*
X10507920Y-13017674D02*
X10517444Y-12979579D01*
X10517444Y-12979579D02*
X10526967Y-12960531D01*
X10526967Y-12960531D02*
X10536491Y-12951008D01*
X10536491Y-12951008D02*
X10555539Y-12941484D01*
X10707920Y-13141484D02*
X10707920Y-13008150D01*
X10707920Y-13027198D02*
X10717444Y-13017674D01*
X10717444Y-13017674D02*
X10736491Y-13008150D01*
X10736491Y-13008150D02*
X10765063Y-13008150D01*
X10765063Y-13008150D02*
X10784110Y-13017674D01*
X10784110Y-13017674D02*
X10793634Y-13036722D01*
X10793634Y-13036722D02*
X10793634Y-13141484D01*
X10793634Y-13036722D02*
X10803158Y-13017674D01*
X10803158Y-13017674D02*
X10822205Y-13008150D01*
X10822205Y-13008150D02*
X10850777Y-13008150D01*
X10850777Y-13008150D02*
X10869825Y-13017674D01*
X10869825Y-13017674D02*
X10879348Y-13036722D01*
X10879348Y-13036722D02*
X10879348Y-13141484D01*
X10974586Y-13141484D02*
X10974586Y-13008150D01*
X10974586Y-13027198D02*
X10984110Y-13017674D01*
X10984110Y-13017674D02*
X11003158Y-13008150D01*
X11003158Y-13008150D02*
X11031729Y-13008150D01*
X11031729Y-13008150D02*
X11050777Y-13017674D01*
X11050777Y-13017674D02*
X11060301Y-13036722D01*
X11060301Y-13036722D02*
X11060301Y-13141484D01*
X11060301Y-13036722D02*
X11069825Y-13017674D01*
X11069825Y-13017674D02*
X11088872Y-13008150D01*
X11088872Y-13008150D02*
X11117444Y-13008150D01*
X11117444Y-13008150D02*
X11136491Y-13017674D01*
X11136491Y-13017674D02*
X11146015Y-13036722D01*
X11146015Y-13036722D02*
X11146015Y-13141484D01*
X11536491Y-12931960D02*
X11365063Y-13189103D01*
X11793634Y-12941484D02*
X11812682Y-12941484D01*
X11812682Y-12941484D02*
X11831729Y-12951008D01*
X11831729Y-12951008D02*
X11841253Y-12960531D01*
X11841253Y-12960531D02*
X11850777Y-12979579D01*
X11850777Y-12979579D02*
X11860301Y-13017674D01*
X11860301Y-13017674D02*
X11860301Y-13065293D01*
X11860301Y-13065293D02*
X11850777Y-13103388D01*
X11850777Y-13103388D02*
X11841253Y-13122436D01*
X11841253Y-13122436D02*
X11831729Y-13131960D01*
X11831729Y-13131960D02*
X11812682Y-13141484D01*
X11812682Y-13141484D02*
X11793634Y-13141484D01*
X11793634Y-13141484D02*
X11774586Y-13131960D01*
X11774586Y-13131960D02*
X11765063Y-13122436D01*
X11765063Y-13122436D02*
X11755539Y-13103388D01*
X11755539Y-13103388D02*
X11746015Y-13065293D01*
X11746015Y-13065293D02*
X11746015Y-13017674D01*
X11746015Y-13017674D02*
X11755539Y-12979579D01*
X11755539Y-12979579D02*
X11765063Y-12960531D01*
X11765063Y-12960531D02*
X11774586Y-12951008D01*
X11774586Y-12951008D02*
X11793634Y-12941484D01*
X11946015Y-13122436D02*
X11955539Y-13131960D01*
X11955539Y-13131960D02*
X11946015Y-13141484D01*
X11946015Y-13141484D02*
X11936491Y-13131960D01*
X11936491Y-13131960D02*
X11946015Y-13122436D01*
X11946015Y-13122436D02*
X11946015Y-13141484D01*
X12079348Y-12941484D02*
X12098396Y-12941484D01*
X12098396Y-12941484D02*
X12117444Y-12951008D01*
X12117444Y-12951008D02*
X12126967Y-12960531D01*
X12126967Y-12960531D02*
X12136491Y-12979579D01*
X12136491Y-12979579D02*
X12146015Y-13017674D01*
X12146015Y-13017674D02*
X12146015Y-13065293D01*
X12146015Y-13065293D02*
X12136491Y-13103388D01*
X12136491Y-13103388D02*
X12126967Y-13122436D01*
X12126967Y-13122436D02*
X12117444Y-13131960D01*
X12117444Y-13131960D02*
X12098396Y-13141484D01*
X12098396Y-13141484D02*
X12079348Y-13141484D01*
X12079348Y-13141484D02*
X12060301Y-13131960D01*
X12060301Y-13131960D02*
X12050777Y-13122436D01*
X12050777Y-13122436D02*
X12041253Y-13103388D01*
X12041253Y-13103388D02*
X12031729Y-13065293D01*
X12031729Y-13065293D02*
X12031729Y-13017674D01*
X12031729Y-13017674D02*
X12041253Y-12979579D01*
X12041253Y-12979579D02*
X12050777Y-12960531D01*
X12050777Y-12960531D02*
X12060301Y-12951008D01*
X12060301Y-12951008D02*
X12079348Y-12941484D01*
X12222206Y-12960531D02*
X12231729Y-12951008D01*
X12231729Y-12951008D02*
X12250777Y-12941484D01*
X12250777Y-12941484D02*
X12298396Y-12941484D01*
X12298396Y-12941484D02*
X12317444Y-12951008D01*
X12317444Y-12951008D02*
X12326967Y-12960531D01*
X12326967Y-12960531D02*
X12336491Y-12979579D01*
X12336491Y-12979579D02*
X12336491Y-12998627D01*
X12336491Y-12998627D02*
X12326967Y-13027198D01*
X12326967Y-13027198D02*
X12212682Y-13141484D01*
X12212682Y-13141484D02*
X12336491Y-13141484D01*
X12517444Y-12941484D02*
X12422206Y-12941484D01*
X12422206Y-12941484D02*
X12412682Y-13036722D01*
X12412682Y-13036722D02*
X12422206Y-13027198D01*
X12422206Y-13027198D02*
X12441253Y-13017674D01*
X12441253Y-13017674D02*
X12488872Y-13017674D01*
X12488872Y-13017674D02*
X12507920Y-13027198D01*
X12507920Y-13027198D02*
X12517444Y-13036722D01*
X12517444Y-13036722D02*
X12526967Y-13055769D01*
X12526967Y-13055769D02*
X12526967Y-13103388D01*
X12526967Y-13103388D02*
X12517444Y-13122436D01*
X12517444Y-13122436D02*
X12507920Y-13131960D01*
X12507920Y-13131960D02*
X12488872Y-13141484D01*
X12488872Y-13141484D02*
X12441253Y-13141484D01*
X12441253Y-13141484D02*
X12422206Y-13131960D01*
X12422206Y-13131960D02*
X12412682Y-13122436D01*
X12698396Y-12941484D02*
X12660301Y-12941484D01*
X12660301Y-12941484D02*
X12641253Y-12951008D01*
X12641253Y-12951008D02*
X12631729Y-12960531D01*
X12631729Y-12960531D02*
X12612682Y-12989103D01*
X12612682Y-12989103D02*
X12603158Y-13027198D01*
X12603158Y-13027198D02*
X12603158Y-13103388D01*
X12603158Y-13103388D02*
X12612682Y-13122436D01*
X12612682Y-13122436D02*
X12622206Y-13131960D01*
X12622206Y-13131960D02*
X12641253Y-13141484D01*
X12641253Y-13141484D02*
X12679348Y-13141484D01*
X12679348Y-13141484D02*
X12698396Y-13131960D01*
X12698396Y-13131960D02*
X12707920Y-13122436D01*
X12707920Y-13122436D02*
X12717444Y-13103388D01*
X12717444Y-13103388D02*
X12717444Y-13055769D01*
X12717444Y-13055769D02*
X12707920Y-13036722D01*
X12707920Y-13036722D02*
X12698396Y-13027198D01*
X12698396Y-13027198D02*
X12679348Y-13017674D01*
X12679348Y-13017674D02*
X12641253Y-13017674D01*
X12641253Y-13017674D02*
X12622206Y-13027198D01*
X12622206Y-13027198D02*
X12612682Y-13036722D01*
X12612682Y-13036722D02*
X12603158Y-13055769D01*
X12793634Y-12941484D02*
X12793634Y-12979579D01*
X12869825Y-12941484D02*
X12869825Y-12979579D01*
X13165063Y-13217674D02*
X13155539Y-13208150D01*
X13155539Y-13208150D02*
X13136491Y-13179579D01*
X13136491Y-13179579D02*
X13126968Y-13160531D01*
X13126968Y-13160531D02*
X13117444Y-13131960D01*
X13117444Y-13131960D02*
X13107920Y-13084341D01*
X13107920Y-13084341D02*
X13107920Y-13046246D01*
X13107920Y-13046246D02*
X13117444Y-12998627D01*
X13117444Y-12998627D02*
X13126968Y-12970055D01*
X13126968Y-12970055D02*
X13136491Y-12951008D01*
X13136491Y-12951008D02*
X13155539Y-12922436D01*
X13155539Y-12922436D02*
X13165063Y-12912912D01*
X13231729Y-12960531D02*
X13241253Y-12951008D01*
X13241253Y-12951008D02*
X13260301Y-12941484D01*
X13260301Y-12941484D02*
X13307920Y-12941484D01*
X13307920Y-12941484D02*
X13326968Y-12951008D01*
X13326968Y-12951008D02*
X13336491Y-12960531D01*
X13336491Y-12960531D02*
X13346015Y-12979579D01*
X13346015Y-12979579D02*
X13346015Y-12998627D01*
X13346015Y-12998627D02*
X13336491Y-13027198D01*
X13336491Y-13027198D02*
X13222206Y-13141484D01*
X13222206Y-13141484D02*
X13346015Y-13141484D01*
X13584110Y-13141484D02*
X13584110Y-12941484D01*
X13669825Y-13141484D02*
X13669825Y-13036722D01*
X13669825Y-13036722D02*
X13660301Y-13017674D01*
X13660301Y-13017674D02*
X13641253Y-13008150D01*
X13641253Y-13008150D02*
X13612682Y-13008150D01*
X13612682Y-13008150D02*
X13593634Y-13017674D01*
X13593634Y-13017674D02*
X13584110Y-13027198D01*
X13793634Y-13141484D02*
X13774587Y-13131960D01*
X13774587Y-13131960D02*
X13765063Y-13122436D01*
X13765063Y-13122436D02*
X13755539Y-13103388D01*
X13755539Y-13103388D02*
X13755539Y-13046246D01*
X13755539Y-13046246D02*
X13765063Y-13027198D01*
X13765063Y-13027198D02*
X13774587Y-13017674D01*
X13774587Y-13017674D02*
X13793634Y-13008150D01*
X13793634Y-13008150D02*
X13822206Y-13008150D01*
X13822206Y-13008150D02*
X13841253Y-13017674D01*
X13841253Y-13017674D02*
X13850777Y-13027198D01*
X13850777Y-13027198D02*
X13860301Y-13046246D01*
X13860301Y-13046246D02*
X13860301Y-13103388D01*
X13860301Y-13103388D02*
X13850777Y-13122436D01*
X13850777Y-13122436D02*
X13841253Y-13131960D01*
X13841253Y-13131960D02*
X13822206Y-13141484D01*
X13822206Y-13141484D02*
X13793634Y-13141484D01*
X13974587Y-13141484D02*
X13955539Y-13131960D01*
X13955539Y-13131960D02*
X13946015Y-13112912D01*
X13946015Y-13112912D02*
X13946015Y-12941484D01*
X14126968Y-13131960D02*
X14107920Y-13141484D01*
X14107920Y-13141484D02*
X14069825Y-13141484D01*
X14069825Y-13141484D02*
X14050777Y-13131960D01*
X14050777Y-13131960D02*
X14041253Y-13112912D01*
X14041253Y-13112912D02*
X14041253Y-13036722D01*
X14041253Y-13036722D02*
X14050777Y-13017674D01*
X14050777Y-13017674D02*
X14069825Y-13008150D01*
X14069825Y-13008150D02*
X14107920Y-13008150D01*
X14107920Y-13008150D02*
X14126968Y-13017674D01*
X14126968Y-13017674D02*
X14136491Y-13036722D01*
X14136491Y-13036722D02*
X14136491Y-13055769D01*
X14136491Y-13055769D02*
X14041253Y-13074817D01*
X14212682Y-13131960D02*
X14231730Y-13141484D01*
X14231730Y-13141484D02*
X14269825Y-13141484D01*
X14269825Y-13141484D02*
X14288872Y-13131960D01*
X14288872Y-13131960D02*
X14298396Y-13112912D01*
X14298396Y-13112912D02*
X14298396Y-13103388D01*
X14298396Y-13103388D02*
X14288872Y-13084341D01*
X14288872Y-13084341D02*
X14269825Y-13074817D01*
X14269825Y-13074817D02*
X14241253Y-13074817D01*
X14241253Y-13074817D02*
X14222206Y-13065293D01*
X14222206Y-13065293D02*
X14212682Y-13046246D01*
X14212682Y-13046246D02*
X14212682Y-13036722D01*
X14212682Y-13036722D02*
X14222206Y-13017674D01*
X14222206Y-13017674D02*
X14241253Y-13008150D01*
X14241253Y-13008150D02*
X14269825Y-13008150D01*
X14269825Y-13008150D02*
X14288872Y-13017674D01*
X14365063Y-13217674D02*
X14374587Y-13208150D01*
X14374587Y-13208150D02*
X14393634Y-13179579D01*
X14393634Y-13179579D02*
X14403158Y-13160531D01*
X14403158Y-13160531D02*
X14412682Y-13131960D01*
X14412682Y-13131960D02*
X14422206Y-13084341D01*
X14422206Y-13084341D02*
X14422206Y-13046246D01*
X14422206Y-13046246D02*
X14412682Y-12998627D01*
X14412682Y-12998627D02*
X14403158Y-12970055D01*
X14403158Y-12970055D02*
X14393634Y-12951008D01*
X14393634Y-12951008D02*
X14374587Y-12922436D01*
X14374587Y-12922436D02*
X14365063Y-12912912D01*
X14726968Y-13217674D02*
X14717444Y-13208150D01*
X14717444Y-13208150D02*
X14698396Y-13179579D01*
X14698396Y-13179579D02*
X14688872Y-13160531D01*
X14688872Y-13160531D02*
X14679349Y-13131960D01*
X14679349Y-13131960D02*
X14669825Y-13084341D01*
X14669825Y-13084341D02*
X14669825Y-13046246D01*
X14669825Y-13046246D02*
X14679349Y-12998627D01*
X14679349Y-12998627D02*
X14688872Y-12970055D01*
X14688872Y-12970055D02*
X14698396Y-12951008D01*
X14698396Y-12951008D02*
X14717444Y-12922436D01*
X14717444Y-12922436D02*
X14726968Y-12912912D01*
X14803158Y-13008150D02*
X14803158Y-13141484D01*
X14803158Y-13027198D02*
X14812682Y-13017674D01*
X14812682Y-13017674D02*
X14831730Y-13008150D01*
X14831730Y-13008150D02*
X14860301Y-13008150D01*
X14860301Y-13008150D02*
X14879349Y-13017674D01*
X14879349Y-13017674D02*
X14888872Y-13036722D01*
X14888872Y-13036722D02*
X14888872Y-13141484D01*
X15012682Y-13141484D02*
X14993634Y-13131960D01*
X14993634Y-13131960D02*
X14984111Y-13122436D01*
X14984111Y-13122436D02*
X14974587Y-13103388D01*
X14974587Y-13103388D02*
X14974587Y-13046246D01*
X14974587Y-13046246D02*
X14984111Y-13027198D01*
X14984111Y-13027198D02*
X14993634Y-13017674D01*
X14993634Y-13017674D02*
X15012682Y-13008150D01*
X15012682Y-13008150D02*
X15041253Y-13008150D01*
X15041253Y-13008150D02*
X15060301Y-13017674D01*
X15060301Y-13017674D02*
X15069825Y-13027198D01*
X15069825Y-13027198D02*
X15079349Y-13046246D01*
X15079349Y-13046246D02*
X15079349Y-13103388D01*
X15079349Y-13103388D02*
X15069825Y-13122436D01*
X15069825Y-13122436D02*
X15060301Y-13131960D01*
X15060301Y-13131960D02*
X15041253Y-13141484D01*
X15041253Y-13141484D02*
X15012682Y-13141484D01*
X15136492Y-13008150D02*
X15212682Y-13008150D01*
X15165063Y-12941484D02*
X15165063Y-13112912D01*
X15165063Y-13112912D02*
X15174587Y-13131960D01*
X15174587Y-13131960D02*
X15193634Y-13141484D01*
X15193634Y-13141484D02*
X15212682Y-13141484D01*
X15431730Y-13008150D02*
X15431730Y-13208150D01*
X15431730Y-13017674D02*
X15450777Y-13008150D01*
X15450777Y-13008150D02*
X15488873Y-13008150D01*
X15488873Y-13008150D02*
X15507920Y-13017674D01*
X15507920Y-13017674D02*
X15517444Y-13027198D01*
X15517444Y-13027198D02*
X15526968Y-13046246D01*
X15526968Y-13046246D02*
X15526968Y-13103388D01*
X15526968Y-13103388D02*
X15517444Y-13122436D01*
X15517444Y-13122436D02*
X15507920Y-13131960D01*
X15507920Y-13131960D02*
X15488873Y-13141484D01*
X15488873Y-13141484D02*
X15450777Y-13141484D01*
X15450777Y-13141484D02*
X15431730Y-13131960D01*
X15641253Y-13141484D02*
X15622206Y-13131960D01*
X15622206Y-13131960D02*
X15612682Y-13112912D01*
X15612682Y-13112912D02*
X15612682Y-12941484D01*
X15803158Y-13141484D02*
X15803158Y-13036722D01*
X15803158Y-13036722D02*
X15793634Y-13017674D01*
X15793634Y-13017674D02*
X15774587Y-13008150D01*
X15774587Y-13008150D02*
X15736492Y-13008150D01*
X15736492Y-13008150D02*
X15717444Y-13017674D01*
X15803158Y-13131960D02*
X15784111Y-13141484D01*
X15784111Y-13141484D02*
X15736492Y-13141484D01*
X15736492Y-13141484D02*
X15717444Y-13131960D01*
X15717444Y-13131960D02*
X15707920Y-13112912D01*
X15707920Y-13112912D02*
X15707920Y-13093865D01*
X15707920Y-13093865D02*
X15717444Y-13074817D01*
X15717444Y-13074817D02*
X15736492Y-13065293D01*
X15736492Y-13065293D02*
X15784111Y-13065293D01*
X15784111Y-13065293D02*
X15803158Y-13055769D01*
X15869825Y-13008150D02*
X15946015Y-13008150D01*
X15898396Y-12941484D02*
X15898396Y-13112912D01*
X15898396Y-13112912D02*
X15907920Y-13131960D01*
X15907920Y-13131960D02*
X15926968Y-13141484D01*
X15926968Y-13141484D02*
X15946015Y-13141484D01*
X16088873Y-13131960D02*
X16069825Y-13141484D01*
X16069825Y-13141484D02*
X16031730Y-13141484D01*
X16031730Y-13141484D02*
X16012682Y-13131960D01*
X16012682Y-13131960D02*
X16003158Y-13112912D01*
X16003158Y-13112912D02*
X16003158Y-13036722D01*
X16003158Y-13036722D02*
X16012682Y-13017674D01*
X16012682Y-13017674D02*
X16031730Y-13008150D01*
X16031730Y-13008150D02*
X16069825Y-13008150D01*
X16069825Y-13008150D02*
X16088873Y-13017674D01*
X16088873Y-13017674D02*
X16098396Y-13036722D01*
X16098396Y-13036722D02*
X16098396Y-13055769D01*
X16098396Y-13055769D02*
X16003158Y-13074817D01*
X16269825Y-13141484D02*
X16269825Y-12941484D01*
X16269825Y-13131960D02*
X16250777Y-13141484D01*
X16250777Y-13141484D02*
X16212682Y-13141484D01*
X16212682Y-13141484D02*
X16193634Y-13131960D01*
X16193634Y-13131960D02*
X16184111Y-13122436D01*
X16184111Y-13122436D02*
X16174587Y-13103388D01*
X16174587Y-13103388D02*
X16174587Y-13046246D01*
X16174587Y-13046246D02*
X16184111Y-13027198D01*
X16184111Y-13027198D02*
X16193634Y-13017674D01*
X16193634Y-13017674D02*
X16212682Y-13008150D01*
X16212682Y-13008150D02*
X16250777Y-13008150D01*
X16250777Y-13008150D02*
X16269825Y-13017674D01*
X16346015Y-13217674D02*
X16355539Y-13208150D01*
X16355539Y-13208150D02*
X16374587Y-13179579D01*
X16374587Y-13179579D02*
X16384111Y-13160531D01*
X16384111Y-13160531D02*
X16393634Y-13131960D01*
X16393634Y-13131960D02*
X16403158Y-13084341D01*
X16403158Y-13084341D02*
X16403158Y-13046246D01*
X16403158Y-13046246D02*
X16393634Y-12998627D01*
X16393634Y-12998627D02*
X16384111Y-12970055D01*
X16384111Y-12970055D02*
X16374587Y-12951008D01*
X16374587Y-12951008D02*
X16355539Y-12922436D01*
X16355539Y-12922436D02*
X16346015Y-12912912D01*
X9590000Y-13314000D02*
G75*
G02*
X9390000Y-13314000I-100000J0D01*
G01*
X9390000Y-13314000D02*
G75*
G02*
X9590000Y-13314000I100000J0D01*
G01*
X9841253Y-13224531D02*
X9850777Y-13215008D01*
X9850777Y-13215008D02*
X9869824Y-13205484D01*
X9869824Y-13205484D02*
X9917444Y-13205484D01*
X9917444Y-13205484D02*
X9936491Y-13215008D01*
X9936491Y-13215008D02*
X9946015Y-13224531D01*
X9946015Y-13224531D02*
X9955539Y-13243579D01*
X9955539Y-13243579D02*
X9955539Y-13262627D01*
X9955539Y-13262627D02*
X9946015Y-13291198D01*
X9946015Y-13291198D02*
X9831729Y-13405484D01*
X9831729Y-13405484D02*
X9955539Y-13405484D01*
X10041253Y-13386436D02*
X10050777Y-13395960D01*
X10050777Y-13395960D02*
X10041253Y-13405484D01*
X10041253Y-13405484D02*
X10031729Y-13395960D01*
X10031729Y-13395960D02*
X10041253Y-13386436D01*
X10041253Y-13386436D02*
X10041253Y-13405484D01*
X10126967Y-13224531D02*
X10136491Y-13215008D01*
X10136491Y-13215008D02*
X10155539Y-13205484D01*
X10155539Y-13205484D02*
X10203158Y-13205484D01*
X10203158Y-13205484D02*
X10222205Y-13215008D01*
X10222205Y-13215008D02*
X10231729Y-13224531D01*
X10231729Y-13224531D02*
X10241253Y-13243579D01*
X10241253Y-13243579D02*
X10241253Y-13262627D01*
X10241253Y-13262627D02*
X10231729Y-13291198D01*
X10231729Y-13291198D02*
X10117444Y-13405484D01*
X10117444Y-13405484D02*
X10241253Y-13405484D01*
X10365063Y-13205484D02*
X10384110Y-13205484D01*
X10384110Y-13205484D02*
X10403158Y-13215008D01*
X10403158Y-13215008D02*
X10412682Y-13224531D01*
X10412682Y-13224531D02*
X10422205Y-13243579D01*
X10422205Y-13243579D02*
X10431729Y-13281674D01*
X10431729Y-13281674D02*
X10431729Y-13329293D01*
X10431729Y-13329293D02*
X10422205Y-13367388D01*
X10422205Y-13367388D02*
X10412682Y-13386436D01*
X10412682Y-13386436D02*
X10403158Y-13395960D01*
X10403158Y-13395960D02*
X10384110Y-13405484D01*
X10384110Y-13405484D02*
X10365063Y-13405484D01*
X10365063Y-13405484D02*
X10346015Y-13395960D01*
X10346015Y-13395960D02*
X10336491Y-13386436D01*
X10336491Y-13386436D02*
X10326967Y-13367388D01*
X10326967Y-13367388D02*
X10317444Y-13329293D01*
X10317444Y-13329293D02*
X10317444Y-13281674D01*
X10317444Y-13281674D02*
X10326967Y-13243579D01*
X10326967Y-13243579D02*
X10336491Y-13224531D01*
X10336491Y-13224531D02*
X10346015Y-13215008D01*
X10346015Y-13215008D02*
X10365063Y-13205484D01*
X10555539Y-13205484D02*
X10574586Y-13205484D01*
X10574586Y-13205484D02*
X10593634Y-13215008D01*
X10593634Y-13215008D02*
X10603158Y-13224531D01*
X10603158Y-13224531D02*
X10612682Y-13243579D01*
X10612682Y-13243579D02*
X10622205Y-13281674D01*
X10622205Y-13281674D02*
X10622205Y-13329293D01*
X10622205Y-13329293D02*
X10612682Y-13367388D01*
X10612682Y-13367388D02*
X10603158Y-13386436D01*
X10603158Y-13386436D02*
X10593634Y-13395960D01*
X10593634Y-13395960D02*
X10574586Y-13405484D01*
X10574586Y-13405484D02*
X10555539Y-13405484D01*
X10555539Y-13405484D02*
X10536491Y-13395960D01*
X10536491Y-13395960D02*
X10526967Y-13386436D01*
X10526967Y-13386436D02*
X10517444Y-13367388D01*
X10517444Y-13367388D02*
X10507920Y-13329293D01*
X10507920Y-13329293D02*
X10507920Y-13281674D01*
X10507920Y-13281674D02*
X10517444Y-13243579D01*
X10517444Y-13243579D02*
X10526967Y-13224531D01*
X10526967Y-13224531D02*
X10536491Y-13215008D01*
X10536491Y-13215008D02*
X10555539Y-13205484D01*
X10707920Y-13405484D02*
X10707920Y-13272150D01*
X10707920Y-13291198D02*
X10717444Y-13281674D01*
X10717444Y-13281674D02*
X10736491Y-13272150D01*
X10736491Y-13272150D02*
X10765063Y-13272150D01*
X10765063Y-13272150D02*
X10784110Y-13281674D01*
X10784110Y-13281674D02*
X10793634Y-13300722D01*
X10793634Y-13300722D02*
X10793634Y-13405484D01*
X10793634Y-13300722D02*
X10803158Y-13281674D01*
X10803158Y-13281674D02*
X10822205Y-13272150D01*
X10822205Y-13272150D02*
X10850777Y-13272150D01*
X10850777Y-13272150D02*
X10869825Y-13281674D01*
X10869825Y-13281674D02*
X10879348Y-13300722D01*
X10879348Y-13300722D02*
X10879348Y-13405484D01*
X10974586Y-13405484D02*
X10974586Y-13272150D01*
X10974586Y-13291198D02*
X10984110Y-13281674D01*
X10984110Y-13281674D02*
X11003158Y-13272150D01*
X11003158Y-13272150D02*
X11031729Y-13272150D01*
X11031729Y-13272150D02*
X11050777Y-13281674D01*
X11050777Y-13281674D02*
X11060301Y-13300722D01*
X11060301Y-13300722D02*
X11060301Y-13405484D01*
X11060301Y-13300722D02*
X11069825Y-13281674D01*
X11069825Y-13281674D02*
X11088872Y-13272150D01*
X11088872Y-13272150D02*
X11117444Y-13272150D01*
X11117444Y-13272150D02*
X11136491Y-13281674D01*
X11136491Y-13281674D02*
X11146015Y-13300722D01*
X11146015Y-13300722D02*
X11146015Y-13405484D01*
X11536491Y-13195960D02*
X11365063Y-13453103D01*
X11793634Y-13205484D02*
X11812682Y-13205484D01*
X11812682Y-13205484D02*
X11831729Y-13215008D01*
X11831729Y-13215008D02*
X11841253Y-13224531D01*
X11841253Y-13224531D02*
X11850777Y-13243579D01*
X11850777Y-13243579D02*
X11860301Y-13281674D01*
X11860301Y-13281674D02*
X11860301Y-13329293D01*
X11860301Y-13329293D02*
X11850777Y-13367388D01*
X11850777Y-13367388D02*
X11841253Y-13386436D01*
X11841253Y-13386436D02*
X11831729Y-13395960D01*
X11831729Y-13395960D02*
X11812682Y-13405484D01*
X11812682Y-13405484D02*
X11793634Y-13405484D01*
X11793634Y-13405484D02*
X11774586Y-13395960D01*
X11774586Y-13395960D02*
X11765063Y-13386436D01*
X11765063Y-13386436D02*
X11755539Y-13367388D01*
X11755539Y-13367388D02*
X11746015Y-13329293D01*
X11746015Y-13329293D02*
X11746015Y-13281674D01*
X11746015Y-13281674D02*
X11755539Y-13243579D01*
X11755539Y-13243579D02*
X11765063Y-13224531D01*
X11765063Y-13224531D02*
X11774586Y-13215008D01*
X11774586Y-13215008D02*
X11793634Y-13205484D01*
X11946015Y-13386436D02*
X11955539Y-13395960D01*
X11955539Y-13395960D02*
X11946015Y-13405484D01*
X11946015Y-13405484D02*
X11936491Y-13395960D01*
X11936491Y-13395960D02*
X11946015Y-13386436D01*
X11946015Y-13386436D02*
X11946015Y-13405484D01*
X12079348Y-13205484D02*
X12098396Y-13205484D01*
X12098396Y-13205484D02*
X12117444Y-13215008D01*
X12117444Y-13215008D02*
X12126967Y-13224531D01*
X12126967Y-13224531D02*
X12136491Y-13243579D01*
X12136491Y-13243579D02*
X12146015Y-13281674D01*
X12146015Y-13281674D02*
X12146015Y-13329293D01*
X12146015Y-13329293D02*
X12136491Y-13367388D01*
X12136491Y-13367388D02*
X12126967Y-13386436D01*
X12126967Y-13386436D02*
X12117444Y-13395960D01*
X12117444Y-13395960D02*
X12098396Y-13405484D01*
X12098396Y-13405484D02*
X12079348Y-13405484D01*
X12079348Y-13405484D02*
X12060301Y-13395960D01*
X12060301Y-13395960D02*
X12050777Y-13386436D01*
X12050777Y-13386436D02*
X12041253Y-13367388D01*
X12041253Y-13367388D02*
X12031729Y-13329293D01*
X12031729Y-13329293D02*
X12031729Y-13281674D01*
X12031729Y-13281674D02*
X12041253Y-13243579D01*
X12041253Y-13243579D02*
X12050777Y-13224531D01*
X12050777Y-13224531D02*
X12060301Y-13215008D01*
X12060301Y-13215008D02*
X12079348Y-13205484D01*
X12260301Y-13291198D02*
X12241253Y-13281674D01*
X12241253Y-13281674D02*
X12231729Y-13272150D01*
X12231729Y-13272150D02*
X12222206Y-13253103D01*
X12222206Y-13253103D02*
X12222206Y-13243579D01*
X12222206Y-13243579D02*
X12231729Y-13224531D01*
X12231729Y-13224531D02*
X12241253Y-13215008D01*
X12241253Y-13215008D02*
X12260301Y-13205484D01*
X12260301Y-13205484D02*
X12298396Y-13205484D01*
X12298396Y-13205484D02*
X12317444Y-13215008D01*
X12317444Y-13215008D02*
X12326967Y-13224531D01*
X12326967Y-13224531D02*
X12336491Y-13243579D01*
X12336491Y-13243579D02*
X12336491Y-13253103D01*
X12336491Y-13253103D02*
X12326967Y-13272150D01*
X12326967Y-13272150D02*
X12317444Y-13281674D01*
X12317444Y-13281674D02*
X12298396Y-13291198D01*
X12298396Y-13291198D02*
X12260301Y-13291198D01*
X12260301Y-13291198D02*
X12241253Y-13300722D01*
X12241253Y-13300722D02*
X12231729Y-13310246D01*
X12231729Y-13310246D02*
X12222206Y-13329293D01*
X12222206Y-13329293D02*
X12222206Y-13367388D01*
X12222206Y-13367388D02*
X12231729Y-13386436D01*
X12231729Y-13386436D02*
X12241253Y-13395960D01*
X12241253Y-13395960D02*
X12260301Y-13405484D01*
X12260301Y-13405484D02*
X12298396Y-13405484D01*
X12298396Y-13405484D02*
X12317444Y-13395960D01*
X12317444Y-13395960D02*
X12326967Y-13386436D01*
X12326967Y-13386436D02*
X12336491Y-13367388D01*
X12336491Y-13367388D02*
X12336491Y-13329293D01*
X12336491Y-13329293D02*
X12326967Y-13310246D01*
X12326967Y-13310246D02*
X12317444Y-13300722D01*
X12317444Y-13300722D02*
X12298396Y-13291198D01*
X12507920Y-13205484D02*
X12469825Y-13205484D01*
X12469825Y-13205484D02*
X12450777Y-13215008D01*
X12450777Y-13215008D02*
X12441253Y-13224531D01*
X12441253Y-13224531D02*
X12422206Y-13253103D01*
X12422206Y-13253103D02*
X12412682Y-13291198D01*
X12412682Y-13291198D02*
X12412682Y-13367388D01*
X12412682Y-13367388D02*
X12422206Y-13386436D01*
X12422206Y-13386436D02*
X12431729Y-13395960D01*
X12431729Y-13395960D02*
X12450777Y-13405484D01*
X12450777Y-13405484D02*
X12488872Y-13405484D01*
X12488872Y-13405484D02*
X12507920Y-13395960D01*
X12507920Y-13395960D02*
X12517444Y-13386436D01*
X12517444Y-13386436D02*
X12526967Y-13367388D01*
X12526967Y-13367388D02*
X12526967Y-13319769D01*
X12526967Y-13319769D02*
X12517444Y-13300722D01*
X12517444Y-13300722D02*
X12507920Y-13291198D01*
X12507920Y-13291198D02*
X12488872Y-13281674D01*
X12488872Y-13281674D02*
X12450777Y-13281674D01*
X12450777Y-13281674D02*
X12431729Y-13291198D01*
X12431729Y-13291198D02*
X12422206Y-13300722D01*
X12422206Y-13300722D02*
X12412682Y-13319769D01*
X12698396Y-13205484D02*
X12660301Y-13205484D01*
X12660301Y-13205484D02*
X12641253Y-13215008D01*
X12641253Y-13215008D02*
X12631729Y-13224531D01*
X12631729Y-13224531D02*
X12612682Y-13253103D01*
X12612682Y-13253103D02*
X12603158Y-13291198D01*
X12603158Y-13291198D02*
X12603158Y-13367388D01*
X12603158Y-13367388D02*
X12612682Y-13386436D01*
X12612682Y-13386436D02*
X12622206Y-13395960D01*
X12622206Y-13395960D02*
X12641253Y-13405484D01*
X12641253Y-13405484D02*
X12679348Y-13405484D01*
X12679348Y-13405484D02*
X12698396Y-13395960D01*
X12698396Y-13395960D02*
X12707920Y-13386436D01*
X12707920Y-13386436D02*
X12717444Y-13367388D01*
X12717444Y-13367388D02*
X12717444Y-13319769D01*
X12717444Y-13319769D02*
X12707920Y-13300722D01*
X12707920Y-13300722D02*
X12698396Y-13291198D01*
X12698396Y-13291198D02*
X12679348Y-13281674D01*
X12679348Y-13281674D02*
X12641253Y-13281674D01*
X12641253Y-13281674D02*
X12622206Y-13291198D01*
X12622206Y-13291198D02*
X12612682Y-13300722D01*
X12612682Y-13300722D02*
X12603158Y-13319769D01*
X12793634Y-13205484D02*
X12793634Y-13243579D01*
X12869825Y-13205484D02*
X12869825Y-13243579D01*
X13165063Y-13481674D02*
X13155539Y-13472150D01*
X13155539Y-13472150D02*
X13136491Y-13443579D01*
X13136491Y-13443579D02*
X13126968Y-13424531D01*
X13126968Y-13424531D02*
X13117444Y-13395960D01*
X13117444Y-13395960D02*
X13107920Y-13348341D01*
X13107920Y-13348341D02*
X13107920Y-13310246D01*
X13107920Y-13310246D02*
X13117444Y-13262627D01*
X13117444Y-13262627D02*
X13126968Y-13234055D01*
X13126968Y-13234055D02*
X13136491Y-13215008D01*
X13136491Y-13215008D02*
X13155539Y-13186436D01*
X13155539Y-13186436D02*
X13165063Y-13176912D01*
X13326968Y-13272150D02*
X13326968Y-13405484D01*
X13279348Y-13195960D02*
X13231729Y-13338817D01*
X13231729Y-13338817D02*
X13355539Y-13338817D01*
X13584110Y-13405484D02*
X13584110Y-13205484D01*
X13669825Y-13405484D02*
X13669825Y-13300722D01*
X13669825Y-13300722D02*
X13660301Y-13281674D01*
X13660301Y-13281674D02*
X13641253Y-13272150D01*
X13641253Y-13272150D02*
X13612682Y-13272150D01*
X13612682Y-13272150D02*
X13593634Y-13281674D01*
X13593634Y-13281674D02*
X13584110Y-13291198D01*
X13793634Y-13405484D02*
X13774587Y-13395960D01*
X13774587Y-13395960D02*
X13765063Y-13386436D01*
X13765063Y-13386436D02*
X13755539Y-13367388D01*
X13755539Y-13367388D02*
X13755539Y-13310246D01*
X13755539Y-13310246D02*
X13765063Y-13291198D01*
X13765063Y-13291198D02*
X13774587Y-13281674D01*
X13774587Y-13281674D02*
X13793634Y-13272150D01*
X13793634Y-13272150D02*
X13822206Y-13272150D01*
X13822206Y-13272150D02*
X13841253Y-13281674D01*
X13841253Y-13281674D02*
X13850777Y-13291198D01*
X13850777Y-13291198D02*
X13860301Y-13310246D01*
X13860301Y-13310246D02*
X13860301Y-13367388D01*
X13860301Y-13367388D02*
X13850777Y-13386436D01*
X13850777Y-13386436D02*
X13841253Y-13395960D01*
X13841253Y-13395960D02*
X13822206Y-13405484D01*
X13822206Y-13405484D02*
X13793634Y-13405484D01*
X13974587Y-13405484D02*
X13955539Y-13395960D01*
X13955539Y-13395960D02*
X13946015Y-13376912D01*
X13946015Y-13376912D02*
X13946015Y-13205484D01*
X14126968Y-13395960D02*
X14107920Y-13405484D01*
X14107920Y-13405484D02*
X14069825Y-13405484D01*
X14069825Y-13405484D02*
X14050777Y-13395960D01*
X14050777Y-13395960D02*
X14041253Y-13376912D01*
X14041253Y-13376912D02*
X14041253Y-13300722D01*
X14041253Y-13300722D02*
X14050777Y-13281674D01*
X14050777Y-13281674D02*
X14069825Y-13272150D01*
X14069825Y-13272150D02*
X14107920Y-13272150D01*
X14107920Y-13272150D02*
X14126968Y-13281674D01*
X14126968Y-13281674D02*
X14136491Y-13300722D01*
X14136491Y-13300722D02*
X14136491Y-13319769D01*
X14136491Y-13319769D02*
X14041253Y-13338817D01*
X14212682Y-13395960D02*
X14231730Y-13405484D01*
X14231730Y-13405484D02*
X14269825Y-13405484D01*
X14269825Y-13405484D02*
X14288872Y-13395960D01*
X14288872Y-13395960D02*
X14298396Y-13376912D01*
X14298396Y-13376912D02*
X14298396Y-13367388D01*
X14298396Y-13367388D02*
X14288872Y-13348341D01*
X14288872Y-13348341D02*
X14269825Y-13338817D01*
X14269825Y-13338817D02*
X14241253Y-13338817D01*
X14241253Y-13338817D02*
X14222206Y-13329293D01*
X14222206Y-13329293D02*
X14212682Y-13310246D01*
X14212682Y-13310246D02*
X14212682Y-13300722D01*
X14212682Y-13300722D02*
X14222206Y-13281674D01*
X14222206Y-13281674D02*
X14241253Y-13272150D01*
X14241253Y-13272150D02*
X14269825Y-13272150D01*
X14269825Y-13272150D02*
X14288872Y-13281674D01*
X14365063Y-13481674D02*
X14374587Y-13472150D01*
X14374587Y-13472150D02*
X14393634Y-13443579D01*
X14393634Y-13443579D02*
X14403158Y-13424531D01*
X14403158Y-13424531D02*
X14412682Y-13395960D01*
X14412682Y-13395960D02*
X14422206Y-13348341D01*
X14422206Y-13348341D02*
X14422206Y-13310246D01*
X14422206Y-13310246D02*
X14412682Y-13262627D01*
X14412682Y-13262627D02*
X14403158Y-13234055D01*
X14403158Y-13234055D02*
X14393634Y-13215008D01*
X14393634Y-13215008D02*
X14374587Y-13186436D01*
X14374587Y-13186436D02*
X14365063Y-13176912D01*
X14726968Y-13481674D02*
X14717444Y-13472150D01*
X14717444Y-13472150D02*
X14698396Y-13443579D01*
X14698396Y-13443579D02*
X14688872Y-13424531D01*
X14688872Y-13424531D02*
X14679349Y-13395960D01*
X14679349Y-13395960D02*
X14669825Y-13348341D01*
X14669825Y-13348341D02*
X14669825Y-13310246D01*
X14669825Y-13310246D02*
X14679349Y-13262627D01*
X14679349Y-13262627D02*
X14688872Y-13234055D01*
X14688872Y-13234055D02*
X14698396Y-13215008D01*
X14698396Y-13215008D02*
X14717444Y-13186436D01*
X14717444Y-13186436D02*
X14726968Y-13176912D01*
X14803158Y-13272150D02*
X14803158Y-13405484D01*
X14803158Y-13291198D02*
X14812682Y-13281674D01*
X14812682Y-13281674D02*
X14831730Y-13272150D01*
X14831730Y-13272150D02*
X14860301Y-13272150D01*
X14860301Y-13272150D02*
X14879349Y-13281674D01*
X14879349Y-13281674D02*
X14888872Y-13300722D01*
X14888872Y-13300722D02*
X14888872Y-13405484D01*
X15012682Y-13405484D02*
X14993634Y-13395960D01*
X14993634Y-13395960D02*
X14984111Y-13386436D01*
X14984111Y-13386436D02*
X14974587Y-13367388D01*
X14974587Y-13367388D02*
X14974587Y-13310246D01*
X14974587Y-13310246D02*
X14984111Y-13291198D01*
X14984111Y-13291198D02*
X14993634Y-13281674D01*
X14993634Y-13281674D02*
X15012682Y-13272150D01*
X15012682Y-13272150D02*
X15041253Y-13272150D01*
X15041253Y-13272150D02*
X15060301Y-13281674D01*
X15060301Y-13281674D02*
X15069825Y-13291198D01*
X15069825Y-13291198D02*
X15079349Y-13310246D01*
X15079349Y-13310246D02*
X15079349Y-13367388D01*
X15079349Y-13367388D02*
X15069825Y-13386436D01*
X15069825Y-13386436D02*
X15060301Y-13395960D01*
X15060301Y-13395960D02*
X15041253Y-13405484D01*
X15041253Y-13405484D02*
X15012682Y-13405484D01*
X15136492Y-13272150D02*
X15212682Y-13272150D01*
X15165063Y-13205484D02*
X15165063Y-13376912D01*
X15165063Y-13376912D02*
X15174587Y-13395960D01*
X15174587Y-13395960D02*
X15193634Y-13405484D01*
X15193634Y-13405484D02*
X15212682Y-13405484D01*
X15431730Y-13272150D02*
X15431730Y-13472150D01*
X15431730Y-13281674D02*
X15450777Y-13272150D01*
X15450777Y-13272150D02*
X15488873Y-13272150D01*
X15488873Y-13272150D02*
X15507920Y-13281674D01*
X15507920Y-13281674D02*
X15517444Y-13291198D01*
X15517444Y-13291198D02*
X15526968Y-13310246D01*
X15526968Y-13310246D02*
X15526968Y-13367388D01*
X15526968Y-13367388D02*
X15517444Y-13386436D01*
X15517444Y-13386436D02*
X15507920Y-13395960D01*
X15507920Y-13395960D02*
X15488873Y-13405484D01*
X15488873Y-13405484D02*
X15450777Y-13405484D01*
X15450777Y-13405484D02*
X15431730Y-13395960D01*
X15641253Y-13405484D02*
X15622206Y-13395960D01*
X15622206Y-13395960D02*
X15612682Y-13376912D01*
X15612682Y-13376912D02*
X15612682Y-13205484D01*
X15803158Y-13405484D02*
X15803158Y-13300722D01*
X15803158Y-13300722D02*
X15793634Y-13281674D01*
X15793634Y-13281674D02*
X15774587Y-13272150D01*
X15774587Y-13272150D02*
X15736492Y-13272150D01*
X15736492Y-13272150D02*
X15717444Y-13281674D01*
X15803158Y-13395960D02*
X15784111Y-13405484D01*
X15784111Y-13405484D02*
X15736492Y-13405484D01*
X15736492Y-13405484D02*
X15717444Y-13395960D01*
X15717444Y-13395960D02*
X15707920Y-13376912D01*
X15707920Y-13376912D02*
X15707920Y-13357865D01*
X15707920Y-13357865D02*
X15717444Y-13338817D01*
X15717444Y-13338817D02*
X15736492Y-13329293D01*
X15736492Y-13329293D02*
X15784111Y-13329293D01*
X15784111Y-13329293D02*
X15803158Y-13319769D01*
X15869825Y-13272150D02*
X15946015Y-13272150D01*
X15898396Y-13205484D02*
X15898396Y-13376912D01*
X15898396Y-13376912D02*
X15907920Y-13395960D01*
X15907920Y-13395960D02*
X15926968Y-13405484D01*
X15926968Y-13405484D02*
X15946015Y-13405484D01*
X16088873Y-13395960D02*
X16069825Y-13405484D01*
X16069825Y-13405484D02*
X16031730Y-13405484D01*
X16031730Y-13405484D02*
X16012682Y-13395960D01*
X16012682Y-13395960D02*
X16003158Y-13376912D01*
X16003158Y-13376912D02*
X16003158Y-13300722D01*
X16003158Y-13300722D02*
X16012682Y-13281674D01*
X16012682Y-13281674D02*
X16031730Y-13272150D01*
X16031730Y-13272150D02*
X16069825Y-13272150D01*
X16069825Y-13272150D02*
X16088873Y-13281674D01*
X16088873Y-13281674D02*
X16098396Y-13300722D01*
X16098396Y-13300722D02*
X16098396Y-13319769D01*
X16098396Y-13319769D02*
X16003158Y-13338817D01*
X16269825Y-13405484D02*
X16269825Y-13205484D01*
X16269825Y-13395960D02*
X16250777Y-13405484D01*
X16250777Y-13405484D02*
X16212682Y-13405484D01*
X16212682Y-13405484D02*
X16193634Y-13395960D01*
X16193634Y-13395960D02*
X16184111Y-13386436D01*
X16184111Y-13386436D02*
X16174587Y-13367388D01*
X16174587Y-13367388D02*
X16174587Y-13310246D01*
X16174587Y-13310246D02*
X16184111Y-13291198D01*
X16184111Y-13291198D02*
X16193634Y-13281674D01*
X16193634Y-13281674D02*
X16212682Y-13272150D01*
X16212682Y-13272150D02*
X16250777Y-13272150D01*
X16250777Y-13272150D02*
X16269825Y-13281674D01*
X16346015Y-13481674D02*
X16355539Y-13472150D01*
X16355539Y-13472150D02*
X16374587Y-13443579D01*
X16374587Y-13443579D02*
X16384111Y-13424531D01*
X16384111Y-13424531D02*
X16393634Y-13395960D01*
X16393634Y-13395960D02*
X16403158Y-13348341D01*
X16403158Y-13348341D02*
X16403158Y-13310246D01*
X16403158Y-13310246D02*
X16393634Y-13262627D01*
X16393634Y-13262627D02*
X16384111Y-13234055D01*
X16384111Y-13234055D02*
X16374587Y-13215008D01*
X16374587Y-13215008D02*
X16355539Y-13186436D01*
X16355539Y-13186436D02*
X16346015Y-13176912D01*
M02*
