%TF.GenerationSoftware,KiCad,Pcbnew,9.0.1*%
%TF.CreationDate,2025-08-05T19:10:54+03:00*%
%TF.ProjectId,com_board,636f6d5f-626f-4617-9264-2e6b69636164,rev?*%
%TF.SameCoordinates,Original*%
%TF.FileFunction,Drillmap*%
%TF.FilePolarity,Positive*%
%FSLAX45Y45*%
G04 Gerber Fmt 4.5, Leading zero omitted, Abs format (unit mm)*
G04 Created by KiCad (PCBNEW 9.0.1) date 2025-08-05 19:10:54*
%MOMM*%
%LPD*%
G01*
G04 APERTURE LIST*
%ADD10C,0.200000*%
%ADD11C,0.100000*%
G04 APERTURE END LIST*
D10*
X15000000Y-8600000D02*
X10000000Y-8600000D01*
X9600000Y-9000000D02*
G75*
G02*
X10000000Y-8600000I400000J0D01*
G01*
X10000000Y-12400000D02*
G75*
G02*
X9600000Y-12000000I0J400000D01*
G01*
X15400000Y-12000000D02*
G75*
G02*
X15000000Y-12400000I-400000J0D01*
G01*
X15000000Y-8600000D02*
G75*
G02*
X15400000Y-9000000I0J-400000D01*
G01*
X10000000Y-12400000D02*
X15000000Y-12400000D01*
X9600000Y-12000000D02*
X9600000Y-9000000D01*
X15400000Y-12000000D02*
X15400000Y-9000000D01*
D11*
X9698500Y-9446000D02*
X9728500Y-9476000D01*
X9728500Y-9446000D02*
X9698500Y-9476000D01*
X9731000Y-11691000D02*
X9761000Y-11721000D01*
X9761000Y-11691000D02*
X9731000Y-11721000D01*
X9731000Y-11598000D02*
X9761000Y-11628000D01*
X9761000Y-11598000D02*
X9731000Y-11628000D01*
X9816000Y-9447000D02*
X9846000Y-9477000D01*
X9846000Y-9447000D02*
X9816000Y-9477000D01*
X9817000Y-11598000D02*
X9847000Y-11628000D01*
X9847000Y-11598000D02*
X9817000Y-11628000D01*
X9817000Y-11691000D02*
X9847000Y-11721000D01*
X9847000Y-11691000D02*
X9817000Y-11721000D01*
X9899000Y-11598000D02*
X9929000Y-11628000D01*
X9929000Y-11598000D02*
X9899000Y-11628000D01*
X9899000Y-11691000D02*
X9929000Y-11721000D01*
X9929000Y-11691000D02*
X9899000Y-11721000D01*
X9984000Y-11690000D02*
X10014000Y-11720000D01*
X10014000Y-11690000D02*
X9984000Y-11720000D01*
X9984000Y-11597000D02*
X10014000Y-11627000D01*
X10014000Y-11597000D02*
X9984000Y-11627000D01*
X10070000Y-11597000D02*
X10100000Y-11627000D01*
X10100000Y-11597000D02*
X10070000Y-11627000D01*
X10070000Y-11690000D02*
X10100000Y-11720000D01*
X10100000Y-11690000D02*
X10070000Y-11720000D01*
X10099000Y-9479000D02*
X10129000Y-9509000D01*
X10129000Y-9479000D02*
X10099000Y-9509000D01*
X10151000Y-11593000D02*
X10181000Y-11623000D01*
X10181000Y-11593000D02*
X10151000Y-11623000D01*
X10151000Y-11686000D02*
X10181000Y-11716000D01*
X10181000Y-11686000D02*
X10151000Y-11716000D01*
X10160000Y-11341000D02*
X10190000Y-11371000D01*
X10190000Y-11341000D02*
X10160000Y-11371000D01*
X10171000Y-9358000D02*
X10201000Y-9388000D01*
X10201000Y-9358000D02*
X10171000Y-9388000D01*
X10237000Y-9202000D02*
X10267000Y-9232000D01*
X10267000Y-9202000D02*
X10237000Y-9232000D01*
X10237000Y-9109000D02*
X10267000Y-9139000D01*
X10267000Y-9109000D02*
X10237000Y-9139000D01*
X10282000Y-9664000D02*
X10312000Y-9694000D01*
X10312000Y-9664000D02*
X10282000Y-9694000D01*
X10323000Y-9109000D02*
X10353000Y-9139000D01*
X10353000Y-9109000D02*
X10323000Y-9139000D01*
X10323000Y-9202000D02*
X10353000Y-9232000D01*
X10353000Y-9202000D02*
X10323000Y-9232000D01*
X10399000Y-9108000D02*
X10429000Y-9138000D01*
X10429000Y-9108000D02*
X10399000Y-9138000D01*
X10399000Y-9201000D02*
X10429000Y-9231000D01*
X10429000Y-9201000D02*
X10399000Y-9231000D01*
X10476000Y-9660000D02*
X10506000Y-9690000D01*
X10506000Y-9660000D02*
X10476000Y-9690000D01*
X10485000Y-9108000D02*
X10515000Y-9138000D01*
X10515000Y-9108000D02*
X10485000Y-9138000D01*
X10485000Y-9201000D02*
X10515000Y-9231000D01*
X10515000Y-9201000D02*
X10485000Y-9231000D01*
X10562000Y-9108000D02*
X10592000Y-9138000D01*
X10592000Y-9108000D02*
X10562000Y-9138000D01*
X10562000Y-9201000D02*
X10592000Y-9231000D01*
X10592000Y-9201000D02*
X10562000Y-9231000D01*
X10569000Y-8786000D02*
X10599000Y-8816000D01*
X10599000Y-8786000D02*
X10569000Y-8816000D01*
X10569000Y-8879000D02*
X10599000Y-8909000D01*
X10599000Y-8879000D02*
X10569000Y-8909000D01*
X10648000Y-9108000D02*
X10678000Y-9138000D01*
X10678000Y-9108000D02*
X10648000Y-9138000D01*
X10648000Y-9201000D02*
X10678000Y-9231000D01*
X10678000Y-9201000D02*
X10648000Y-9231000D01*
X10653000Y-11684000D02*
X10683000Y-11714000D01*
X10683000Y-11684000D02*
X10653000Y-11714000D01*
X10653000Y-11591000D02*
X10683000Y-11621000D01*
X10683000Y-11591000D02*
X10653000Y-11621000D01*
X10655000Y-8786000D02*
X10685000Y-8816000D01*
X10685000Y-8786000D02*
X10655000Y-8816000D01*
X10655000Y-8879000D02*
X10685000Y-8909000D01*
X10685000Y-8879000D02*
X10655000Y-8909000D01*
X10678000Y-11241000D02*
X10708000Y-11271000D01*
X10708000Y-11241000D02*
X10678000Y-11271000D01*
X10694000Y-9664000D02*
X10724000Y-9694000D01*
X10724000Y-9664000D02*
X10694000Y-9694000D01*
X10732000Y-8786000D02*
X10762000Y-8816000D01*
X10762000Y-8786000D02*
X10732000Y-8816000D01*
X10732000Y-8879000D02*
X10762000Y-8909000D01*
X10762000Y-8879000D02*
X10732000Y-8909000D01*
X10734000Y-11685000D02*
X10764000Y-11715000D01*
X10764000Y-11685000D02*
X10734000Y-11715000D01*
X10734000Y-11592000D02*
X10764000Y-11622000D01*
X10764000Y-11592000D02*
X10734000Y-11622000D01*
X10737000Y-9202000D02*
X10767000Y-9232000D01*
X10767000Y-9202000D02*
X10737000Y-9232000D01*
X10737000Y-9109000D02*
X10767000Y-9139000D01*
X10767000Y-9109000D02*
X10737000Y-9139000D01*
X10818000Y-8786000D02*
X10848000Y-8816000D01*
X10848000Y-8786000D02*
X10818000Y-8816000D01*
X10818000Y-8879000D02*
X10848000Y-8909000D01*
X10848000Y-8879000D02*
X10818000Y-8909000D01*
X10820000Y-11592000D02*
X10850000Y-11622000D01*
X10850000Y-11592000D02*
X10820000Y-11622000D01*
X10820000Y-11685000D02*
X10850000Y-11715000D01*
X10850000Y-11685000D02*
X10820000Y-11715000D01*
X10823000Y-9109000D02*
X10853000Y-9139000D01*
X10853000Y-9109000D02*
X10823000Y-9139000D01*
X10823000Y-9202000D02*
X10853000Y-9232000D01*
X10853000Y-9202000D02*
X10823000Y-9232000D01*
X10896000Y-11591000D02*
X10926000Y-11621000D01*
X10926000Y-11591000D02*
X10896000Y-11621000D01*
X10896000Y-11684000D02*
X10926000Y-11714000D01*
X10926000Y-11684000D02*
X10896000Y-11714000D01*
X10899000Y-9108000D02*
X10929000Y-9138000D01*
X10929000Y-9108000D02*
X10899000Y-9138000D01*
X10899000Y-9201000D02*
X10929000Y-9231000D01*
X10929000Y-9201000D02*
X10899000Y-9231000D01*
X10932000Y-11828000D02*
X10962000Y-11858000D01*
X10962000Y-11828000D02*
X10932000Y-11858000D01*
X10932000Y-11921000D02*
X10962000Y-11951000D01*
X10962000Y-11921000D02*
X10932000Y-11951000D01*
X10982000Y-11591000D02*
X11012000Y-11621000D01*
X11012000Y-11591000D02*
X10982000Y-11621000D01*
X10982000Y-11684000D02*
X11012000Y-11714000D01*
X11012000Y-11684000D02*
X10982000Y-11714000D01*
X10985000Y-9108000D02*
X11015000Y-9138000D01*
X11015000Y-9108000D02*
X10985000Y-9138000D01*
X10985000Y-9201000D02*
X11015000Y-9231000D01*
X11015000Y-9201000D02*
X10985000Y-9231000D01*
X11018000Y-11828000D02*
X11048000Y-11858000D01*
X11048000Y-11828000D02*
X11018000Y-11858000D01*
X11018000Y-11921000D02*
X11048000Y-11951000D01*
X11048000Y-11921000D02*
X11018000Y-11951000D01*
X11057000Y-9555000D02*
X11087000Y-9585000D01*
X11087000Y-9555000D02*
X11057000Y-9585000D01*
X11059000Y-11591000D02*
X11089000Y-11621000D01*
X11089000Y-11591000D02*
X11059000Y-11621000D01*
X11059000Y-11684000D02*
X11089000Y-11714000D01*
X11089000Y-11684000D02*
X11059000Y-11714000D01*
X11062000Y-9108000D02*
X11092000Y-9138000D01*
X11092000Y-9108000D02*
X11062000Y-9138000D01*
X11062000Y-9201000D02*
X11092000Y-9231000D01*
X11092000Y-9201000D02*
X11062000Y-9231000D01*
X11095000Y-11828000D02*
X11125000Y-11858000D01*
X11125000Y-11828000D02*
X11095000Y-11858000D01*
X11095000Y-11921000D02*
X11125000Y-11951000D01*
X11125000Y-11921000D02*
X11095000Y-11951000D01*
X11115000Y-9944000D02*
X11145000Y-9974000D01*
X11145000Y-9944000D02*
X11115000Y-9974000D01*
X11145000Y-11591000D02*
X11175000Y-11621000D01*
X11175000Y-11591000D02*
X11145000Y-11621000D01*
X11145000Y-11684000D02*
X11175000Y-11714000D01*
X11175000Y-11684000D02*
X11145000Y-11714000D01*
X11148000Y-9108000D02*
X11178000Y-9138000D01*
X11178000Y-9108000D02*
X11148000Y-9138000D01*
X11148000Y-9201000D02*
X11178000Y-9231000D01*
X11178000Y-9201000D02*
X11148000Y-9231000D01*
X11181000Y-11828000D02*
X11211000Y-11858000D01*
X11211000Y-11828000D02*
X11181000Y-11858000D01*
X11181000Y-11921000D02*
X11211000Y-11951000D01*
X11211000Y-11921000D02*
X11181000Y-11951000D01*
X11230000Y-10853000D02*
X11260000Y-10883000D01*
X11260000Y-10853000D02*
X11230000Y-10883000D01*
X11230000Y-10939000D02*
X11260000Y-10969000D01*
X11260000Y-10939000D02*
X11230000Y-10969000D01*
X11230000Y-11431000D02*
X11260000Y-11461000D01*
X11260000Y-11431000D02*
X11230000Y-11461000D01*
X11231000Y-11015000D02*
X11261000Y-11045000D01*
X11261000Y-11015000D02*
X11231000Y-11045000D01*
X11231000Y-11101000D02*
X11261000Y-11131000D01*
X11261000Y-11101000D02*
X11231000Y-11131000D01*
X11231000Y-11178000D02*
X11261000Y-11208000D01*
X11261000Y-11178000D02*
X11231000Y-11208000D01*
X11231000Y-11264000D02*
X11261000Y-11294000D01*
X11261000Y-11264000D02*
X11231000Y-11294000D01*
X11231000Y-11507000D02*
X11261000Y-11537000D01*
X11261000Y-11507000D02*
X11231000Y-11537000D01*
X11231000Y-11593000D02*
X11261000Y-11623000D01*
X11261000Y-11593000D02*
X11231000Y-11623000D01*
X11232000Y-9197000D02*
X11262000Y-9227000D01*
X11262000Y-9197000D02*
X11232000Y-9227000D01*
X11233000Y-9284000D02*
X11263000Y-9314000D01*
X11263000Y-9284000D02*
X11233000Y-9314000D01*
X11233000Y-9437000D02*
X11263000Y-9467000D01*
X11263000Y-9437000D02*
X11233000Y-9467000D01*
X11233000Y-9856000D02*
X11263000Y-9886000D01*
X11263000Y-9856000D02*
X11233000Y-9886000D01*
X11233000Y-9942000D02*
X11263000Y-9972000D01*
X11263000Y-9942000D02*
X11233000Y-9972000D01*
X11233000Y-10205000D02*
X11263000Y-10235000D01*
X11263000Y-10205000D02*
X11233000Y-10235000D01*
X11234000Y-9107000D02*
X11264000Y-9137000D01*
X11264000Y-9107000D02*
X11234000Y-9137000D01*
X11234000Y-9599000D02*
X11264000Y-9629000D01*
X11264000Y-9599000D02*
X11234000Y-9629000D01*
X11234000Y-9676000D02*
X11264000Y-9706000D01*
X11264000Y-9676000D02*
X11234000Y-9706000D01*
X11234000Y-9762000D02*
X11264000Y-9792000D01*
X11264000Y-9762000D02*
X11234000Y-9792000D01*
X11234000Y-10018000D02*
X11264000Y-10048000D01*
X11264000Y-10018000D02*
X11234000Y-10048000D01*
X11234000Y-10104000D02*
X11264000Y-10134000D01*
X11264000Y-10104000D02*
X11234000Y-10134000D01*
X11234000Y-10596000D02*
X11264000Y-10626000D01*
X11264000Y-10596000D02*
X11234000Y-10626000D01*
X11234000Y-10673000D02*
X11264000Y-10703000D01*
X11264000Y-10673000D02*
X11234000Y-10703000D01*
X11234000Y-10759000D02*
X11264000Y-10789000D01*
X11264000Y-10759000D02*
X11234000Y-10789000D01*
X11236000Y-11687000D02*
X11266000Y-11717000D01*
X11266000Y-11687000D02*
X11236000Y-11717000D01*
X11319000Y-11694000D02*
X11349000Y-11724000D01*
X11349000Y-11694000D02*
X11319000Y-11724000D01*
X11323000Y-10853000D02*
X11353000Y-10883000D01*
X11353000Y-10853000D02*
X11323000Y-10883000D01*
X11323000Y-10939000D02*
X11353000Y-10969000D01*
X11353000Y-10939000D02*
X11323000Y-10969000D01*
X11323000Y-11431000D02*
X11353000Y-11461000D01*
X11353000Y-11431000D02*
X11323000Y-11461000D01*
X11324000Y-11015000D02*
X11354000Y-11045000D01*
X11354000Y-11015000D02*
X11324000Y-11045000D01*
X11324000Y-11101000D02*
X11354000Y-11131000D01*
X11354000Y-11101000D02*
X11324000Y-11131000D01*
X11324000Y-11178000D02*
X11354000Y-11208000D01*
X11354000Y-11178000D02*
X11324000Y-11208000D01*
X11324000Y-11264000D02*
X11354000Y-11294000D01*
X11354000Y-11264000D02*
X11324000Y-11294000D01*
X11324000Y-11507000D02*
X11354000Y-11537000D01*
X11354000Y-11507000D02*
X11324000Y-11537000D01*
X11324000Y-11593000D02*
X11354000Y-11623000D01*
X11354000Y-11593000D02*
X11324000Y-11623000D01*
X11326000Y-9437000D02*
X11356000Y-9467000D01*
X11356000Y-9437000D02*
X11326000Y-9467000D01*
X11326000Y-9856000D02*
X11356000Y-9886000D01*
X11356000Y-9856000D02*
X11326000Y-9886000D01*
X11326000Y-9942000D02*
X11356000Y-9972000D01*
X11356000Y-9942000D02*
X11326000Y-9972000D01*
X11326000Y-10205000D02*
X11356000Y-10235000D01*
X11356000Y-10205000D02*
X11326000Y-10235000D01*
X11327000Y-9107000D02*
X11357000Y-9137000D01*
X11357000Y-9107000D02*
X11327000Y-9137000D01*
X11327000Y-9285000D02*
X11357000Y-9315000D01*
X11357000Y-9285000D02*
X11327000Y-9315000D01*
X11327000Y-9599000D02*
X11357000Y-9629000D01*
X11357000Y-9599000D02*
X11327000Y-9629000D01*
X11327000Y-9676000D02*
X11357000Y-9706000D01*
X11357000Y-9676000D02*
X11327000Y-9706000D01*
X11327000Y-9762000D02*
X11357000Y-9792000D01*
X11357000Y-9762000D02*
X11327000Y-9792000D01*
X11327000Y-10018000D02*
X11357000Y-10048000D01*
X11357000Y-10018000D02*
X11327000Y-10048000D01*
X11327000Y-10104000D02*
X11357000Y-10134000D01*
X11357000Y-10104000D02*
X11327000Y-10134000D01*
X11327000Y-10596000D02*
X11357000Y-10626000D01*
X11357000Y-10596000D02*
X11327000Y-10626000D01*
X11327000Y-10673000D02*
X11357000Y-10703000D01*
X11357000Y-10673000D02*
X11327000Y-10703000D01*
X11327000Y-10759000D02*
X11357000Y-10789000D01*
X11357000Y-10759000D02*
X11327000Y-10789000D01*
X11328000Y-9198000D02*
X11358000Y-9228000D01*
X11358000Y-9198000D02*
X11328000Y-9228000D01*
X11629000Y-8745000D02*
X11659000Y-8775000D01*
X11659000Y-8745000D02*
X11629000Y-8775000D01*
X11629000Y-8838000D02*
X11659000Y-8868000D01*
X11659000Y-8838000D02*
X11629000Y-8868000D01*
X11636000Y-9024000D02*
X11666000Y-9054000D01*
X11666000Y-9024000D02*
X11636000Y-9054000D01*
X11715000Y-8745000D02*
X11745000Y-8775000D01*
X11745000Y-8745000D02*
X11715000Y-8775000D01*
X11715000Y-8838000D02*
X11745000Y-8868000D01*
X11745000Y-8838000D02*
X11715000Y-8868000D01*
X11792000Y-8745000D02*
X11822000Y-8775000D01*
X11822000Y-8745000D02*
X11792000Y-8775000D01*
X11792000Y-8838000D02*
X11822000Y-8868000D01*
X11822000Y-8838000D02*
X11792000Y-8868000D01*
X11812000Y-10471000D02*
X11842000Y-10501000D01*
X11842000Y-10471000D02*
X11812000Y-10501000D01*
X11813000Y-10391000D02*
X11843000Y-10421000D01*
X11843000Y-10391000D02*
X11813000Y-10421000D01*
X11835000Y-9676000D02*
X11865000Y-9706000D01*
X11865000Y-9676000D02*
X11835000Y-9706000D01*
X11835000Y-9769000D02*
X11865000Y-9799000D01*
X11865000Y-9769000D02*
X11835000Y-9799000D01*
X11845000Y-11695000D02*
X11875000Y-11725000D01*
X11875000Y-11695000D02*
X11845000Y-11725000D01*
X11845000Y-11788000D02*
X11875000Y-11818000D01*
X11875000Y-11788000D02*
X11845000Y-11818000D01*
X11878000Y-8745000D02*
X11908000Y-8775000D01*
X11908000Y-8745000D02*
X11878000Y-8775000D01*
X11878000Y-8838000D02*
X11908000Y-8868000D01*
X11908000Y-8838000D02*
X11878000Y-8868000D01*
X11880000Y-10731000D02*
X11910000Y-10761000D01*
X11910000Y-10731000D02*
X11880000Y-10761000D01*
X11921000Y-9676000D02*
X11951000Y-9706000D01*
X11951000Y-9676000D02*
X11921000Y-9706000D01*
X11921000Y-9769000D02*
X11951000Y-9799000D01*
X11951000Y-9769000D02*
X11921000Y-9799000D01*
X11924000Y-10457000D02*
X11954000Y-10487000D01*
X11954000Y-10457000D02*
X11924000Y-10487000D01*
X11931000Y-11695000D02*
X11961000Y-11725000D01*
X11961000Y-11695000D02*
X11931000Y-11725000D01*
X11931000Y-11788000D02*
X11961000Y-11818000D01*
X11961000Y-11788000D02*
X11931000Y-11818000D01*
X11987000Y-10523000D02*
X12017000Y-10553000D01*
X12017000Y-10523000D02*
X11987000Y-10553000D01*
X11994730Y-10438242D02*
X12024730Y-10468242D01*
X12024730Y-10438242D02*
X11994730Y-10468242D01*
X11998000Y-9676000D02*
X12028000Y-9706000D01*
X12028000Y-9676000D02*
X11998000Y-9706000D01*
X11998000Y-9769000D02*
X12028000Y-9799000D01*
X12028000Y-9769000D02*
X11998000Y-9799000D01*
X12002000Y-11059000D02*
X12032000Y-11089000D01*
X12032000Y-11059000D02*
X12002000Y-11089000D01*
X12008000Y-11695000D02*
X12038000Y-11725000D01*
X12038000Y-11695000D02*
X12008000Y-11725000D01*
X12008000Y-11788000D02*
X12038000Y-11818000D01*
X12038000Y-11788000D02*
X12008000Y-11818000D01*
X12024000Y-10377000D02*
X12054000Y-10407000D01*
X12054000Y-10377000D02*
X12024000Y-10407000D01*
X12068517Y-10972500D02*
X12098517Y-11002500D01*
X12098517Y-10972500D02*
X12068517Y-11002500D01*
X12084000Y-9676000D02*
X12114000Y-9706000D01*
X12114000Y-9676000D02*
X12084000Y-9706000D01*
X12084000Y-9769000D02*
X12114000Y-9799000D01*
X12114000Y-9769000D02*
X12084000Y-9799000D01*
X12094000Y-11695000D02*
X12124000Y-11725000D01*
X12124000Y-11695000D02*
X12094000Y-11725000D01*
X12094000Y-11788000D02*
X12124000Y-11818000D01*
X12124000Y-11788000D02*
X12094000Y-11818000D01*
X12206000Y-10837000D02*
X12236000Y-10867000D01*
X12236000Y-10837000D02*
X12206000Y-10867000D01*
X12309000Y-10158000D02*
X12339000Y-10188000D01*
X12339000Y-10158000D02*
X12309000Y-10188000D01*
X12364000Y-12277000D02*
X12394000Y-12307000D01*
X12394000Y-12277000D02*
X12364000Y-12307000D01*
X12365000Y-12167000D02*
X12395000Y-12197000D01*
X12395000Y-12167000D02*
X12365000Y-12197000D01*
X12440000Y-10947000D02*
X12470000Y-10977000D01*
X12470000Y-10947000D02*
X12440000Y-10977000D01*
X12443000Y-10055000D02*
X12473000Y-10085000D01*
X12473000Y-10055000D02*
X12443000Y-10085000D01*
X12452000Y-10817000D02*
X12482000Y-10847000D01*
X12482000Y-10817000D02*
X12452000Y-10847000D01*
X12463000Y-10406000D02*
X12493000Y-10436000D01*
X12493000Y-10406000D02*
X12463000Y-10436000D01*
X12467000Y-11062500D02*
X12497000Y-11092500D01*
X12497000Y-11062500D02*
X12467000Y-11092500D01*
X12467000Y-11151500D02*
X12497000Y-11181500D01*
X12497000Y-11151500D02*
X12467000Y-11181500D01*
X12467000Y-11240500D02*
X12497000Y-11270500D01*
X12497000Y-11240500D02*
X12467000Y-11270500D01*
X12469000Y-12278000D02*
X12499000Y-12308000D01*
X12499000Y-12278000D02*
X12469000Y-12308000D01*
X12470000Y-12168000D02*
X12500000Y-12198000D01*
X12500000Y-12168000D02*
X12470000Y-12198000D01*
X12492000Y-10468000D02*
X12522000Y-10498000D01*
X12522000Y-10468000D02*
X12492000Y-10498000D01*
X12502000Y-11626800D02*
X12532000Y-11656800D01*
X12532000Y-11626800D02*
X12502000Y-11656800D01*
X12502000Y-11692200D02*
X12532000Y-11722200D01*
X12532000Y-11692200D02*
X12502000Y-11722200D01*
X12502000Y-11757600D02*
X12532000Y-11787600D01*
X12532000Y-11757600D02*
X12502000Y-11787600D01*
X12502000Y-11823000D02*
X12532000Y-11853000D01*
X12532000Y-11823000D02*
X12502000Y-11853000D01*
X12502000Y-11888400D02*
X12532000Y-11918400D01*
X12532000Y-11888400D02*
X12502000Y-11918400D01*
X12502000Y-11953800D02*
X12532000Y-11983800D01*
X12532000Y-11953800D02*
X12502000Y-11983800D01*
X12535333Y-11262000D02*
X12565333Y-11292000D01*
X12565333Y-11262000D02*
X12535333Y-11292000D01*
X12535750Y-11030000D02*
X12565750Y-11060000D01*
X12565750Y-11030000D02*
X12535750Y-11060000D01*
X12550000Y-11098000D02*
X12580000Y-11128000D01*
X12580000Y-11098000D02*
X12550000Y-11128000D01*
X12550000Y-11191000D02*
X12580000Y-11221000D01*
X12580000Y-11191000D02*
X12550000Y-11221000D01*
X12553000Y-11568000D02*
X12583000Y-11598000D01*
X12583000Y-11568000D02*
X12553000Y-11598000D01*
X12563000Y-11985000D02*
X12593000Y-12015000D01*
X12593000Y-11985000D02*
X12563000Y-12015000D01*
X12567000Y-11809000D02*
X12597000Y-11839000D01*
X12597000Y-11809000D02*
X12567000Y-11839000D01*
X12581000Y-12278000D02*
X12611000Y-12308000D01*
X12611000Y-12278000D02*
X12581000Y-12308000D01*
X12582000Y-12168000D02*
X12612000Y-12198000D01*
X12612000Y-12168000D02*
X12582000Y-12198000D01*
X12586000Y-11488000D02*
X12616000Y-11518000D01*
X12616000Y-11488000D02*
X12586000Y-11518000D01*
X12589000Y-9784000D02*
X12619000Y-9814000D01*
X12619000Y-9784000D02*
X12589000Y-9814000D01*
X12609667Y-11262000D02*
X12639667Y-11292000D01*
X12639667Y-11262000D02*
X12609667Y-11292000D01*
X12625778Y-11985000D02*
X12655778Y-12015000D01*
X12655778Y-11985000D02*
X12625778Y-12015000D01*
X12637250Y-11030000D02*
X12667250Y-11060000D01*
X12667250Y-11030000D02*
X12637250Y-11060000D01*
X12673000Y-11488000D02*
X12703000Y-11518000D01*
X12703000Y-11488000D02*
X12673000Y-11518000D01*
X12675000Y-12280000D02*
X12705000Y-12310000D01*
X12705000Y-12280000D02*
X12675000Y-12310000D01*
X12676000Y-12170000D02*
X12706000Y-12200000D01*
X12706000Y-12170000D02*
X12676000Y-12200000D01*
X12684000Y-11262000D02*
X12714000Y-11292000D01*
X12714000Y-11262000D02*
X12684000Y-11292000D01*
X12688556Y-11985000D02*
X12718556Y-12015000D01*
X12718556Y-11985000D02*
X12688556Y-12015000D01*
X12704000Y-10175000D02*
X12734000Y-10205000D01*
X12734000Y-10175000D02*
X12704000Y-10205000D01*
X12738750Y-11030000D02*
X12768750Y-11060000D01*
X12768750Y-11030000D02*
X12738750Y-11060000D01*
X12748000Y-9781000D02*
X12778000Y-9811000D01*
X12778000Y-9781000D02*
X12748000Y-9811000D01*
X12751333Y-11985000D02*
X12781333Y-12015000D01*
X12781333Y-11985000D02*
X12751333Y-12015000D01*
X12758333Y-11262000D02*
X12788333Y-11292000D01*
X12788333Y-11262000D02*
X12758333Y-11292000D01*
X12760000Y-11337333D02*
X12790000Y-11367333D01*
X12790000Y-11337333D02*
X12760000Y-11367333D01*
X12760000Y-11412667D02*
X12790000Y-11442667D01*
X12790000Y-11412667D02*
X12760000Y-11442667D01*
X12760000Y-11488000D02*
X12790000Y-11518000D01*
X12790000Y-11488000D02*
X12760000Y-11518000D01*
X12761000Y-9598000D02*
X12791000Y-9628000D01*
X12791000Y-9598000D02*
X12761000Y-9628000D01*
X12781000Y-10916000D02*
X12811000Y-10946000D01*
X12811000Y-10916000D02*
X12781000Y-10946000D01*
X12781000Y-10979000D02*
X12811000Y-11009000D01*
X12811000Y-10979000D02*
X12781000Y-11009000D01*
X12787000Y-12280000D02*
X12817000Y-12310000D01*
X12817000Y-12280000D02*
X12787000Y-12310000D01*
X12788000Y-12170000D02*
X12818000Y-12200000D01*
X12818000Y-12170000D02*
X12788000Y-12200000D01*
X12790500Y-10106071D02*
X12820500Y-10136071D01*
X12820500Y-10106071D02*
X12790500Y-10136071D01*
X12802000Y-9653000D02*
X12832000Y-9683000D01*
X12832000Y-9653000D02*
X12802000Y-9683000D01*
X12814111Y-11985000D02*
X12844111Y-12015000D01*
X12844111Y-11985000D02*
X12814111Y-12015000D01*
X12815000Y-10856000D02*
X12845000Y-10886000D01*
X12845000Y-10856000D02*
X12815000Y-10886000D01*
X12876889Y-11985000D02*
X12906889Y-12015000D01*
X12906889Y-11985000D02*
X12876889Y-12015000D01*
X12889000Y-10945000D02*
X12919000Y-10975000D01*
X12919000Y-10945000D02*
X12889000Y-10975000D01*
X12891000Y-11029000D02*
X12921000Y-11059000D01*
X12921000Y-11029000D02*
X12891000Y-11059000D01*
X12905000Y-11105000D02*
X12935000Y-11135000D01*
X12935000Y-11105000D02*
X12905000Y-11135000D01*
X12905000Y-11169667D02*
X12935000Y-11199667D01*
X12935000Y-11169667D02*
X12905000Y-11199667D01*
X12905000Y-11234333D02*
X12935000Y-11264333D01*
X12935000Y-11234333D02*
X12905000Y-11264333D01*
X12905000Y-11299000D02*
X12935000Y-11329000D01*
X12935000Y-11299000D02*
X12905000Y-11329000D01*
X12905000Y-11363667D02*
X12935000Y-11393667D01*
X12935000Y-11363667D02*
X12905000Y-11393667D01*
X12905000Y-11428333D02*
X12935000Y-11458333D01*
X12935000Y-11428333D02*
X12905000Y-11458333D01*
X12905000Y-11493000D02*
X12935000Y-11523000D01*
X12935000Y-11493000D02*
X12905000Y-11523000D01*
X12905000Y-12281000D02*
X12935000Y-12311000D01*
X12935000Y-12281000D02*
X12905000Y-12311000D01*
X12906000Y-12171000D02*
X12936000Y-12201000D01*
X12936000Y-12171000D02*
X12906000Y-12201000D01*
X12939667Y-11985000D02*
X12969667Y-12015000D01*
X12969667Y-11985000D02*
X12939667Y-12015000D01*
X12946000Y-10988000D02*
X12976000Y-11018000D01*
X12976000Y-10988000D02*
X12946000Y-11018000D01*
X12946300Y-9679700D02*
X12976300Y-9709700D01*
X12976300Y-9679700D02*
X12946300Y-9709700D01*
X12986667Y-11493000D02*
X13016667Y-11523000D01*
X13016667Y-11493000D02*
X12986667Y-11523000D01*
X12992000Y-10119473D02*
X13022000Y-10149473D01*
X13022000Y-10119473D02*
X12992000Y-10149473D01*
X13002444Y-11985000D02*
X13032444Y-12015000D01*
X13032444Y-11985000D02*
X13002444Y-12015000D01*
X13010000Y-11081000D02*
X13040000Y-11111000D01*
X13040000Y-11081000D02*
X13010000Y-11111000D01*
X13013000Y-9738000D02*
X13043000Y-9768000D01*
X13043000Y-9738000D02*
X13013000Y-9768000D01*
X13017000Y-12281000D02*
X13047000Y-12311000D01*
X13047000Y-12281000D02*
X13017000Y-12311000D01*
X13018000Y-12171000D02*
X13048000Y-12201000D01*
X13048000Y-12171000D02*
X13018000Y-12201000D01*
X13051000Y-10157000D02*
X13081000Y-10187000D01*
X13081000Y-10157000D02*
X13051000Y-10187000D01*
X13065222Y-11985000D02*
X13095222Y-12015000D01*
X13095222Y-11985000D02*
X13065222Y-12015000D01*
X13068000Y-11493000D02*
X13098000Y-11523000D01*
X13098000Y-11493000D02*
X13068000Y-11523000D01*
X13097000Y-11576000D02*
X13127000Y-11606000D01*
X13127000Y-11576000D02*
X13097000Y-11606000D01*
X13110000Y-11789000D02*
X13140000Y-11819000D01*
X13140000Y-11789000D02*
X13110000Y-11819000D01*
X13111000Y-12283000D02*
X13141000Y-12313000D01*
X13141000Y-12283000D02*
X13111000Y-12313000D01*
X13112000Y-12173000D02*
X13142000Y-12203000D01*
X13142000Y-12173000D02*
X13112000Y-12203000D01*
X13128000Y-11985000D02*
X13158000Y-12015000D01*
X13158000Y-11985000D02*
X13128000Y-12015000D01*
X13138000Y-9007000D02*
X13168000Y-9037000D01*
X13168000Y-9007000D02*
X13138000Y-9037000D01*
X13139000Y-8790000D02*
X13169000Y-8820000D01*
X13169000Y-8790000D02*
X13139000Y-8820000D01*
X13140000Y-9270000D02*
X13170000Y-9300000D01*
X13170000Y-9270000D02*
X13140000Y-9300000D01*
X13140959Y-8898396D02*
X13170959Y-8928396D01*
X13170959Y-8898396D02*
X13140959Y-8928396D01*
X13158000Y-10912000D02*
X13188000Y-10942000D01*
X13188000Y-10912000D02*
X13158000Y-10942000D01*
X13166000Y-11644491D02*
X13196000Y-11674491D01*
X13196000Y-11644491D02*
X13166000Y-11674491D01*
X13166000Y-11705562D02*
X13196000Y-11735562D01*
X13196000Y-11705562D02*
X13166000Y-11735562D01*
X13166000Y-11766634D02*
X13196000Y-11796634D01*
X13196000Y-11766634D02*
X13166000Y-11796634D01*
X13166000Y-11827705D02*
X13196000Y-11857705D01*
X13196000Y-11827705D02*
X13166000Y-11857705D01*
X13166000Y-11888777D02*
X13196000Y-11918777D01*
X13196000Y-11888777D02*
X13166000Y-11918777D01*
X13166000Y-11944000D02*
X13196000Y-11974000D01*
X13196000Y-11944000D02*
X13166000Y-11974000D01*
X13223000Y-12283000D02*
X13253000Y-12313000D01*
X13253000Y-12283000D02*
X13223000Y-12313000D01*
X13224000Y-12173000D02*
X13254000Y-12203000D01*
X13254000Y-12173000D02*
X13224000Y-12203000D01*
X13283000Y-11419000D02*
X13313000Y-11449000D01*
X13313000Y-11419000D02*
X13283000Y-11449000D01*
X13335000Y-12283000D02*
X13365000Y-12313000D01*
X13365000Y-12283000D02*
X13335000Y-12313000D01*
X13336000Y-12173000D02*
X13366000Y-12203000D01*
X13366000Y-12173000D02*
X13336000Y-12203000D01*
X13350000Y-10498000D02*
X13380000Y-10528000D01*
X13380000Y-10498000D02*
X13350000Y-10528000D01*
X13365000Y-10709000D02*
X13395000Y-10739000D01*
X13395000Y-10709000D02*
X13365000Y-10739000D01*
X13375000Y-10382000D02*
X13405000Y-10412000D01*
X13405000Y-10382000D02*
X13375000Y-10412000D01*
X13380000Y-10122000D02*
X13410000Y-10152000D01*
X13410000Y-10122000D02*
X13380000Y-10152000D01*
X13414250Y-10477000D02*
X13444250Y-10507000D01*
X13444250Y-10477000D02*
X13414250Y-10507000D01*
X13447000Y-12285000D02*
X13477000Y-12315000D01*
X13477000Y-12285000D02*
X13447000Y-12315000D01*
X13448000Y-12175000D02*
X13478000Y-12205000D01*
X13478000Y-12175000D02*
X13448000Y-12205000D01*
X13465000Y-11346000D02*
X13495000Y-11376000D01*
X13495000Y-11346000D02*
X13465000Y-11376000D01*
X13465000Y-11439000D02*
X13495000Y-11469000D01*
X13495000Y-11439000D02*
X13465000Y-11469000D01*
X13481000Y-11189000D02*
X13511000Y-11219000D01*
X13511000Y-11189000D02*
X13481000Y-11219000D01*
X13497000Y-11050000D02*
X13527000Y-11080000D01*
X13527000Y-11050000D02*
X13497000Y-11080000D01*
X13534000Y-10769000D02*
X13564000Y-10799000D01*
X13564000Y-10769000D02*
X13534000Y-10799000D01*
X13541000Y-12285000D02*
X13571000Y-12315000D01*
X13571000Y-12285000D02*
X13541000Y-12315000D01*
X13542000Y-12175000D02*
X13572000Y-12205000D01*
X13572000Y-12175000D02*
X13542000Y-12205000D01*
X13551000Y-11346000D02*
X13581000Y-11376000D01*
X13581000Y-11346000D02*
X13551000Y-11376000D01*
X13551000Y-11439000D02*
X13581000Y-11469000D01*
X13581000Y-11439000D02*
X13551000Y-11469000D01*
X13551000Y-10347000D02*
X13581000Y-10377000D01*
X13581000Y-10347000D02*
X13551000Y-10377000D01*
X13628000Y-11346000D02*
X13658000Y-11376000D01*
X13658000Y-11346000D02*
X13628000Y-11376000D01*
X13628000Y-11439000D02*
X13658000Y-11469000D01*
X13658000Y-11439000D02*
X13628000Y-11469000D01*
X13651000Y-9764000D02*
X13681000Y-9794000D01*
X13681000Y-9764000D02*
X13651000Y-9794000D01*
X13653000Y-12285000D02*
X13683000Y-12315000D01*
X13683000Y-12285000D02*
X13653000Y-12315000D01*
X13654000Y-12175000D02*
X13684000Y-12205000D01*
X13684000Y-12175000D02*
X13654000Y-12205000D01*
X13697000Y-10216500D02*
X13727000Y-10246500D01*
X13727000Y-10216500D02*
X13697000Y-10246500D01*
X13714000Y-11346000D02*
X13744000Y-11376000D01*
X13744000Y-11346000D02*
X13714000Y-11376000D01*
X13714000Y-11439000D02*
X13744000Y-11469000D01*
X13744000Y-11439000D02*
X13714000Y-11469000D01*
X13746000Y-12285000D02*
X13776000Y-12315000D01*
X13776000Y-12285000D02*
X13746000Y-12315000D01*
X13747000Y-12175000D02*
X13777000Y-12205000D01*
X13777000Y-12175000D02*
X13747000Y-12205000D01*
X13765623Y-10404599D02*
X13795623Y-10434599D01*
X13795623Y-10404599D02*
X13765623Y-10434599D01*
X13838000Y-10033000D02*
X13868000Y-10063000D01*
X13868000Y-10033000D02*
X13838000Y-10063000D01*
X13858000Y-12285000D02*
X13888000Y-12315000D01*
X13888000Y-12285000D02*
X13858000Y-12315000D01*
X13859000Y-12175000D02*
X13889000Y-12205000D01*
X13889000Y-12175000D02*
X13859000Y-12205000D01*
X13933000Y-9490000D02*
X13963000Y-9520000D01*
X13963000Y-9490000D02*
X13933000Y-9520000D01*
X13933000Y-11380000D02*
X13963000Y-11410000D01*
X13963000Y-11380000D02*
X13933000Y-11410000D01*
X13952000Y-12285000D02*
X13982000Y-12315000D01*
X13982000Y-12285000D02*
X13952000Y-12315000D01*
X13953000Y-12175000D02*
X13983000Y-12205000D01*
X13983000Y-12175000D02*
X13953000Y-12205000D01*
X14027000Y-10023000D02*
X14057000Y-10053000D01*
X14057000Y-10023000D02*
X14027000Y-10053000D01*
X14043000Y-10273000D02*
X14073000Y-10303000D01*
X14073000Y-10273000D02*
X14043000Y-10303000D01*
X14083000Y-12285000D02*
X14113000Y-12315000D01*
X14113000Y-12285000D02*
X14083000Y-12315000D01*
X14085000Y-12175000D02*
X14115000Y-12205000D01*
X14115000Y-12175000D02*
X14085000Y-12205000D01*
X14217000Y-9769000D02*
X14247000Y-9799000D01*
X14247000Y-9769000D02*
X14217000Y-9799000D01*
X14223000Y-12054000D02*
X14253000Y-12084000D01*
X14253000Y-12054000D02*
X14223000Y-12084000D01*
X14223000Y-12175000D02*
X14253000Y-12205000D01*
X14253000Y-12175000D02*
X14223000Y-12205000D01*
X14223000Y-12285000D02*
X14253000Y-12315000D01*
X14253000Y-12285000D02*
X14223000Y-12315000D01*
X14414000Y-12122000D02*
X14444000Y-12152000D01*
X14444000Y-12122000D02*
X14414000Y-12152000D01*
X14414000Y-12215000D02*
X14444000Y-12245000D01*
X14444000Y-12215000D02*
X14414000Y-12245000D01*
X14440000Y-11743000D02*
X14470000Y-11773000D01*
X14470000Y-11743000D02*
X14440000Y-11773000D01*
X14452000Y-11516000D02*
X14482000Y-11546000D01*
X14482000Y-11516000D02*
X14452000Y-11546000D01*
X14485000Y-10885000D02*
X14515000Y-10915000D01*
X14515000Y-10885000D02*
X14485000Y-10915000D01*
X14487000Y-11107000D02*
X14517000Y-11137000D01*
X14517000Y-11107000D02*
X14487000Y-11137000D01*
X14492977Y-11001307D02*
X14522977Y-11031307D01*
X14522977Y-11001307D02*
X14492977Y-11031307D01*
X14500000Y-12122000D02*
X14530000Y-12152000D01*
X14530000Y-12122000D02*
X14500000Y-12152000D01*
X14500000Y-12215000D02*
X14530000Y-12245000D01*
X14530000Y-12215000D02*
X14500000Y-12245000D01*
X14577000Y-12122000D02*
X14607000Y-12152000D01*
X14607000Y-12122000D02*
X14577000Y-12152000D01*
X14577000Y-12215000D02*
X14607000Y-12245000D01*
X14607000Y-12215000D02*
X14577000Y-12245000D01*
X14663000Y-12122000D02*
X14693000Y-12152000D01*
X14693000Y-12122000D02*
X14663000Y-12152000D01*
X14663000Y-12215000D02*
X14693000Y-12245000D01*
X14693000Y-12215000D02*
X14663000Y-12245000D01*
X14733000Y-9577000D02*
X14763000Y-9607000D01*
X14763000Y-9577000D02*
X14733000Y-9607000D01*
X14765000Y-9399000D02*
X14795000Y-9429000D01*
X14795000Y-9399000D02*
X14765000Y-9429000D01*
X14838000Y-11493000D02*
X14868000Y-11523000D01*
X14868000Y-11493000D02*
X14838000Y-11523000D01*
X14838000Y-11586000D02*
X14868000Y-11616000D01*
X14868000Y-11586000D02*
X14838000Y-11616000D01*
X14924000Y-11493000D02*
X14954000Y-11523000D01*
X14954000Y-11493000D02*
X14924000Y-11523000D01*
X14924000Y-11586000D02*
X14954000Y-11616000D01*
X14954000Y-11586000D02*
X14924000Y-11616000D01*
X14963000Y-9563000D02*
X14993000Y-9593000D01*
X14993000Y-9563000D02*
X14963000Y-9593000D01*
X14971000Y-9410000D02*
X15001000Y-9440000D01*
X15001000Y-9410000D02*
X14971000Y-9440000D01*
X15001000Y-11493000D02*
X15031000Y-11523000D01*
X15031000Y-11493000D02*
X15001000Y-11523000D01*
X15001000Y-11586000D02*
X15031000Y-11616000D01*
X15031000Y-11586000D02*
X15001000Y-11616000D01*
X15087000Y-11493000D02*
X15117000Y-11523000D01*
X15117000Y-11493000D02*
X15087000Y-11523000D01*
X15087000Y-11586000D02*
X15117000Y-11616000D01*
X15117000Y-11586000D02*
X15087000Y-11616000D01*
X15197000Y-9418000D02*
X15227000Y-9448000D01*
X15227000Y-9418000D02*
X15197000Y-9448000D01*
X15237000Y-9841000D02*
X15267000Y-9871000D01*
X15267000Y-9841000D02*
X15237000Y-9871000D01*
X15241000Y-10312000D02*
X15271000Y-10342000D01*
X15271000Y-10312000D02*
X15241000Y-10342000D01*
X15243000Y-10182000D02*
X15273000Y-10212000D01*
X15273000Y-10182000D02*
X15243000Y-10212000D01*
X15245000Y-10027000D02*
X15275000Y-10057000D01*
X15275000Y-10027000D02*
X15245000Y-10057000D01*
X15245000Y-10763000D02*
X15275000Y-10793000D01*
X15275000Y-10763000D02*
X15245000Y-10793000D01*
X15247371Y-10889167D02*
X15277371Y-10919167D01*
X15277371Y-10889167D02*
X15247371Y-10919167D01*
X15250000Y-9578000D02*
X15280000Y-9608000D01*
X15280000Y-9578000D02*
X15250000Y-9608000D01*
X15251000Y-11007000D02*
X15281000Y-11037000D01*
X15281000Y-11007000D02*
X15251000Y-11037000D01*
X15251000Y-11109000D02*
X15281000Y-11139000D01*
X15281000Y-11109000D02*
X15251000Y-11139000D01*
X13580000Y-9483000D02*
G75*
G02*
X13540000Y-9483000I-20000J0D01*
G01*
X13540000Y-9483000D02*
G75*
G02*
X13580000Y-9483000I20000J0D01*
G01*
X13944000Y-10833000D02*
G75*
G02*
X13904000Y-10833000I-20000J0D01*
G01*
X13904000Y-10833000D02*
G75*
G02*
X13944000Y-10833000I20000J0D01*
G01*
X13989000Y-10414000D02*
G75*
G02*
X13949000Y-10414000I-20000J0D01*
G01*
X13949000Y-10414000D02*
G75*
G02*
X13989000Y-10414000I20000J0D01*
G01*
X14487000Y-9515000D02*
G75*
G02*
X14447000Y-9515000I-20000J0D01*
G01*
X14447000Y-9515000D02*
G75*
G02*
X14487000Y-9515000I20000J0D01*
G01*
D10*
X9850777Y-12721484D02*
X9850777Y-12521484D01*
X9850777Y-12521484D02*
X9898396Y-12521484D01*
X9898396Y-12521484D02*
X9926967Y-12531008D01*
X9926967Y-12531008D02*
X9946015Y-12550055D01*
X9946015Y-12550055D02*
X9955539Y-12569103D01*
X9955539Y-12569103D02*
X9965063Y-12607198D01*
X9965063Y-12607198D02*
X9965063Y-12635769D01*
X9965063Y-12635769D02*
X9955539Y-12673865D01*
X9955539Y-12673865D02*
X9946015Y-12692912D01*
X9946015Y-12692912D02*
X9926967Y-12711960D01*
X9926967Y-12711960D02*
X9898396Y-12721484D01*
X9898396Y-12721484D02*
X9850777Y-12721484D01*
X10050777Y-12721484D02*
X10050777Y-12588150D01*
X10050777Y-12626246D02*
X10060301Y-12607198D01*
X10060301Y-12607198D02*
X10069824Y-12597674D01*
X10069824Y-12597674D02*
X10088872Y-12588150D01*
X10088872Y-12588150D02*
X10107920Y-12588150D01*
X10174586Y-12721484D02*
X10174586Y-12588150D01*
X10174586Y-12521484D02*
X10165063Y-12531008D01*
X10165063Y-12531008D02*
X10174586Y-12540531D01*
X10174586Y-12540531D02*
X10184110Y-12531008D01*
X10184110Y-12531008D02*
X10174586Y-12521484D01*
X10174586Y-12521484D02*
X10174586Y-12540531D01*
X10298396Y-12721484D02*
X10279348Y-12711960D01*
X10279348Y-12711960D02*
X10269824Y-12692912D01*
X10269824Y-12692912D02*
X10269824Y-12521484D01*
X10403158Y-12721484D02*
X10384110Y-12711960D01*
X10384110Y-12711960D02*
X10374586Y-12692912D01*
X10374586Y-12692912D02*
X10374586Y-12521484D01*
X10631729Y-12721484D02*
X10631729Y-12521484D01*
X10631729Y-12521484D02*
X10698396Y-12664341D01*
X10698396Y-12664341D02*
X10765063Y-12521484D01*
X10765063Y-12521484D02*
X10765063Y-12721484D01*
X10946015Y-12721484D02*
X10946015Y-12616722D01*
X10946015Y-12616722D02*
X10936491Y-12597674D01*
X10936491Y-12597674D02*
X10917444Y-12588150D01*
X10917444Y-12588150D02*
X10879348Y-12588150D01*
X10879348Y-12588150D02*
X10860301Y-12597674D01*
X10946015Y-12711960D02*
X10926967Y-12721484D01*
X10926967Y-12721484D02*
X10879348Y-12721484D01*
X10879348Y-12721484D02*
X10860301Y-12711960D01*
X10860301Y-12711960D02*
X10850777Y-12692912D01*
X10850777Y-12692912D02*
X10850777Y-12673865D01*
X10850777Y-12673865D02*
X10860301Y-12654817D01*
X10860301Y-12654817D02*
X10879348Y-12645293D01*
X10879348Y-12645293D02*
X10926967Y-12645293D01*
X10926967Y-12645293D02*
X10946015Y-12635769D01*
X11041253Y-12588150D02*
X11041253Y-12788150D01*
X11041253Y-12597674D02*
X11060301Y-12588150D01*
X11060301Y-12588150D02*
X11098396Y-12588150D01*
X11098396Y-12588150D02*
X11117444Y-12597674D01*
X11117444Y-12597674D02*
X11126967Y-12607198D01*
X11126967Y-12607198D02*
X11136491Y-12626246D01*
X11136491Y-12626246D02*
X11136491Y-12683388D01*
X11136491Y-12683388D02*
X11126967Y-12702436D01*
X11126967Y-12702436D02*
X11117444Y-12711960D01*
X11117444Y-12711960D02*
X11098396Y-12721484D01*
X11098396Y-12721484D02*
X11060301Y-12721484D01*
X11060301Y-12721484D02*
X11041253Y-12711960D01*
X11222205Y-12702436D02*
X11231729Y-12711960D01*
X11231729Y-12711960D02*
X11222205Y-12721484D01*
X11222205Y-12721484D02*
X11212682Y-12711960D01*
X11212682Y-12711960D02*
X11222205Y-12702436D01*
X11222205Y-12702436D02*
X11222205Y-12721484D01*
X11222205Y-12597674D02*
X11231729Y-12607198D01*
X11231729Y-12607198D02*
X11222205Y-12616722D01*
X11222205Y-12616722D02*
X11212682Y-12607198D01*
X11212682Y-12607198D02*
X11222205Y-12597674D01*
X11222205Y-12597674D02*
X11222205Y-12616722D01*
D11*
X9560000Y-13035000D02*
X9590000Y-13065000D01*
X9590000Y-13035000D02*
X9560000Y-13065000D01*
D10*
X9888872Y-12941484D02*
X9907920Y-12941484D01*
X9907920Y-12941484D02*
X9926967Y-12951008D01*
X9926967Y-12951008D02*
X9936491Y-12960531D01*
X9936491Y-12960531D02*
X9946015Y-12979579D01*
X9946015Y-12979579D02*
X9955539Y-13017674D01*
X9955539Y-13017674D02*
X9955539Y-13065293D01*
X9955539Y-13065293D02*
X9946015Y-13103388D01*
X9946015Y-13103388D02*
X9936491Y-13122436D01*
X9936491Y-13122436D02*
X9926967Y-13131960D01*
X9926967Y-13131960D02*
X9907920Y-13141484D01*
X9907920Y-13141484D02*
X9888872Y-13141484D01*
X9888872Y-13141484D02*
X9869824Y-13131960D01*
X9869824Y-13131960D02*
X9860301Y-13122436D01*
X9860301Y-13122436D02*
X9850777Y-13103388D01*
X9850777Y-13103388D02*
X9841253Y-13065293D01*
X9841253Y-13065293D02*
X9841253Y-13017674D01*
X9841253Y-13017674D02*
X9850777Y-12979579D01*
X9850777Y-12979579D02*
X9860301Y-12960531D01*
X9860301Y-12960531D02*
X9869824Y-12951008D01*
X9869824Y-12951008D02*
X9888872Y-12941484D01*
X10041253Y-13122436D02*
X10050777Y-13131960D01*
X10050777Y-13131960D02*
X10041253Y-13141484D01*
X10041253Y-13141484D02*
X10031729Y-13131960D01*
X10031729Y-13131960D02*
X10041253Y-13122436D01*
X10041253Y-13122436D02*
X10041253Y-13141484D01*
X10117444Y-12941484D02*
X10241253Y-12941484D01*
X10241253Y-12941484D02*
X10174586Y-13017674D01*
X10174586Y-13017674D02*
X10203158Y-13017674D01*
X10203158Y-13017674D02*
X10222205Y-13027198D01*
X10222205Y-13027198D02*
X10231729Y-13036722D01*
X10231729Y-13036722D02*
X10241253Y-13055769D01*
X10241253Y-13055769D02*
X10241253Y-13103388D01*
X10241253Y-13103388D02*
X10231729Y-13122436D01*
X10231729Y-13122436D02*
X10222205Y-13131960D01*
X10222205Y-13131960D02*
X10203158Y-13141484D01*
X10203158Y-13141484D02*
X10146015Y-13141484D01*
X10146015Y-13141484D02*
X10126967Y-13131960D01*
X10126967Y-13131960D02*
X10117444Y-13122436D01*
X10365063Y-12941484D02*
X10384110Y-12941484D01*
X10384110Y-12941484D02*
X10403158Y-12951008D01*
X10403158Y-12951008D02*
X10412682Y-12960531D01*
X10412682Y-12960531D02*
X10422205Y-12979579D01*
X10422205Y-12979579D02*
X10431729Y-13017674D01*
X10431729Y-13017674D02*
X10431729Y-13065293D01*
X10431729Y-13065293D02*
X10422205Y-13103388D01*
X10422205Y-13103388D02*
X10412682Y-13122436D01*
X10412682Y-13122436D02*
X10403158Y-13131960D01*
X10403158Y-13131960D02*
X10384110Y-13141484D01*
X10384110Y-13141484D02*
X10365063Y-13141484D01*
X10365063Y-13141484D02*
X10346015Y-13131960D01*
X10346015Y-13131960D02*
X10336491Y-13122436D01*
X10336491Y-13122436D02*
X10326967Y-13103388D01*
X10326967Y-13103388D02*
X10317444Y-13065293D01*
X10317444Y-13065293D02*
X10317444Y-13017674D01*
X10317444Y-13017674D02*
X10326967Y-12979579D01*
X10326967Y-12979579D02*
X10336491Y-12960531D01*
X10336491Y-12960531D02*
X10346015Y-12951008D01*
X10346015Y-12951008D02*
X10365063Y-12941484D01*
X10555539Y-12941484D02*
X10574586Y-12941484D01*
X10574586Y-12941484D02*
X10593634Y-12951008D01*
X10593634Y-12951008D02*
X10603158Y-12960531D01*
X10603158Y-12960531D02*
X10612682Y-12979579D01*
X10612682Y-12979579D02*
X10622205Y-13017674D01*
X10622205Y-13017674D02*
X10622205Y-13065293D01*
X10622205Y-13065293D02*
X10612682Y-13103388D01*
X10612682Y-13103388D02*
X10603158Y-13122436D01*
X10603158Y-13122436D02*
X10593634Y-13131960D01*
X10593634Y-13131960D02*
X10574586Y-13141484D01*
X10574586Y-13141484D02*
X10555539Y-13141484D01*
X10555539Y-13141484D02*
X10536491Y-13131960D01*
X10536491Y-13131960D02*
X10526967Y-13122436D01*
X10526967Y-13122436D02*
X10517444Y-13103388D01*
X10517444Y-13103388D02*
X10507920Y-13065293D01*
X10507920Y-13065293D02*
X10507920Y-13017674D01*
X10507920Y-13017674D02*
X10517444Y-12979579D01*
X10517444Y-12979579D02*
X10526967Y-12960531D01*
X10526967Y-12960531D02*
X10536491Y-12951008D01*
X10536491Y-12951008D02*
X10555539Y-12941484D01*
X10707920Y-13141484D02*
X10707920Y-13008150D01*
X10707920Y-13027198D02*
X10717444Y-13017674D01*
X10717444Y-13017674D02*
X10736491Y-13008150D01*
X10736491Y-13008150D02*
X10765063Y-13008150D01*
X10765063Y-13008150D02*
X10784110Y-13017674D01*
X10784110Y-13017674D02*
X10793634Y-13036722D01*
X10793634Y-13036722D02*
X10793634Y-13141484D01*
X10793634Y-13036722D02*
X10803158Y-13017674D01*
X10803158Y-13017674D02*
X10822205Y-13008150D01*
X10822205Y-13008150D02*
X10850777Y-13008150D01*
X10850777Y-13008150D02*
X10869825Y-13017674D01*
X10869825Y-13017674D02*
X10879348Y-13036722D01*
X10879348Y-13036722D02*
X10879348Y-13141484D01*
X10974586Y-13141484D02*
X10974586Y-13008150D01*
X10974586Y-13027198D02*
X10984110Y-13017674D01*
X10984110Y-13017674D02*
X11003158Y-13008150D01*
X11003158Y-13008150D02*
X11031729Y-13008150D01*
X11031729Y-13008150D02*
X11050777Y-13017674D01*
X11050777Y-13017674D02*
X11060301Y-13036722D01*
X11060301Y-13036722D02*
X11060301Y-13141484D01*
X11060301Y-13036722D02*
X11069825Y-13017674D01*
X11069825Y-13017674D02*
X11088872Y-13008150D01*
X11088872Y-13008150D02*
X11117444Y-13008150D01*
X11117444Y-13008150D02*
X11136491Y-13017674D01*
X11136491Y-13017674D02*
X11146015Y-13036722D01*
X11146015Y-13036722D02*
X11146015Y-13141484D01*
X11536491Y-12931960D02*
X11365063Y-13189103D01*
X11793634Y-12941484D02*
X11812682Y-12941484D01*
X11812682Y-12941484D02*
X11831729Y-12951008D01*
X11831729Y-12951008D02*
X11841253Y-12960531D01*
X11841253Y-12960531D02*
X11850777Y-12979579D01*
X11850777Y-12979579D02*
X11860301Y-13017674D01*
X11860301Y-13017674D02*
X11860301Y-13065293D01*
X11860301Y-13065293D02*
X11850777Y-13103388D01*
X11850777Y-13103388D02*
X11841253Y-13122436D01*
X11841253Y-13122436D02*
X11831729Y-13131960D01*
X11831729Y-13131960D02*
X11812682Y-13141484D01*
X11812682Y-13141484D02*
X11793634Y-13141484D01*
X11793634Y-13141484D02*
X11774586Y-13131960D01*
X11774586Y-13131960D02*
X11765063Y-13122436D01*
X11765063Y-13122436D02*
X11755539Y-13103388D01*
X11755539Y-13103388D02*
X11746015Y-13065293D01*
X11746015Y-13065293D02*
X11746015Y-13017674D01*
X11746015Y-13017674D02*
X11755539Y-12979579D01*
X11755539Y-12979579D02*
X11765063Y-12960531D01*
X11765063Y-12960531D02*
X11774586Y-12951008D01*
X11774586Y-12951008D02*
X11793634Y-12941484D01*
X11946015Y-13122436D02*
X11955539Y-13131960D01*
X11955539Y-13131960D02*
X11946015Y-13141484D01*
X11946015Y-13141484D02*
X11936491Y-13131960D01*
X11936491Y-13131960D02*
X11946015Y-13122436D01*
X11946015Y-13122436D02*
X11946015Y-13141484D01*
X12079348Y-12941484D02*
X12098396Y-12941484D01*
X12098396Y-12941484D02*
X12117444Y-12951008D01*
X12117444Y-12951008D02*
X12126967Y-12960531D01*
X12126967Y-12960531D02*
X12136491Y-12979579D01*
X12136491Y-12979579D02*
X12146015Y-13017674D01*
X12146015Y-13017674D02*
X12146015Y-13065293D01*
X12146015Y-13065293D02*
X12136491Y-13103388D01*
X12136491Y-13103388D02*
X12126967Y-13122436D01*
X12126967Y-13122436D02*
X12117444Y-13131960D01*
X12117444Y-13131960D02*
X12098396Y-13141484D01*
X12098396Y-13141484D02*
X12079348Y-13141484D01*
X12079348Y-13141484D02*
X12060301Y-13131960D01*
X12060301Y-13131960D02*
X12050777Y-13122436D01*
X12050777Y-13122436D02*
X12041253Y-13103388D01*
X12041253Y-13103388D02*
X12031729Y-13065293D01*
X12031729Y-13065293D02*
X12031729Y-13017674D01*
X12031729Y-13017674D02*
X12041253Y-12979579D01*
X12041253Y-12979579D02*
X12050777Y-12960531D01*
X12050777Y-12960531D02*
X12060301Y-12951008D01*
X12060301Y-12951008D02*
X12079348Y-12941484D01*
X12336491Y-13141484D02*
X12222206Y-13141484D01*
X12279348Y-13141484D02*
X12279348Y-12941484D01*
X12279348Y-12941484D02*
X12260301Y-12970055D01*
X12260301Y-12970055D02*
X12241253Y-12989103D01*
X12241253Y-12989103D02*
X12222206Y-12998627D01*
X12526967Y-13141484D02*
X12412682Y-13141484D01*
X12469825Y-13141484D02*
X12469825Y-12941484D01*
X12469825Y-12941484D02*
X12450777Y-12970055D01*
X12450777Y-12970055D02*
X12431729Y-12989103D01*
X12431729Y-12989103D02*
X12412682Y-12998627D01*
X12641253Y-13027198D02*
X12622206Y-13017674D01*
X12622206Y-13017674D02*
X12612682Y-13008150D01*
X12612682Y-13008150D02*
X12603158Y-12989103D01*
X12603158Y-12989103D02*
X12603158Y-12979579D01*
X12603158Y-12979579D02*
X12612682Y-12960531D01*
X12612682Y-12960531D02*
X12622206Y-12951008D01*
X12622206Y-12951008D02*
X12641253Y-12941484D01*
X12641253Y-12941484D02*
X12679348Y-12941484D01*
X12679348Y-12941484D02*
X12698396Y-12951008D01*
X12698396Y-12951008D02*
X12707920Y-12960531D01*
X12707920Y-12960531D02*
X12717444Y-12979579D01*
X12717444Y-12979579D02*
X12717444Y-12989103D01*
X12717444Y-12989103D02*
X12707920Y-13008150D01*
X12707920Y-13008150D02*
X12698396Y-13017674D01*
X12698396Y-13017674D02*
X12679348Y-13027198D01*
X12679348Y-13027198D02*
X12641253Y-13027198D01*
X12641253Y-13027198D02*
X12622206Y-13036722D01*
X12622206Y-13036722D02*
X12612682Y-13046246D01*
X12612682Y-13046246D02*
X12603158Y-13065293D01*
X12603158Y-13065293D02*
X12603158Y-13103388D01*
X12603158Y-13103388D02*
X12612682Y-13122436D01*
X12612682Y-13122436D02*
X12622206Y-13131960D01*
X12622206Y-13131960D02*
X12641253Y-13141484D01*
X12641253Y-13141484D02*
X12679348Y-13141484D01*
X12679348Y-13141484D02*
X12698396Y-13131960D01*
X12698396Y-13131960D02*
X12707920Y-13122436D01*
X12707920Y-13122436D02*
X12717444Y-13103388D01*
X12717444Y-13103388D02*
X12717444Y-13065293D01*
X12717444Y-13065293D02*
X12707920Y-13046246D01*
X12707920Y-13046246D02*
X12698396Y-13036722D01*
X12698396Y-13036722D02*
X12679348Y-13027198D01*
X12793634Y-12941484D02*
X12793634Y-12979579D01*
X12869825Y-12941484D02*
X12869825Y-12979579D01*
X13165063Y-13217674D02*
X13155539Y-13208150D01*
X13155539Y-13208150D02*
X13136491Y-13179579D01*
X13136491Y-13179579D02*
X13126968Y-13160531D01*
X13126968Y-13160531D02*
X13117444Y-13131960D01*
X13117444Y-13131960D02*
X13107920Y-13084341D01*
X13107920Y-13084341D02*
X13107920Y-13046246D01*
X13107920Y-13046246D02*
X13117444Y-12998627D01*
X13117444Y-12998627D02*
X13126968Y-12970055D01*
X13126968Y-12970055D02*
X13136491Y-12951008D01*
X13136491Y-12951008D02*
X13155539Y-12922436D01*
X13155539Y-12922436D02*
X13165063Y-12912912D01*
X13222206Y-12941484D02*
X13346015Y-12941484D01*
X13346015Y-12941484D02*
X13279348Y-13017674D01*
X13279348Y-13017674D02*
X13307920Y-13017674D01*
X13307920Y-13017674D02*
X13326968Y-13027198D01*
X13326968Y-13027198D02*
X13336491Y-13036722D01*
X13336491Y-13036722D02*
X13346015Y-13055769D01*
X13346015Y-13055769D02*
X13346015Y-13103388D01*
X13346015Y-13103388D02*
X13336491Y-13122436D01*
X13336491Y-13122436D02*
X13326968Y-13131960D01*
X13326968Y-13131960D02*
X13307920Y-13141484D01*
X13307920Y-13141484D02*
X13250777Y-13141484D01*
X13250777Y-13141484D02*
X13231729Y-13131960D01*
X13231729Y-13131960D02*
X13222206Y-13122436D01*
X13517444Y-13008150D02*
X13517444Y-13141484D01*
X13469825Y-12931960D02*
X13422206Y-13074817D01*
X13422206Y-13074817D02*
X13546015Y-13074817D01*
X13726968Y-13141484D02*
X13612682Y-13141484D01*
X13669825Y-13141484D02*
X13669825Y-12941484D01*
X13669825Y-12941484D02*
X13650777Y-12970055D01*
X13650777Y-12970055D02*
X13631729Y-12989103D01*
X13631729Y-12989103D02*
X13612682Y-12998627D01*
X13965063Y-13141484D02*
X13965063Y-12941484D01*
X14050777Y-13141484D02*
X14050777Y-13036722D01*
X14050777Y-13036722D02*
X14041253Y-13017674D01*
X14041253Y-13017674D02*
X14022206Y-13008150D01*
X14022206Y-13008150D02*
X13993634Y-13008150D01*
X13993634Y-13008150D02*
X13974587Y-13017674D01*
X13974587Y-13017674D02*
X13965063Y-13027198D01*
X14174587Y-13141484D02*
X14155539Y-13131960D01*
X14155539Y-13131960D02*
X14146015Y-13122436D01*
X14146015Y-13122436D02*
X14136491Y-13103388D01*
X14136491Y-13103388D02*
X14136491Y-13046246D01*
X14136491Y-13046246D02*
X14146015Y-13027198D01*
X14146015Y-13027198D02*
X14155539Y-13017674D01*
X14155539Y-13017674D02*
X14174587Y-13008150D01*
X14174587Y-13008150D02*
X14203158Y-13008150D01*
X14203158Y-13008150D02*
X14222206Y-13017674D01*
X14222206Y-13017674D02*
X14231730Y-13027198D01*
X14231730Y-13027198D02*
X14241253Y-13046246D01*
X14241253Y-13046246D02*
X14241253Y-13103388D01*
X14241253Y-13103388D02*
X14231730Y-13122436D01*
X14231730Y-13122436D02*
X14222206Y-13131960D01*
X14222206Y-13131960D02*
X14203158Y-13141484D01*
X14203158Y-13141484D02*
X14174587Y-13141484D01*
X14355539Y-13141484D02*
X14336491Y-13131960D01*
X14336491Y-13131960D02*
X14326968Y-13112912D01*
X14326968Y-13112912D02*
X14326968Y-12941484D01*
X14507920Y-13131960D02*
X14488872Y-13141484D01*
X14488872Y-13141484D02*
X14450777Y-13141484D01*
X14450777Y-13141484D02*
X14431730Y-13131960D01*
X14431730Y-13131960D02*
X14422206Y-13112912D01*
X14422206Y-13112912D02*
X14422206Y-13036722D01*
X14422206Y-13036722D02*
X14431730Y-13017674D01*
X14431730Y-13017674D02*
X14450777Y-13008150D01*
X14450777Y-13008150D02*
X14488872Y-13008150D01*
X14488872Y-13008150D02*
X14507920Y-13017674D01*
X14507920Y-13017674D02*
X14517444Y-13036722D01*
X14517444Y-13036722D02*
X14517444Y-13055769D01*
X14517444Y-13055769D02*
X14422206Y-13074817D01*
X14593634Y-13131960D02*
X14612682Y-13141484D01*
X14612682Y-13141484D02*
X14650777Y-13141484D01*
X14650777Y-13141484D02*
X14669825Y-13131960D01*
X14669825Y-13131960D02*
X14679349Y-13112912D01*
X14679349Y-13112912D02*
X14679349Y-13103388D01*
X14679349Y-13103388D02*
X14669825Y-13084341D01*
X14669825Y-13084341D02*
X14650777Y-13074817D01*
X14650777Y-13074817D02*
X14622206Y-13074817D01*
X14622206Y-13074817D02*
X14603158Y-13065293D01*
X14603158Y-13065293D02*
X14593634Y-13046246D01*
X14593634Y-13046246D02*
X14593634Y-13036722D01*
X14593634Y-13036722D02*
X14603158Y-13017674D01*
X14603158Y-13017674D02*
X14622206Y-13008150D01*
X14622206Y-13008150D02*
X14650777Y-13008150D01*
X14650777Y-13008150D02*
X14669825Y-13017674D01*
X14746015Y-13217674D02*
X14755539Y-13208150D01*
X14755539Y-13208150D02*
X14774587Y-13179579D01*
X14774587Y-13179579D02*
X14784111Y-13160531D01*
X14784111Y-13160531D02*
X14793634Y-13131960D01*
X14793634Y-13131960D02*
X14803158Y-13084341D01*
X14803158Y-13084341D02*
X14803158Y-13046246D01*
X14803158Y-13046246D02*
X14793634Y-12998627D01*
X14793634Y-12998627D02*
X14784111Y-12970055D01*
X14784111Y-12970055D02*
X14774587Y-12951008D01*
X14774587Y-12951008D02*
X14755539Y-12922436D01*
X14755539Y-12922436D02*
X14746015Y-12912912D01*
D11*
X9590000Y-13314000D02*
G75*
G02*
X9550000Y-13314000I-20000J0D01*
G01*
X9550000Y-13314000D02*
G75*
G02*
X9590000Y-13314000I20000J0D01*
G01*
D10*
X9888872Y-13205484D02*
X9907920Y-13205484D01*
X9907920Y-13205484D02*
X9926967Y-13215008D01*
X9926967Y-13215008D02*
X9936491Y-13224531D01*
X9936491Y-13224531D02*
X9946015Y-13243579D01*
X9946015Y-13243579D02*
X9955539Y-13281674D01*
X9955539Y-13281674D02*
X9955539Y-13329293D01*
X9955539Y-13329293D02*
X9946015Y-13367388D01*
X9946015Y-13367388D02*
X9936491Y-13386436D01*
X9936491Y-13386436D02*
X9926967Y-13395960D01*
X9926967Y-13395960D02*
X9907920Y-13405484D01*
X9907920Y-13405484D02*
X9888872Y-13405484D01*
X9888872Y-13405484D02*
X9869824Y-13395960D01*
X9869824Y-13395960D02*
X9860301Y-13386436D01*
X9860301Y-13386436D02*
X9850777Y-13367388D01*
X9850777Y-13367388D02*
X9841253Y-13329293D01*
X9841253Y-13329293D02*
X9841253Y-13281674D01*
X9841253Y-13281674D02*
X9850777Y-13243579D01*
X9850777Y-13243579D02*
X9860301Y-13224531D01*
X9860301Y-13224531D02*
X9869824Y-13215008D01*
X9869824Y-13215008D02*
X9888872Y-13205484D01*
X10041253Y-13386436D02*
X10050777Y-13395960D01*
X10050777Y-13395960D02*
X10041253Y-13405484D01*
X10041253Y-13405484D02*
X10031729Y-13395960D01*
X10031729Y-13395960D02*
X10041253Y-13386436D01*
X10041253Y-13386436D02*
X10041253Y-13405484D01*
X10222205Y-13272150D02*
X10222205Y-13405484D01*
X10174586Y-13195960D02*
X10126967Y-13338817D01*
X10126967Y-13338817D02*
X10250777Y-13338817D01*
X10365063Y-13205484D02*
X10384110Y-13205484D01*
X10384110Y-13205484D02*
X10403158Y-13215008D01*
X10403158Y-13215008D02*
X10412682Y-13224531D01*
X10412682Y-13224531D02*
X10422205Y-13243579D01*
X10422205Y-13243579D02*
X10431729Y-13281674D01*
X10431729Y-13281674D02*
X10431729Y-13329293D01*
X10431729Y-13329293D02*
X10422205Y-13367388D01*
X10422205Y-13367388D02*
X10412682Y-13386436D01*
X10412682Y-13386436D02*
X10403158Y-13395960D01*
X10403158Y-13395960D02*
X10384110Y-13405484D01*
X10384110Y-13405484D02*
X10365063Y-13405484D01*
X10365063Y-13405484D02*
X10346015Y-13395960D01*
X10346015Y-13395960D02*
X10336491Y-13386436D01*
X10336491Y-13386436D02*
X10326967Y-13367388D01*
X10326967Y-13367388D02*
X10317444Y-13329293D01*
X10317444Y-13329293D02*
X10317444Y-13281674D01*
X10317444Y-13281674D02*
X10326967Y-13243579D01*
X10326967Y-13243579D02*
X10336491Y-13224531D01*
X10336491Y-13224531D02*
X10346015Y-13215008D01*
X10346015Y-13215008D02*
X10365063Y-13205484D01*
X10555539Y-13205484D02*
X10574586Y-13205484D01*
X10574586Y-13205484D02*
X10593634Y-13215008D01*
X10593634Y-13215008D02*
X10603158Y-13224531D01*
X10603158Y-13224531D02*
X10612682Y-13243579D01*
X10612682Y-13243579D02*
X10622205Y-13281674D01*
X10622205Y-13281674D02*
X10622205Y-13329293D01*
X10622205Y-13329293D02*
X10612682Y-13367388D01*
X10612682Y-13367388D02*
X10603158Y-13386436D01*
X10603158Y-13386436D02*
X10593634Y-13395960D01*
X10593634Y-13395960D02*
X10574586Y-13405484D01*
X10574586Y-13405484D02*
X10555539Y-13405484D01*
X10555539Y-13405484D02*
X10536491Y-13395960D01*
X10536491Y-13395960D02*
X10526967Y-13386436D01*
X10526967Y-13386436D02*
X10517444Y-13367388D01*
X10517444Y-13367388D02*
X10507920Y-13329293D01*
X10507920Y-13329293D02*
X10507920Y-13281674D01*
X10507920Y-13281674D02*
X10517444Y-13243579D01*
X10517444Y-13243579D02*
X10526967Y-13224531D01*
X10526967Y-13224531D02*
X10536491Y-13215008D01*
X10536491Y-13215008D02*
X10555539Y-13205484D01*
X10707920Y-13405484D02*
X10707920Y-13272150D01*
X10707920Y-13291198D02*
X10717444Y-13281674D01*
X10717444Y-13281674D02*
X10736491Y-13272150D01*
X10736491Y-13272150D02*
X10765063Y-13272150D01*
X10765063Y-13272150D02*
X10784110Y-13281674D01*
X10784110Y-13281674D02*
X10793634Y-13300722D01*
X10793634Y-13300722D02*
X10793634Y-13405484D01*
X10793634Y-13300722D02*
X10803158Y-13281674D01*
X10803158Y-13281674D02*
X10822205Y-13272150D01*
X10822205Y-13272150D02*
X10850777Y-13272150D01*
X10850777Y-13272150D02*
X10869825Y-13281674D01*
X10869825Y-13281674D02*
X10879348Y-13300722D01*
X10879348Y-13300722D02*
X10879348Y-13405484D01*
X10974586Y-13405484D02*
X10974586Y-13272150D01*
X10974586Y-13291198D02*
X10984110Y-13281674D01*
X10984110Y-13281674D02*
X11003158Y-13272150D01*
X11003158Y-13272150D02*
X11031729Y-13272150D01*
X11031729Y-13272150D02*
X11050777Y-13281674D01*
X11050777Y-13281674D02*
X11060301Y-13300722D01*
X11060301Y-13300722D02*
X11060301Y-13405484D01*
X11060301Y-13300722D02*
X11069825Y-13281674D01*
X11069825Y-13281674D02*
X11088872Y-13272150D01*
X11088872Y-13272150D02*
X11117444Y-13272150D01*
X11117444Y-13272150D02*
X11136491Y-13281674D01*
X11136491Y-13281674D02*
X11146015Y-13300722D01*
X11146015Y-13300722D02*
X11146015Y-13405484D01*
X11536491Y-13195960D02*
X11365063Y-13453103D01*
X11793634Y-13205484D02*
X11812682Y-13205484D01*
X11812682Y-13205484D02*
X11831729Y-13215008D01*
X11831729Y-13215008D02*
X11841253Y-13224531D01*
X11841253Y-13224531D02*
X11850777Y-13243579D01*
X11850777Y-13243579D02*
X11860301Y-13281674D01*
X11860301Y-13281674D02*
X11860301Y-13329293D01*
X11860301Y-13329293D02*
X11850777Y-13367388D01*
X11850777Y-13367388D02*
X11841253Y-13386436D01*
X11841253Y-13386436D02*
X11831729Y-13395960D01*
X11831729Y-13395960D02*
X11812682Y-13405484D01*
X11812682Y-13405484D02*
X11793634Y-13405484D01*
X11793634Y-13405484D02*
X11774586Y-13395960D01*
X11774586Y-13395960D02*
X11765063Y-13386436D01*
X11765063Y-13386436D02*
X11755539Y-13367388D01*
X11755539Y-13367388D02*
X11746015Y-13329293D01*
X11746015Y-13329293D02*
X11746015Y-13281674D01*
X11746015Y-13281674D02*
X11755539Y-13243579D01*
X11755539Y-13243579D02*
X11765063Y-13224531D01*
X11765063Y-13224531D02*
X11774586Y-13215008D01*
X11774586Y-13215008D02*
X11793634Y-13205484D01*
X11946015Y-13386436D02*
X11955539Y-13395960D01*
X11955539Y-13395960D02*
X11946015Y-13405484D01*
X11946015Y-13405484D02*
X11936491Y-13395960D01*
X11936491Y-13395960D02*
X11946015Y-13386436D01*
X11946015Y-13386436D02*
X11946015Y-13405484D01*
X12079348Y-13205484D02*
X12098396Y-13205484D01*
X12098396Y-13205484D02*
X12117444Y-13215008D01*
X12117444Y-13215008D02*
X12126967Y-13224531D01*
X12126967Y-13224531D02*
X12136491Y-13243579D01*
X12136491Y-13243579D02*
X12146015Y-13281674D01*
X12146015Y-13281674D02*
X12146015Y-13329293D01*
X12146015Y-13329293D02*
X12136491Y-13367388D01*
X12136491Y-13367388D02*
X12126967Y-13386436D01*
X12126967Y-13386436D02*
X12117444Y-13395960D01*
X12117444Y-13395960D02*
X12098396Y-13405484D01*
X12098396Y-13405484D02*
X12079348Y-13405484D01*
X12079348Y-13405484D02*
X12060301Y-13395960D01*
X12060301Y-13395960D02*
X12050777Y-13386436D01*
X12050777Y-13386436D02*
X12041253Y-13367388D01*
X12041253Y-13367388D02*
X12031729Y-13329293D01*
X12031729Y-13329293D02*
X12031729Y-13281674D01*
X12031729Y-13281674D02*
X12041253Y-13243579D01*
X12041253Y-13243579D02*
X12050777Y-13224531D01*
X12050777Y-13224531D02*
X12060301Y-13215008D01*
X12060301Y-13215008D02*
X12079348Y-13205484D01*
X12336491Y-13405484D02*
X12222206Y-13405484D01*
X12279348Y-13405484D02*
X12279348Y-13205484D01*
X12279348Y-13205484D02*
X12260301Y-13234055D01*
X12260301Y-13234055D02*
X12241253Y-13253103D01*
X12241253Y-13253103D02*
X12222206Y-13262627D01*
X12517444Y-13205484D02*
X12422206Y-13205484D01*
X12422206Y-13205484D02*
X12412682Y-13300722D01*
X12412682Y-13300722D02*
X12422206Y-13291198D01*
X12422206Y-13291198D02*
X12441253Y-13281674D01*
X12441253Y-13281674D02*
X12488872Y-13281674D01*
X12488872Y-13281674D02*
X12507920Y-13291198D01*
X12507920Y-13291198D02*
X12517444Y-13300722D01*
X12517444Y-13300722D02*
X12526967Y-13319769D01*
X12526967Y-13319769D02*
X12526967Y-13367388D01*
X12526967Y-13367388D02*
X12517444Y-13386436D01*
X12517444Y-13386436D02*
X12507920Y-13395960D01*
X12507920Y-13395960D02*
X12488872Y-13405484D01*
X12488872Y-13405484D02*
X12441253Y-13405484D01*
X12441253Y-13405484D02*
X12422206Y-13395960D01*
X12422206Y-13395960D02*
X12412682Y-13386436D01*
X12593634Y-13205484D02*
X12726967Y-13205484D01*
X12726967Y-13205484D02*
X12641253Y-13405484D01*
X12793634Y-13205484D02*
X12793634Y-13243579D01*
X12869825Y-13205484D02*
X12869825Y-13243579D01*
X13165063Y-13481674D02*
X13155539Y-13472150D01*
X13155539Y-13472150D02*
X13136491Y-13443579D01*
X13136491Y-13443579D02*
X13126968Y-13424531D01*
X13126968Y-13424531D02*
X13117444Y-13395960D01*
X13117444Y-13395960D02*
X13107920Y-13348341D01*
X13107920Y-13348341D02*
X13107920Y-13310246D01*
X13107920Y-13310246D02*
X13117444Y-13262627D01*
X13117444Y-13262627D02*
X13126968Y-13234055D01*
X13126968Y-13234055D02*
X13136491Y-13215008D01*
X13136491Y-13215008D02*
X13155539Y-13186436D01*
X13155539Y-13186436D02*
X13165063Y-13176912D01*
X13326968Y-13272150D02*
X13326968Y-13405484D01*
X13279348Y-13195960D02*
X13231729Y-13338817D01*
X13231729Y-13338817D02*
X13355539Y-13338817D01*
X13584110Y-13405484D02*
X13584110Y-13205484D01*
X13669825Y-13405484D02*
X13669825Y-13300722D01*
X13669825Y-13300722D02*
X13660301Y-13281674D01*
X13660301Y-13281674D02*
X13641253Y-13272150D01*
X13641253Y-13272150D02*
X13612682Y-13272150D01*
X13612682Y-13272150D02*
X13593634Y-13281674D01*
X13593634Y-13281674D02*
X13584110Y-13291198D01*
X13793634Y-13405484D02*
X13774587Y-13395960D01*
X13774587Y-13395960D02*
X13765063Y-13386436D01*
X13765063Y-13386436D02*
X13755539Y-13367388D01*
X13755539Y-13367388D02*
X13755539Y-13310246D01*
X13755539Y-13310246D02*
X13765063Y-13291198D01*
X13765063Y-13291198D02*
X13774587Y-13281674D01*
X13774587Y-13281674D02*
X13793634Y-13272150D01*
X13793634Y-13272150D02*
X13822206Y-13272150D01*
X13822206Y-13272150D02*
X13841253Y-13281674D01*
X13841253Y-13281674D02*
X13850777Y-13291198D01*
X13850777Y-13291198D02*
X13860301Y-13310246D01*
X13860301Y-13310246D02*
X13860301Y-13367388D01*
X13860301Y-13367388D02*
X13850777Y-13386436D01*
X13850777Y-13386436D02*
X13841253Y-13395960D01*
X13841253Y-13395960D02*
X13822206Y-13405484D01*
X13822206Y-13405484D02*
X13793634Y-13405484D01*
X13974587Y-13405484D02*
X13955539Y-13395960D01*
X13955539Y-13395960D02*
X13946015Y-13376912D01*
X13946015Y-13376912D02*
X13946015Y-13205484D01*
X14126968Y-13395960D02*
X14107920Y-13405484D01*
X14107920Y-13405484D02*
X14069825Y-13405484D01*
X14069825Y-13405484D02*
X14050777Y-13395960D01*
X14050777Y-13395960D02*
X14041253Y-13376912D01*
X14041253Y-13376912D02*
X14041253Y-13300722D01*
X14041253Y-13300722D02*
X14050777Y-13281674D01*
X14050777Y-13281674D02*
X14069825Y-13272150D01*
X14069825Y-13272150D02*
X14107920Y-13272150D01*
X14107920Y-13272150D02*
X14126968Y-13281674D01*
X14126968Y-13281674D02*
X14136491Y-13300722D01*
X14136491Y-13300722D02*
X14136491Y-13319769D01*
X14136491Y-13319769D02*
X14041253Y-13338817D01*
X14212682Y-13395960D02*
X14231730Y-13405484D01*
X14231730Y-13405484D02*
X14269825Y-13405484D01*
X14269825Y-13405484D02*
X14288872Y-13395960D01*
X14288872Y-13395960D02*
X14298396Y-13376912D01*
X14298396Y-13376912D02*
X14298396Y-13367388D01*
X14298396Y-13367388D02*
X14288872Y-13348341D01*
X14288872Y-13348341D02*
X14269825Y-13338817D01*
X14269825Y-13338817D02*
X14241253Y-13338817D01*
X14241253Y-13338817D02*
X14222206Y-13329293D01*
X14222206Y-13329293D02*
X14212682Y-13310246D01*
X14212682Y-13310246D02*
X14212682Y-13300722D01*
X14212682Y-13300722D02*
X14222206Y-13281674D01*
X14222206Y-13281674D02*
X14241253Y-13272150D01*
X14241253Y-13272150D02*
X14269825Y-13272150D01*
X14269825Y-13272150D02*
X14288872Y-13281674D01*
X14365063Y-13481674D02*
X14374587Y-13472150D01*
X14374587Y-13472150D02*
X14393634Y-13443579D01*
X14393634Y-13443579D02*
X14403158Y-13424531D01*
X14403158Y-13424531D02*
X14412682Y-13395960D01*
X14412682Y-13395960D02*
X14422206Y-13348341D01*
X14422206Y-13348341D02*
X14422206Y-13310246D01*
X14422206Y-13310246D02*
X14412682Y-13262627D01*
X14412682Y-13262627D02*
X14403158Y-13234055D01*
X14403158Y-13234055D02*
X14393634Y-13215008D01*
X14393634Y-13215008D02*
X14374587Y-13186436D01*
X14374587Y-13186436D02*
X14365063Y-13176912D01*
M02*
